<svg xmlns="http://www.w3.org/2000/svg" width="251" height="251" viewBox="0 0 251 251" fill="none"><g clip-path="url(#clip0_46_4170)"><path d="M75.7728 185.125C75.785 185.533 75.3278 185.795 74.9742 185.643C73.298 183.57 72.4142 180.834 71.3415 178.389C71.2561 178.097 71.116 177.81 70.988 177.518C70.9758 177.487 70.9635 177.457 70.9453 177.426C70.799 177.073 70.6893 176.719 70.7258 176.347C70.738 176.219 70.7868 176.104 70.8599 176C71.0184 175.781 71.2927 175.671 71.5731 175.811C71.9144 175.939 72.0912 176.244 72.2253 176.561C72.2436 176.616 72.268 176.67 72.2863 176.725C72.9629 178.31 73.6577 179.883 74.3343 181.468C74.8219 182.674 75.407 183.881 75.7667 185.131L75.7728 185.125Z" fill="white"></path><path d="M103.598 127.628C103.653 127.762 103.653 127.939 103.586 128.091C103.47 128.323 103.361 128.554 103.239 128.786C103.068 129.121 102.897 129.45 102.727 129.785C102.714 129.81 102.702 129.828 102.69 129.853C98.6794 137.472 93.2607 144.304 88.5795 151.521C84.2945 158.019 80.0156 164.529 75.7245 171.026C74.5359 172.861 73.3656 174.702 72.2258 176.567C72.2136 176.585 72.2014 176.61 72.1892 176.628C71.9941 177.073 71.4761 177.573 70.9884 177.524C70.836 177.512 70.6837 177.439 70.5496 177.298C70.5435 177.286 70.5313 177.274 70.5252 177.256C70.257 176.78 70.3789 176.311 70.6166 175.86C70.8604 175.391 71.2261 174.933 71.4151 174.507C73.3351 171.234 75.4441 168.076 77.4799 164.87C82.6 156.794 88.0553 148.894 93.5533 141.141C96.351 137.374 98.7038 133.205 101.526 129.462C101.66 129.286 101.794 129.103 101.934 128.926C102.209 128.572 102.489 128.219 102.775 127.872C102.861 127.768 102.946 127.658 103.038 127.561C103.074 127.518 103.111 127.475 103.147 127.433C103.367 127.359 103.525 127.469 103.592 127.634L103.598 127.628Z" fill="white"></path><path d="M103.117 127.75C103.233 128.097 103.269 128.457 103.239 128.786C103.196 129.237 103.013 129.621 102.727 129.785C102.696 129.804 102.666 129.822 102.629 129.828C102.343 129.938 101.971 129.852 101.526 129.462C101.471 129.414 101.41 129.359 101.349 129.298C98.6246 125.458 96.9545 120.904 94.8333 116.76C90.1339 107.702 84.9955 98.8822 80.5581 89.6904C79.7413 88.1483 79.0099 86.5696 78.1931 85.0275C77.547 83.8267 76.8766 82.6443 76.1817 81.4679C76.1329 81.3764 76.0781 81.2911 76.0232 81.2057C75.9623 81.096 75.8952 80.9863 75.8281 80.8766C75.6879 80.6389 75.6026 80.3889 75.6331 80.1086C75.6331 80.0964 75.6331 80.0842 75.6392 80.0659C75.7672 79.2187 76.7912 79.56 77.0655 80.1757C77.1082 80.2488 77.1569 80.322 77.1996 80.3951C84.7273 92.5004 90.5057 105.563 97.8932 117.747C99.5206 121.051 101.66 124.147 103.025 127.554C103.05 127.603 103.068 127.658 103.092 127.713C103.092 127.725 103.099 127.731 103.099 127.743L103.117 127.75Z" fill="white"></path><path d="M76.5894 80.0781C76.9369 80.2792 76.9125 80.84 76.5468 81.0107C76.37 81.0777 76.1994 81.1387 76.0287 81.1996C75.9434 81.2301 75.858 81.2606 75.7788 81.2911C69.7078 83.5341 63.5821 85.6187 57.4136 87.5875C50.9709 89.6172 44.4976 91.58 38.1158 93.8169C35.7752 94.6459 33.4285 95.4505 31.1001 96.316C30.7283 96.4013 30.3382 96.5902 29.9481 96.7182C29.8262 96.7548 29.7043 96.7914 29.5885 96.8097C29.302 96.8645 29.0156 96.8524 28.7474 96.7122C28.2597 96.2185 28.656 95.8284 29.1619 95.5297C29.2777 95.4626 29.3935 95.4017 29.5093 95.3468C29.7043 95.2493 29.8933 95.1701 30.0274 95.103C32.3131 94.14 34.6415 93.2927 36.9638 92.4394C48.0512 88.2702 59.3276 84.6251 70.7014 81.3276C72.3045 80.9619 73.9685 80.1695 75.6264 80.0537C75.6386 80.0537 75.6447 80.0537 75.6569 80.0537C75.9678 80.0293 76.2847 80.0354 76.5955 80.072L76.5894 80.0781Z" fill="white"></path><path d="M29.1554 95.5358C29.5029 95.6273 29.771 95.9991 29.6613 96.4075L29.5821 96.8158C29.5394 97.0414 29.4968 97.2608 29.4541 97.4863C27.1623 109.976 26.9611 122.776 26.9306 135.442C26.9428 139.093 27.0586 142.744 27.2049 146.389C27.2598 148.084 27.3146 149.784 27.3573 151.479C27.3573 151.607 27.339 151.759 27.2841 151.905C27.2171 152.119 27.0891 152.32 26.9245 152.436C26.8148 152.515 26.6868 152.557 26.5466 152.545C26.4552 152.527 26.376 152.496 26.3089 152.454C26.254 152.429 26.2053 152.393 26.1565 152.356C25.3885 151.704 25.736 149.821 25.5227 148.925C25.1752 143.567 25.3336 138.185 24.9984 132.827C24.6753 125.494 25.1813 118.125 25.8579 110.817C26.376 106.385 26.8453 101.936 27.8693 97.5838C27.912 97.3644 27.9546 97.1389 27.9973 96.9195C28.0887 96.4562 28.2229 95.999 28.5703 95.6638C28.7532 95.5175 28.9665 95.4871 29.1493 95.5358H29.1554Z" fill="white"></path><path d="M70.7069 177.347C67.7385 175.762 64.7579 174.476 61.6676 173.324C57.3887 171.349 53.1891 168.875 49.0625 166.686C41.3825 162.456 33.489 158.348 26.4611 153.1C25.8516 152.423 26.1869 151.521 27.1926 151.856C33.2696 155.892 39.7062 159.317 46.2343 162.56C52.6527 166.052 59.0223 169.344 65.276 172.995C67.1778 174.043 69.1526 174.982 71.0178 176.098C71.2921 176.28 71.5969 176.488 71.6883 176.817C71.798 177.371 71.1214 177.573 70.7069 177.353V177.347Z" fill="white"></path><path d="M21.9829 158.244C21.8732 157.403 22.6717 156.678 23.0679 156.056C24.0675 154.8 24.738 153.417 26.1033 152.557C26.5788 152.228 27.3651 152.368 27.3102 153.057C27.231 153.856 26.7555 154.569 26.3228 155.233C25.6096 155.959 22.7997 160.353 21.9829 158.238V158.244Z" fill="white"></path><path d="M27.8691 96.7366C26.0283 94.4143 25.2298 91.5007 24.0656 88.8249C23.9681 88.5872 23.8888 88.2458 24.1022 88.0325C24.2667 87.874 24.535 88.069 24.6569 88.1849C25.3639 89.3491 25.9612 90.6169 26.8329 91.6775C27.9849 93.1709 29.4782 94.6581 29.9537 96.5172C29.9841 97.9922 28.4786 97.657 27.8752 96.7305L27.8691 96.7366Z" fill="white"></path><path d="M75.8821 81.3948C74.8093 80.4622 76.4916 78.6214 76.8512 77.64C78.0276 75.3909 79.3015 73.1844 80.9289 71.2278C81.2276 70.8925 81.5446 70.2525 82.081 70.4598C82.3431 70.6792 82.2394 71.0876 82.081 71.3436C80.8192 73.8366 79.2771 76.1772 77.9179 78.6153C77.3084 79.3833 77.2474 81.9433 75.8821 81.4069V81.3948Z" fill="white"></path><path d="M105.446 130.072C104.294 129.95 101.441 130.389 102.02 128.463C103.056 126.939 107.353 127.622 109.005 127.902C110.499 128.292 112.01 128.627 113.528 128.92C113.949 128.993 114.966 129.176 114.552 129.785C113.784 130.236 112.772 129.889 111.913 129.944C109.755 129.932 107.609 130.261 105.446 130.078V130.072Z" fill="white"></path><path d="M156.535 131.888C153.56 131.498 150.568 131.254 147.599 130.803C146.849 130.572 143.497 130.529 144.253 129.237C144.484 129.011 144.85 129.042 145.149 128.981C147.819 128.767 150.494 129.023 153.14 129.407C154.432 129.578 155.73 129.706 157.016 129.95C157.541 130.005 158.132 130.218 158.296 130.773C158.54 131.815 157.309 132.083 156.529 131.888H156.535Z" fill="white"></path><path d="M156.767 131.132C156.603 130.73 156.913 130.291 157.108 129.95C158.779 127.043 160.76 124.324 162.594 121.514C169.555 110.597 177.101 99.9123 183.952 88.9468C183.934 88.9773 183.916 89.0017 183.897 89.0322C183.873 89.0687 183.849 89.1114 183.824 89.148C184.598 87.935 185.372 86.6611 186.073 85.5579C186.396 84.9788 186.866 84.3327 187.609 84.3875C188.243 84.4485 188.42 85.1617 188.323 85.6919C187.183 88.1971 185.561 90.489 184.22 92.8966C179.295 101.394 173.816 109.525 168.098 117.503C165.874 120.728 163.612 123.928 161.302 127.091C160.571 127.884 157.681 132.577 156.779 131.132H156.767Z" fill="white"></path><path d="M187.531 85.8504C187.531 85.5822 187.751 85.3323 188.025 85.3323C188.299 85.3323 188.537 85.5456 188.543 85.826C188.543 86.0942 188.324 86.3441 188.049 86.3441C187.775 86.3441 187.537 86.1307 187.531 85.8504Z" fill="white"></path><path d="M229.553 105.63C221.007 101.205 212.285 96.5355 203.483 92.7564C198.26 90.3488 192.878 88.124 187.41 86.4174C187.075 86.2467 186.679 85.9175 186.843 85.4909C188.221 83.4611 198.443 88.0875 200.643 88.9225C209.347 92.8479 218.063 96.8952 226.219 101.887C227.535 102.734 228.846 103.661 230.144 104.514C230.693 105.069 230.388 105.813 229.547 105.624L229.553 105.63Z" fill="white"></path><path d="M187.593 86.5635C186.307 85.3627 185.856 83.5402 185.015 82.0286C183.777 79.1211 182.321 76.3173 181.12 73.3977C180.693 72.7394 181.132 71.8555 181.809 72.6784C183.485 75.4944 184.936 78.5177 186.533 81.3581C186.819 82.2236 190.043 87.1487 187.593 86.5635Z" fill="white"></path><path d="M182.338 180.706C181.911 180.675 181.594 180.401 181.369 180.06C181.302 179.962 181.241 179.858 181.167 179.767C180.57 179.005 180.089 178.176 179.607 177.341C179.083 176.439 178.607 175.512 178.132 174.586C177.157 172.69 176.218 170.776 175.279 168.862C174.31 166.888 173.341 164.907 172.378 162.926C171.89 161.926 171.403 160.926 170.952 159.908C170.525 158.939 170.05 157.995 169.574 157.05C167.618 153.137 165.624 149.248 163.619 145.365C162.644 143.469 161.669 141.58 160.712 139.678C159.736 137.74 158.804 135.783 157.835 133.845C157.432 133.034 157.048 132.211 156.628 131.419C156.469 131.12 156.603 130.73 156.902 130.578C157.213 130.419 157.585 130.553 157.743 130.852C159.749 134.631 161.851 138.349 163.832 142.141C165.826 145.981 167.831 149.815 169.867 153.636C170.714 155.227 171.561 156.812 172.433 158.378C172.494 158.482 172.555 158.586 172.604 158.665C172.61 158.677 172.616 158.689 172.622 158.702C173.731 160.573 174.767 162.493 175.822 164.395C176.895 166.333 177.961 168.277 179.016 170.222C180.015 172.069 181.021 173.915 181.923 175.811C182.356 176.719 182.807 177.64 183.094 178.603C183.148 178.78 183.209 178.944 183.27 179.109C183.429 179.505 183.429 179.913 183.209 180.285C183.039 180.565 182.734 180.718 182.411 180.718C182.386 180.718 182.362 180.718 182.338 180.718V180.706Z" fill="white"></path><path d="M175.657 191.665C174.529 190.964 177.669 186.185 178.095 185.058C178.65 184.125 182.283 176.908 183.38 179.334C183.483 180.133 182.941 180.864 182.63 181.577C181.478 183.772 180.168 185.868 178.851 187.971C178.187 189.105 177.461 190.214 176.663 191.232C176.462 191.561 176.047 191.854 175.651 191.671L175.657 191.665Z" fill="white"></path><path d="M182.026 181.084C181.075 180.736 182.008 179.834 182.629 179.724C186.994 177.847 191.51 176.482 196.009 175C206.736 171.386 217.287 167.095 227.088 161.42C232.696 162.34 206.389 173.178 204.95 173.653C200.83 175.275 196.667 176.616 192.485 178.03C189.005 178.944 185.604 180.724 182.026 181.09V181.084Z" fill="white"></path><path d="M229.491 167.186C228.601 166.412 228.095 165.236 227.455 164.254C227.132 163.553 225.755 161.7 227.077 161.396C227.382 161.396 227.632 161.615 227.827 161.828C228.686 162.913 229.302 164.175 230.027 165.358C230.198 165.675 230.43 165.961 230.533 166.308C230.734 166.997 230.143 167.601 229.485 167.186H229.491Z" fill="white"></path><path d="M230.002 105.112C228.924 104.612 231.575 102.131 231.947 101.576C232.514 101.046 232.94 100.046 233.782 100.016C234.239 100.052 234.324 100.632 234.117 100.967C233.343 102.113 232.489 103.234 231.532 104.234C231.1 104.6 230.63 105.252 229.996 105.112H230.002Z" fill="white"></path><path d="M227.047 161.859C226.291 161.195 226.821 160.079 226.827 159.213C227.418 154.045 228.028 148.87 228.436 143.677C229.296 130.974 230.423 118.18 229.436 105.465C228.832 104.636 230.32 103.874 230.606 104.91C231.703 108.135 231.478 111.67 231.673 115.041C231.758 118.6 231.709 122.154 231.612 125.714C231.447 131.754 231.063 137.758 230.417 143.762C229.881 148.912 229.393 154.069 228.65 159.195C228.424 160.128 228.546 162.481 227.059 161.871L227.047 161.859Z" fill="white"></path><path d="M37.6285 209.299C27.62 196.108 21.0737 180.242 17.6725 163.907C13.6008 160.457 9.79125 156.739 6.52417 152.551C7.46285 156.513 8.61488 160.475 9.97413 164.425C15.8927 181.577 25.4745 196.779 37.6285 209.293V209.299ZM63.8018 20.9414C63.5031 20.527 63.2044 20.1186 62.8997 19.7102C32.5572 37.7279 11.4187 68.2837 5.14052 102.862C6.32301 100.814 7.68225 98.8638 9.09027 96.9621C12.9303 91.7262 17.4896 87.0634 22.5427 82.9978C26.9313 70.3135 33.3984 58.3606 41.2552 47.4865C47.8625 37.9047 55.4695 29.0421 63.8079 20.9414H63.8018ZM64.9111 19.8748C66.051 18.7837 67.1968 17.7109 68.361 16.6564C66.9103 17.4122 65.4841 18.2046 64.07 19.0214C64.3687 19.2835 64.6429 19.57 64.9111 19.8687V19.8748ZM119.111 144.146C122.024 139.751 124.932 135.356 127.827 130.95C123.316 122.837 118.769 114.748 114.186 106.678C105.372 91.8665 97.4662 76.5367 88.9876 61.5362C70.8602 63.5842 52.757 67.8327 36.6654 76.5977C32.6486 78.6884 28.8513 81.1326 25.2855 83.8572C18.0077 104.935 15.8682 127.829 18.9098 149.888C19.501 154.538 20.2569 159.189 21.226 163.785C26.9252 168.423 32.9108 172.727 38.9146 176.926C45.6682 181.778 52.9338 185.716 60.6627 188.715C67.3919 191.634 74.3223 193.835 81.3928 195.554C85.6656 189.458 89.8897 183.327 94.4368 177.432C102.781 166.491 111.443 155.52 119.117 144.146H119.111ZM165.045 239.891C164.862 239.672 164.697 239.434 164.521 239.214C164.484 239.172 164.454 239.129 164.423 239.093C160.772 234.558 157.267 229.645 154.421 224.604C153.836 223.458 152.671 222.141 152.769 220.794C146.29 221.782 139.676 221.642 133.148 221.538C121.055 220.941 108.877 220.666 96.9419 218.484C96.6128 218.381 96.0398 218.301 95.4913 218.167C95.4303 218.381 95.3206 218.582 95.2048 218.74C91.6147 223.994 87.1346 228.596 83.1849 233.582C82.045 234.954 80.8687 236.283 79.7715 237.666C96.4787 244.432 114.801 247.547 133.526 246.187C144.4 245.535 154.988 243.371 165.051 239.891H165.045ZM175.51 15.2668C175.693 15.0229 175.852 14.7547 176.029 14.4987C174.803 13.877 173.566 13.2857 172.323 12.7189C172.061 12.4934 171.829 12.1459 171.719 11.7863C155.152 4.94735 136.677 1.66197 117.172 2.94198C105.963 3.6978 95.2901 5.90431 85.2877 9.34816C91.0661 14.6755 95.3754 21.3559 99.441 28.0181C99.8189 28.6215 103.933 35.686 104.622 38.4655C104.75 38.4045 104.896 38.3435 105.067 38.2826C107.133 37.6669 109.322 37.7401 111.455 37.6548C115.728 37.4537 120.007 37.4902 124.279 37.6548C130.759 37.8011 137.244 37.9778 143.693 38.6666C147.82 39.075 151.97 39.5443 156.042 40.2818C157.407 40.6049 158.956 40.5196 160.266 41.0316C160.973 37.1001 167.007 28.6398 168.55 26.0676C170.872 22.4714 173.139 18.8386 175.51 15.2668ZM183.276 231.857C183.081 231.486 182.91 231.083 182.685 230.754C181.258 228.139 179.789 225.549 178.345 222.94C174.852 216.674 171.518 210.274 168.166 203.929C159.413 204.959 150.55 205.264 141.761 205.3C126.577 205.379 111.394 204.239 96.4665 201.405C91.7 200.594 86.9518 199.607 82.2523 198.431C78.2172 204.301 74.176 210.164 69.9154 215.876C67.459 219.204 64.7222 222.544 62.0585 225.658C61.4916 226.219 60.9126 227.03 60.3275 227.7C66.1424 231.37 72.2621 234.552 78.6256 237.197C78.6804 237.124 78.7292 237.051 78.778 236.977C81.7891 232.412 85.3609 228.255 88.6767 223.903C90.3164 221.788 91.9011 219.594 93.815 217.71C93.9065 217.619 94.0162 217.515 94.132 217.424C94.0711 217.29 94.065 217.125 94.132 216.942C93.8516 216.54 93.6017 216.107 93.3153 215.729C91.7305 213.395 89.9567 211.097 89.0729 208.39C89.1948 207.476 90.1518 207.97 90.5053 208.457C92.3095 210.292 93.3762 212.663 94.644 214.864C94.7781 215.175 95.2413 215.845 95.5461 216.485C96.5335 216.467 97.521 216.619 98.5024 216.698C108.243 218.192 117.946 219.027 127.766 219.447C135.001 219.917 142.254 220.087 149.453 219.197C150.843 219.057 152.226 218.874 153.604 218.698C153.671 218.685 153.738 218.679 153.805 218.673C154.799 217.113 155.908 215.626 157.133 214.242C157.925 213.541 161.461 208.787 162.314 210.152C162.497 210.506 162.314 210.944 162.162 211.28C160.9 213.785 158.913 215.808 157.218 218.015C156.633 218.759 156.024 219.496 155.469 220.264C155.335 220.52 155.128 220.77 154.884 220.959C157.895 225.591 160.766 230.358 163.789 234.972C164.594 236.216 165.38 237.477 166.215 238.702C166.361 238.904 166.52 239.111 166.599 239.348C172.353 237.276 177.93 234.759 183.282 231.863L183.276 231.857ZM192.687 28.9141C193.01 28.3899 193.345 27.8108 193.675 27.2379C190.584 24.2877 187.348 21.5083 183.788 19.1677C181.801 17.7292 179.71 16.4614 177.565 15.3033C177.229 15.9311 176.638 16.5041 176.346 17.0709C172.207 23.3247 168.355 29.7491 164.466 36.1553C163.667 37.4841 162.893 38.8312 162.186 40.2148C161.93 40.5622 161.692 41.4095 161.357 41.9764C161.394 42.0312 161.424 42.0922 161.455 42.1531C162.418 43.5246 169.049 52.8992 166.971 53.722C165.776 53.1308 165.203 51.7106 164.466 50.6561C162.832 48.0046 161.18 45.3593 159.376 42.8419C159.321 42.72 159.279 42.6103 159.242 42.5005C149.093 41.1413 138.744 40.0624 128.54 39.6297C120.951 39.331 113.357 40.0441 105.78 39.9161C105.713 39.9161 105.646 39.9161 105.585 39.9161C105.463 40.1965 105.262 40.4403 105.067 40.672C103.744 42.3177 102.342 43.7257 100.867 45.2008C98.9595 47.1696 96.8323 49.0164 95.0707 51.0949C94.961 51.3265 94.6989 51.4851 94.4246 51.4424C92.2181 51.0218 98.0879 45.3593 98.734 44.512C100.331 42.781 101.879 40.9889 103.561 39.3371C103.586 39.2944 103.616 39.2578 103.647 39.2213C101.306 35.1801 99.1729 31.0048 96.753 27.0002C92.9983 20.9354 88.6889 15.2302 84.1357 9.76267C81.0454 10.8598 78.0282 12.0728 75.0781 13.3955C74.8525 13.7307 74.5051 13.9867 74.2004 14.2549C71.5733 16.7174 68.9889 19.2348 66.4593 21.8009C66.5142 21.868 66.569 21.935 66.6239 22.002C73.3043 31.0779 79.0462 40.7939 84.9403 50.3818C86.6043 53.0942 88.2317 55.831 89.8348 58.5861C89.8714 58.5861 89.908 58.58 89.9384 58.5739C115.271 55.2885 141.048 56.5624 166.179 60.8718C168.537 61.2497 170.896 61.6703 173.249 62.1335C177.936 54.7521 182.471 47.2732 186.775 39.5992C188.737 36.0334 190.694 32.4677 192.687 28.9202V28.9141ZM233.465 163.937C238.079 145.548 240.072 126.445 237.286 107.653C236.652 103.076 235.775 98.5408 234.647 94.0729C232.24 91.8847 229.716 89.8184 227.15 87.8435C211.68 75.787 192.992 69.1676 173.907 65.2483C164.295 80.4317 154.159 95.292 144.223 110.268C139.542 117.125 134.946 124.031 130.35 130.919C130.942 131.986 131.533 133.059 132.124 134.131C138.652 146.102 145.107 158.129 152.025 169.88C158.035 180.102 163.728 190.647 169.251 201.094C174.846 200.381 180.387 199.363 185.836 197.961C193.997 195.554 202.171 192.927 209.736 188.983C217.038 184.972 223.858 180.005 229.996 174.372C231.319 170.959 232.483 167.479 233.459 163.95L233.465 163.937ZM240.176 166.138C239.81 166.601 239.432 167.058 239.054 167.509C237.055 170.063 234.897 172.477 232.617 174.763C229.442 183.016 225.388 190.915 220.445 198.266C216.514 204.026 212.174 209.652 207.365 214.803C221.969 201.6 233.428 184.942 240.176 166.132V166.138ZM243.723 100.241C244.211 100.839 244.68 101.448 245.137 102.064C239.243 70.9961 221.481 43.7075 196.484 25.6227C196.46 25.6897 196.436 25.7567 196.411 25.8238C198.234 27.5853 199.989 29.4139 201.696 31.2852C212.021 42.2445 221.268 54.2462 227.814 67.8448C231.74 75.8419 234.812 84.2961 237.03 93.0001C239.414 95.2676 241.657 97.6752 243.723 100.241ZM155.975 3.86848C260.583 31.2303 284.83 165.638 197.033 228.414C168.166 248.827 130.637 255.916 96.3141 247.577C45.0526 235.466 9.09639 193.091 1.49554 144.676C1.37363 144.378 1.29441 144.067 1.35536 143.75C1.11155 142.11 0.898182 140.458 0.715323 138.8C0.660465 138.88 0.569015 138.922 0.465395 138.922C0.313012 138.922 0.191142 138.77 0.197237 138.617C0.209428 138.453 0.343524 138.349 0.502002 138.349C0.569051 138.349 0.630028 138.38 0.67879 138.428C-1.32047 119.442 1.03842 99.6928 8.52955 80.6145C30.3507 21.9106 95.3754 -11.894 155.975 3.86238V3.86848Z" fill="white"></path><path d="M35.1045 96.7488C35.0008 96.2429 36.1101 96.316 36.4332 96.1392C42.1384 94.5484 47.7705 92.7076 53.4452 91.0192C58.0106 89.6233 62.576 88.2336 67.1353 86.8195C67.6046 86.7402 68.2386 86.2526 68.6348 86.6915C68.6591 86.8561 68.5189 86.9841 68.4031 87.0755C67.7022 87.3742 66.9341 87.5388 66.2149 87.7826C60.15 89.666 54.067 91.5068 47.99 93.3537C44.3754 94.4326 40.767 95.5785 37.122 96.5415C36.5429 96.6878 35.9578 96.8402 35.3665 96.9499C35.2507 96.9499 35.1349 96.8646 35.1045 96.7488Z" fill="white"></path><path d="M32.2655 100.229C31.9668 99.3636 37.5501 98.1812 38.4217 97.8215C39.7992 97.4436 41.1829 97.0779 42.5787 96.7793C42.7494 96.761 42.9749 96.8097 43.0541 96.9743C43.0419 97.1449 42.8835 97.2729 42.7372 97.3339C41.5974 97.6143 40.4514 97.8825 39.3238 98.2177C37.0624 98.8943 34.8133 99.6197 32.5641 100.345C32.4544 100.382 32.3264 100.327 32.2655 100.223V100.229Z" fill="white"></path><path d="M32.1055 103.143C32.0446 102.997 32.1177 102.826 32.264 102.765C33.672 102.149 35.1288 101.643 36.5612 101.095C40.2306 99.7295 43.9183 98.4251 47.6181 97.1329C48.0082 97.0292 48.3922 96.7428 48.7945 96.9134C48.9652 96.9744 49.0018 97.1511 48.892 97.2913C48.7336 97.5656 48.3861 97.6205 48.124 97.718C45.1312 98.7603 42.1567 99.8209 39.17 100.881C36.9452 101.698 34.6717 102.381 32.4834 103.289C32.3433 103.356 32.1665 103.283 32.0994 103.137L32.1055 103.143Z" fill="white"></path><path d="M32.4098 105.892C32.3306 105.709 32.4342 105.502 32.6109 105.447C34.0555 104.856 35.5123 104.301 36.9691 103.746C38.3954 103.21 39.8278 102.673 41.2602 102.143C41.5894 101.979 42.6134 101.637 42.4793 102.308C42.3878 102.509 42.2111 102.649 42.0038 102.716C39.8339 103.515 37.6822 104.331 35.5062 105.118C34.6224 105.441 33.7325 105.752 32.8548 106.075C32.6902 106.154 32.483 106.062 32.4159 105.898L32.4098 105.892Z" fill="white"></path><path d="M33.457 109.464C33.39 109.232 33.5485 109.007 33.7436 108.97C35.2613 108.427 36.7424 107.787 38.2479 107.221C40.1923 106.465 42.149 105.721 44.0995 104.978C44.4652 104.776 45.2271 104.984 44.8065 105.483C42.1916 106.8 39.2476 107.617 36.523 108.763C35.627 109.074 34.7554 109.494 33.8532 109.762C33.6765 109.762 33.5058 109.653 33.457 109.464Z" fill="white"></path><path d="M36.0504 110.939C35.9529 110.713 36.0809 110.427 36.3247 110.366C37.9156 109.884 39.5064 109 41.1461 108.842C41.5849 108.946 41.4569 109.384 41.1583 109.586C40.2623 109.988 39.287 110.226 38.3606 110.567C37.7084 110.768 37.0866 111.024 36.4405 111.201C36.2759 111.201 36.1175 111.109 36.0504 110.945V110.939Z" fill="white"></path><path d="M32.2969 116.93C32.2055 116.711 32.3091 116.461 32.5285 116.364C33.9548 115.772 35.4116 115.242 36.8562 114.687C38.6421 114.005 40.4098 113.31 42.1957 112.627C42.4273 112.499 42.9819 112.463 42.9941 112.81C42.9088 113.261 42.4029 113.328 42.0494 113.487C39.4955 114.468 36.9598 115.48 34.4303 116.51C33.8878 116.717 33.3575 116.967 32.8089 117.174C32.6078 117.229 32.3822 117.125 32.2969 116.93Z" fill="white"></path><path d="M33.8975 119.777C33.7878 119.521 33.9097 119.167 34.184 119.07C35.8297 118.473 37.4572 117.942 39.0724 117.357C40.1086 116.918 40.4622 117.893 39.3772 118.21C37.7802 118.808 36.1771 119.399 34.6045 120.057C34.3424 120.179 34.0133 120.039 33.8975 119.771V119.777Z" fill="white"></path><path d="M34.1427 123.001C33.838 122.959 33.7222 122.556 33.9721 122.367C34.1733 122.258 34.411 122.239 34.6243 122.142C35.8921 121.679 37.1844 121.282 38.4705 120.892C38.7387 120.795 39.0434 120.697 39.3055 120.862C39.4213 120.917 39.4762 121.032 39.4274 121.154C39.2324 121.648 38.5924 121.642 38.1657 121.831C36.8369 122.227 35.5203 122.831 34.1427 123.007V123.001Z" fill="white"></path><path d="M32.7999 127.42C32.361 126.439 33.8178 126.317 34.4091 125.951C35.5245 125.464 36.6582 125.025 37.7737 124.549C38.0419 124.434 38.3405 124.428 38.5904 124.586C39.2853 125.446 36.9935 125.933 36.4754 126.293C35.5367 126.744 34.5737 127.14 33.6654 127.646C33.3729 127.823 32.9706 127.713 32.7999 127.42Z" fill="white"></path><path d="M33.7094 129.901C33.6789 129.724 33.813 129.535 33.9959 129.511C35.9159 128.603 37.8847 127.792 39.8718 127.042C40.3167 126.89 40.8653 127.256 40.4448 127.707C40.0851 128.067 39.5305 128.127 39.0794 128.347C37.5373 128.95 35.9769 129.572 34.4226 130.115C34.1666 130.236 33.7704 130.279 33.7094 129.907V129.901Z" fill="white"></path><path d="M32.1559 135.046C34.7281 133.583 37.5076 132.498 40.2201 131.309C40.7321 130.98 41.561 131.334 40.9088 131.913C38.3183 133.126 35.6364 134.18 32.991 135.271C32.7777 135.344 32.5765 135.478 32.351 135.503C32.1194 135.503 31.9791 135.216 32.1559 135.04V135.046Z" fill="white"></path><path d="M31.844 138.953C31.8196 138.794 31.9171 138.648 32.0512 138.587C33.447 137.947 34.849 137.283 36.257 136.655C37.153 136.277 38.0246 135.795 38.945 135.485C39.1156 135.46 39.3168 135.503 39.4326 135.637C39.5484 135.85 39.3412 136.088 39.1827 136.216C38.0063 136.789 36.7811 137.289 35.5864 137.837C34.4832 138.313 33.3922 138.825 32.2706 139.239C32.0817 139.3 31.8623 139.148 31.8379 138.953H31.844Z" fill="white"></path><path d="M28.9799 144.225C28.4496 143.408 29.626 143.091 30.1685 142.787C31.9178 141.952 33.6794 141.147 35.4287 140.318C36.276 140.074 37.3548 139.02 38.2082 139.507C38.5861 139.94 37.9583 140.452 37.5499 140.574C35.2642 141.622 32.9114 142.75 30.6927 143.859C30.1441 144.061 29.498 144.829 28.9738 144.219L28.9799 144.225Z" fill="white"></path><path d="M32.6801 146.615C32.3509 146.304 32.4789 145.7 32.9056 145.554C34.0942 144.902 35.3193 144.317 36.5201 143.683C37.5685 143.085 38.2146 144.134 37.1235 144.719C35.9593 145.322 34.8012 145.926 33.6492 146.56C33.4176 146.852 32.9422 146.883 32.674 146.615H32.6801Z" fill="white"></path><path d="M32.7952 150.717C32.8745 150.174 33.5511 149.997 33.9473 149.723C36.2757 148.583 38.6407 147.468 41.0422 146.505C41.3653 146.438 41.8285 146.682 41.609 147.053C41.5603 147.157 41.4871 147.261 41.3896 147.334C40.3534 147.882 39.2441 148.291 38.1835 148.803C36.5804 149.559 34.9408 150.253 33.3499 151.034C33.1183 151.168 32.783 151.003 32.7891 150.711L32.7952 150.717Z" fill="white"></path><path d="M37.2948 151.984C36.9108 151.448 37.5935 151.088 38.008 150.918C38.8796 150.479 39.7695 150.083 40.6472 149.668C41.2751 149.29 42.1467 149.717 41.4701 150.418C40.379 151.076 39.1417 151.533 37.9958 152.1C37.7703 152.253 37.4594 152.21 37.2948 151.991V151.984Z" fill="white"></path><path d="M40.9698 153.283C40.5736 152.582 41.8109 152.027 42.2314 152.582C42.4753 153.222 41.3659 153.953 40.9698 153.283Z" fill="white"></path><path d="M43.6697 155.008C42.9931 154.581 43.6392 153.636 44.3097 153.953C44.968 154.288 44.3036 155.422 43.6697 155.008Z" fill="white"></path><path d="M45.7168 156.666C44.9366 156.215 46.2959 155.252 46.7957 155.648C47.1066 156.032 46.5336 156.464 46.1984 156.574C46.0521 156.66 45.8936 156.751 45.7168 156.672V156.666Z" fill="white"></path><path d="M48.6911 158.58C48.3497 158.47 48.618 157.976 48.9106 158.183C49.1117 158.318 48.9105 158.653 48.6911 158.58Z" fill="white"></path><path d="M98.2888 222.391C98.112 222.391 97.9658 222.263 97.9414 222.087C97.9536 221.41 99.0203 221.733 99.4713 221.599C100.221 221.544 100.995 221.483 101.745 221.441C102.251 221.465 102.848 221.221 103.299 221.514C103.75 221.989 102.708 222.148 102.281 222.129C100.952 222.233 99.6176 222.312 98.2949 222.391H98.2888Z" fill="white"></path><path d="M92.3822 226.725C92.303 226.433 92.5102 226.128 92.815 226.097C95.8992 225.378 99.0078 224.787 102.123 224.202C105.963 223.464 109.797 222.684 113.643 221.977C113.972 221.904 114.447 221.818 114.636 222.178C114.685 222.544 114.222 222.733 113.923 222.757C110.711 223.354 107.474 223.982 104.292 224.641C100.544 225.433 96.7891 226.225 93.0527 227.06C92.7906 227.164 92.4676 227.012 92.3944 226.731L92.3822 226.725Z" fill="white"></path><path d="M92.1986 229.633C92.1132 229.328 92.3266 228.98 92.6496 228.95C94.1612 228.724 95.6546 228.365 97.1602 228.109C100.336 227.554 103.499 226.914 106.669 226.298C106.931 226.231 107.242 226.244 107.425 226.469C107.571 227.067 106.657 227.079 106.254 227.176C104.816 227.457 103.298 227.755 101.89 228.042C99.263 228.578 96.6603 229.2 94.0333 229.742C93.4481 229.767 92.4972 230.413 92.1925 229.626L92.1986 229.633Z" fill="white"></path><path d="M93.8694 232.333C93.8329 232.065 94.0401 231.845 94.2901 231.827C95.8322 231.626 97.356 231.303 98.8981 231.083C100.818 230.785 102.738 230.498 104.658 230.193C105.024 230.139 105.481 230.004 105.786 230.291C106.133 230.565 105.731 230.992 105.42 231.071C101.934 231.638 98.441 232.205 94.9301 232.662C94.5095 232.692 93.9731 232.869 93.8694 232.333Z" fill="white"></path><path d="M91.5099 234.935C91.2966 234.545 91.8634 234.491 92.1255 234.424C96.2947 233.43 100.531 232.711 104.749 231.967C105.919 231.839 107.114 231.394 108.272 231.467C108.729 231.614 108.498 232.052 108.138 232.162C102.628 233.028 96.9713 234.35 91.5099 234.935Z" fill="white"></path><path d="M89.36 237.91C89.2259 237.898 89.1101 237.776 89.0918 237.648C89.0918 237.081 90.0305 237.24 90.4206 237.099C96.2721 236.228 102.13 235.399 107.981 234.472C111.51 233.96 115.04 233.271 118.569 232.802C119.337 232.979 118.782 233.601 118.246 233.595C108.633 235.094 99.0333 236.898 89.36 237.916V237.91Z" fill="white"></path><path d="M90.4741 240.927C89.9987 240.86 89.9804 240.159 90.4497 240.056C91.7785 239.69 93.1438 239.483 94.5031 239.251C100.775 238.349 107.053 237.136 113.313 236.307C113.661 236.386 113.886 236.709 113.52 236.977C105.932 238.483 98.1298 239.568 90.4802 240.921L90.4741 240.927Z" fill="white"></path><path d="M93.8814 243.567C93.7595 242.853 94.747 242.951 95.198 242.75C97.8373 242.043 100.513 241.47 103.183 240.897C105.475 240.397 107.773 239.897 110.071 239.422C110.491 239.263 111.552 239.208 111.314 239.909C111.223 240.104 111.003 240.263 110.796 240.306C107.779 240.933 104.762 241.586 101.757 242.268C99.605 242.762 97.4472 243.213 95.2895 243.682C94.8262 243.713 94.1131 244.194 93.8875 243.567H93.8814Z" fill="white"></path><path d="M103.55 245.06C103.404 244.658 103.892 244.554 104.178 244.487C107.701 243.512 111.273 242.731 114.827 241.884C115.436 241.793 116.039 241.482 116.655 241.555C117.472 241.896 116.46 242.378 115.985 242.402C112.279 243.256 108.591 244.17 104.879 245.017C104.458 245.017 103.831 245.517 103.544 245.06H103.55Z" fill="white"></path><path d="M111.881 245.017C111.79 244.67 112.027 244.292 112.387 244.249C114.075 243.963 115.697 243.548 117.367 243.189C118.385 242.805 119.128 243.774 117.909 244.219C116.154 244.627 114.392 245.048 112.631 245.438C112.314 245.517 111.966 245.346 111.881 245.011V245.017Z" fill="white"></path><path d="M186.634 91.1716C186.817 90.7388 187.829 90.178 188.079 90.8059C188.097 91.2935 187.573 91.452 187.219 91.6409C186.927 91.8238 186.53 91.5129 186.634 91.1716Z" fill="white"></path><path d="M181.441 99.2113C181.149 99.2113 181.033 98.7907 181.301 98.6505C182.624 97.8825 183.989 97.1694 185.342 96.4624C187.195 95.4932 189.048 94.5362 190.907 93.5732C191.316 93.4269 192.102 92.7138 192.395 93.2806C192.175 94.0182 191.005 94.1705 190.414 94.6033C187.415 96.1088 184.471 97.8033 181.441 99.2113Z" fill="white"></path><path d="M185.592 95.6273C184.72 95.4627 184.708 94.3472 185.488 94.0181C186.262 93.6524 187.981 92.1468 188.414 93.5671C188.402 94.3412 187.591 94.6459 187.024 94.975C186.549 95.1823 186.141 95.676 185.592 95.6273Z" fill="white"></path><path d="M179.355 102.972C178.77 102.259 180.153 101.966 180.58 101.649C183.043 100.388 185.542 99.2052 188.023 97.98C190.851 96.5903 193.685 95.2005 196.519 93.823C196.849 93.6645 197.251 93.3903 197.592 93.6524C197.787 93.9876 197.33 94.2863 197.056 94.3899C194.959 95.4078 192.868 96.4318 190.778 97.462C187.175 99.2784 183.512 100.985 179.952 102.887C179.818 103.07 179.544 103.118 179.361 102.972H179.355Z" fill="white"></path><path d="M178.968 106.648C178.511 105.94 180.65 105.343 181.101 104.971C184.57 103.228 187.983 101.253 191.512 99.6746C191.981 99.6502 192.061 99.9976 191.75 100.308C190.738 100.93 189.623 101.4 188.574 101.972C185.557 103.551 182.497 105.057 179.529 106.721C179.358 106.867 179.096 106.837 178.962 106.654L178.968 106.648Z" fill="white"></path><path d="M172.927 114.462C172.281 113.858 176.48 112.225 177.011 111.829C181.399 109.616 185.812 107.446 190.244 105.325C191.103 104.923 191.304 105.727 190.481 106.032C185.148 108.598 179.845 111.225 174.536 113.834C174.054 114.035 173.622 114.383 173.14 114.559C173.067 114.559 172.988 114.529 172.933 114.468L172.927 114.462Z" fill="white"></path><path d="M170.201 120.252C168.933 119.801 171.621 118.777 171.999 118.485C174.095 117.357 176.198 116.26 178.313 115.163C180.215 114.175 182.123 113.2 184.031 112.219C184.329 112.042 184.799 111.823 185.073 112.152C185.189 112.773 184.372 112.932 183.964 113.188C179.362 115.504 174.821 117.991 170.201 120.252Z" fill="white"></path><path d="M165.971 125.47C165.843 125.244 165.959 124.976 166.184 124.866C167.592 124.22 168.994 123.556 170.396 122.904C176.351 120.265 182.197 117.138 188.219 114.76C189.59 115.26 185.903 116.449 185.513 116.741C182.691 118.046 179.875 119.356 177.065 120.673C173.889 122.16 170.695 123.647 167.532 125.159C167.044 125.293 166.392 126.025 165.971 125.47Z" fill="white"></path><path d="M166.488 127.872C166.409 127.689 166.562 127.506 166.726 127.463C169.597 126.122 172.535 124.934 175.455 123.702C178.435 122.465 181.41 121.215 184.396 120.002C184.61 119.917 184.957 119.929 185.079 120.155C185.103 120.454 184.817 120.673 184.555 120.764C182.281 121.697 180.008 122.636 177.734 123.58C174.272 125.019 170.816 126.463 167.336 127.859C167.074 127.951 166.659 128.237 166.488 127.878V127.872Z" fill="white"></path><path d="M164.838 132.504C164.296 131.669 166.716 131.206 167.24 130.852C172.354 128.774 177.468 126.719 182.606 124.714C183.137 124.55 183.636 124.226 184.191 124.178C184.636 124.196 184.807 124.531 184.453 124.867C182.539 125.799 180.43 126.439 178.449 127.286C174.176 129.017 169.788 130.681 165.588 132.522C165.357 132.687 165.04 132.778 164.838 132.51V132.504Z" fill="white"></path><path d="M164.966 136.35C164.563 135.381 166.928 135.32 167.556 134.979C171.311 133.863 175.029 132.632 178.765 131.455C179.156 131.358 179.546 131.108 179.954 131.23C180.058 131.254 180.204 131.352 180.21 131.468C180.076 132.162 179.113 132.108 178.583 132.364C176.205 133.119 173.828 133.869 171.457 134.649C169.933 135.149 168.416 135.661 166.91 136.198C166.295 136.301 165.386 137.142 164.966 136.35Z" fill="white"></path><path d="M169.367 140.525C168.995 140.428 169.056 139.824 169.452 139.83C171.031 139.367 172.579 138.825 174.152 138.343C177.303 137.35 180.454 136.368 183.606 135.381C183.923 135.259 184.416 135.137 184.618 135.503C184.66 135.679 184.496 135.856 184.38 135.954C183.685 136.289 182.899 136.435 182.167 136.691C177.901 137.941 173.676 139.526 169.367 140.531V140.525Z" fill="white"></path><path d="M173.75 141.665C173.481 141.324 173.823 140.812 174.231 140.891C175.731 140.476 177.236 140.044 178.742 139.635C179.37 139.605 183.868 137.715 183.234 139.087C183.112 139.294 182.893 139.404 182.667 139.452C181.564 139.757 180.473 140.068 179.376 140.379C177.657 140.854 175.956 141.379 174.237 141.836C174.061 141.872 173.859 141.824 173.75 141.665Z" fill="white"></path><path d="M173.145 146.98C173.041 146.724 173.206 146.413 173.474 146.371C174.918 145.792 176.393 145.292 177.875 144.804C180.429 143.945 182.976 143.067 185.53 142.22C185.798 142.116 186.146 142.086 186.341 142.336C186.469 142.726 185.969 142.97 185.658 143.037C184.451 143.439 183.257 143.847 182.05 144.256C179.295 145.207 176.54 146.163 173.815 147.188C173.583 147.34 173.248 147.255 173.139 146.986L173.145 146.98Z" fill="white"></path><path d="M175.475 150.29C175.213 149.632 176.207 149.626 176.609 149.437C180.741 148.132 184.892 146.864 189.037 145.597C189.781 145.444 190.524 144.963 191.286 145.054C191.987 145.347 191.103 145.895 190.701 145.926C185.898 147.401 181.058 148.87 176.267 150.345C176.005 150.436 175.658 150.601 175.481 150.29H175.475Z" fill="white"></path><path d="M179.015 152.972C178.967 152.649 179.247 152.375 179.558 152.381C179.533 152.381 179.515 152.381 179.491 152.381C181.368 152.021 183.203 151.314 185.08 151.003C185.306 151.034 185.647 151.18 185.574 151.454C185.476 151.759 185.233 151.917 184.94 151.997C184.184 152.198 183.434 152.399 182.679 152.6C181.679 152.868 180.673 153.13 179.674 153.405C179.381 153.49 179.058 153.265 179.021 152.96L179.015 152.972Z" fill="white"></path><path d="M178.338 156.026C177.93 155.319 182.507 154.697 183.147 154.41C190.584 152.643 198.014 150.857 205.444 149.065C206.017 148.973 206.279 149.443 205.657 149.717C204.298 150.065 202.927 150.381 201.567 150.711C195.46 152.186 189.359 153.649 183.251 155.105C181.709 155.465 180.155 155.825 178.619 156.215C178.497 156.215 178.381 156.135 178.332 156.02L178.338 156.026Z" fill="white"></path><path d="M180.844 158.976C180.771 158.689 181.002 158.36 181.307 158.391C185.433 157.397 189.609 156.41 193.778 155.69C194.205 155.751 194.357 156.135 193.967 156.404C192.522 156.91 190.925 157.056 189.432 157.446C186.793 158.043 184.129 158.561 181.52 159.274C181.264 159.415 180.917 159.274 180.844 158.982V158.976Z" fill="white"></path><path d="M180.448 163.809C180.253 163.425 180.723 163.255 181.003 163.151C185.197 161.591 189.579 160.603 193.876 159.378C194.297 159.287 195.187 158.866 195.297 159.506C195.26 159.707 195.065 159.841 194.894 159.921C194.12 160.14 193.334 160.335 192.56 160.555C188.945 161.554 185.319 162.56 181.741 163.663C181.296 163.73 180.778 164.23 180.448 163.809Z" fill="white"></path><path d="M182.6 166.619C182.563 166.345 182.789 166.083 183.069 166.089C186.123 165.217 189.207 164.468 192.285 163.657C194.729 163.017 197.18 162.377 199.624 161.755C200.337 161.548 200.776 162.206 199.959 162.523C195.028 163.797 190.103 165.083 185.202 166.467C184.495 166.656 183.788 166.888 183.075 167.046C182.843 167.046 182.63 166.851 182.606 166.625L182.6 166.619Z" fill="white"></path><path d="M188.152 169.143C187.975 168.411 189.066 168.478 189.523 168.283C191.376 167.802 193.242 167.357 195.107 166.918C195.85 166.863 196.801 166.187 197.447 166.753C197.642 167.113 197.155 167.448 196.838 167.491C194.107 168.137 191.376 168.759 188.64 169.387C188.445 169.435 188.225 169.332 188.152 169.137V169.143Z" fill="white"></path><path d="M187.689 172.379C187.689 171.941 188.061 171.587 188.494 171.587C188.927 171.587 189.286 171.965 189.286 172.392C189.286 172.83 188.915 173.184 188.482 173.184C188.049 173.184 187.689 172.806 187.689 172.379Z" fill="white"></path><path d="M92.4869 9.87848C92.3772 9.57981 92.7002 9.41524 92.9379 9.3482C96.0222 8.41561 99.1673 7.65982 102.288 6.86134C102.556 6.76991 103.117 6.83693 103.056 7.21484C103.001 7.40989 102.8 7.56229 102.617 7.61715C101.861 7.82439 101.093 8.00112 100.332 8.19617C97.8447 8.83618 95.3517 9.44575 92.8587 10.0675C92.7063 10.104 92.5418 10.0248 92.4808 9.87848H92.4869Z" fill="white"></path><path d="M94.7047 13.6271C93.955 12.5848 96.6064 12.3775 97.2099 12.0727C102.525 10.6403 107.877 9.34209 113.222 8.00112C114.77 7.64759 116.313 7.19652 117.867 6.91004C118.178 6.88566 118.617 7.19652 118.33 7.51957C118.062 7.88529 117.568 7.87311 117.166 7.99502C110.028 9.72609 102.897 11.4937 95.8262 13.4808C95.4422 13.5661 95.0643 13.9989 94.7047 13.6271Z" fill="white"></path><path d="M96.5079 15.9373C99.3239 14.7487 102.548 14.3403 105.523 13.5296C108.668 12.8896 111.819 11.9022 114.977 11.506C115.409 11.6401 115.22 12.0241 114.897 12.1642C113.861 12.4385 112.807 12.6214 111.764 12.8713C106.797 14.0294 101.78 15.0657 96.837 16.3274C96.6054 16.4188 96.3677 16.1567 96.5018 15.9373H96.5079Z" fill="white"></path><path d="M103.208 18.3204C102.787 18.1497 102.94 17.4671 103.397 17.5098C104.921 17.205 106.444 16.9368 107.974 16.6747C110.309 16.2724 112.631 15.8579 114.966 15.4495C115.167 15.413 115.386 15.4678 115.545 15.6019C115.929 16.1749 114.838 16.3151 114.46 16.3638C110.711 16.949 106.95 17.8511 103.208 18.3144V18.3204Z" fill="white"></path><path d="M101.837 22.5689C101.782 22.4227 101.85 22.2459 102.002 22.1849C105.001 21.1975 108.122 20.6184 111.194 19.9174C114.997 19.0885 118.801 18.2839 122.61 17.5098C123.402 17.3574 124.189 17.1806 124.981 17.0405C125.17 17.0161 125.383 17.0831 125.524 17.2172C126.048 18.0767 122.726 18.1925 122.165 18.4485C115.936 19.7407 109.712 21.0573 103.501 22.3983C103.032 22.4958 102.575 22.642 102.118 22.7457C102.002 22.7457 101.892 22.6787 101.843 22.5628L101.837 22.5689Z" fill="white"></path><path d="M107.621 25.4582C107.554 25.1961 107.712 24.9096 107.98 24.8486C111.077 24.1111 114.185 23.4284 117.294 22.7275C119.543 22.2216 121.798 21.7156 124.054 21.228C124.511 21.1548 125.352 20.783 125.535 21.4109C125.474 21.8375 124.98 21.9472 124.627 22.0021C121.762 22.6238 118.897 23.2638 116.045 23.9221C114.082 24.3793 112.119 24.8364 110.156 25.3058C109.468 25.4521 108.791 25.6776 108.108 25.8422C107.889 25.8422 107.682 25.6776 107.627 25.4643L107.621 25.4582Z" fill="white"></path><path d="M108.999 28.963C108.858 28.5485 109.364 28.4814 109.651 28.3961C112.491 27.6037 115.374 26.9637 118.245 26.2871C122.402 25.324 126.559 24.3732 130.735 23.4833C131.058 23.3979 131.564 23.276 131.734 23.66C131.698 24.0623 131.222 24.1537 130.893 24.2025C126.687 25.1046 122.488 26.0616 118.3 27.0307C115.35 27.7439 112.351 28.3656 109.419 29.1336C109.261 29.2007 109.066 29.1153 108.999 28.9569V28.963Z" fill="white"></path><path d="M112.935 32.2483C112.831 31.9862 112.984 31.6692 113.264 31.6022C114.8 31.1877 116.324 30.7245 117.866 30.3283C122.986 29.0909 128.082 27.4574 133.226 26.4333C134.043 26.6711 133.293 27.3599 132.775 27.3782C130.898 27.8597 129.021 28.3472 127.149 28.8349C123.346 29.8345 119.561 30.8707 115.769 31.8947C114.946 32.0959 114.16 32.3641 113.386 32.5409C113.191 32.5409 113.014 32.4372 112.935 32.2422V32.2483Z" fill="white"></path><path d="M113.234 35.6068C113.149 35.3995 113.271 35.1435 113.49 35.0947C116.581 34.3633 119.653 33.5648 122.743 32.8456C125.785 32.1324 128.82 31.4132 131.862 30.7061C133.41 30.3465 134.964 29.9929 136.519 29.6333C136.738 29.5846 136.951 29.6151 137.14 29.7431C137.457 29.9747 137.061 30.3708 136.793 30.4379C132.746 31.3705 128.698 32.3091 124.657 33.2661C121.323 34.0646 117.977 34.8144 114.636 35.5945C114.185 35.6128 113.521 36.1188 113.228 35.6007L113.234 35.6068Z" fill="white"></path><path d="M128.314 35.6799C128.161 35.2289 128.704 35.113 129.021 35.0094C130.368 34.601 131.739 34.278 133.098 33.9184C137.28 32.8761 141.461 31.7667 145.661 30.8158C145.99 30.7975 146.38 31.1146 146.045 31.4193C145.746 31.7302 145.265 31.7119 144.875 31.8399C139.566 33.1808 134.22 34.406 128.935 35.8444C128.722 35.9724 128.417 35.9359 128.314 35.6799Z" fill="white"></path><g clip-path="url(#clip1_46_4170)"><path d="M37.6285 209.299C27.62 196.108 21.0737 180.242 17.6725 163.907C13.6008 160.457 9.79125 156.739 6.52417 152.551C7.46285 156.513 8.61488 160.475 9.97413 164.425C15.8927 181.577 25.4745 196.779 37.6285 209.293V209.299ZM63.8018 20.9414C63.5031 20.527 63.2044 20.1186 62.8997 19.7102C32.5572 37.7279 11.4187 68.2837 5.14052 102.862C6.32301 100.814 7.68225 98.8638 9.09027 96.9621C12.9303 91.7262 17.4896 87.0634 22.5427 82.9978C26.9313 70.3135 33.3984 58.3606 41.2552 47.4865C47.8625 37.9047 55.4695 29.0421 63.8079 20.9414H63.8018ZM64.9111 19.8748C66.051 18.7837 67.1968 17.7109 68.361 16.6564C66.9103 17.4122 65.4841 18.2046 64.07 19.0214C64.3687 19.2835 64.6429 19.57 64.9111 19.8687V19.8748ZM119.111 144.146C122.024 139.751 124.932 135.356 127.827 130.95C123.316 122.837 118.769 114.748 114.186 106.678C105.372 91.8665 97.4662 76.5367 88.9876 61.5362C70.8602 63.5842 52.757 67.8327 36.6654 76.5977C32.6486 78.6884 28.8513 81.1326 25.2855 83.8572C18.0077 104.935 15.8682 127.829 18.9098 149.888C19.501 154.538 20.2569 159.189 21.226 163.785C26.9252 168.423 32.9108 172.727 38.9146 176.926C45.6682 181.778 52.9338 185.716 60.6627 188.715C67.3919 191.634 74.3223 193.835 81.3928 195.554C85.6656 189.458 89.8897 183.327 94.4368 177.432C102.781 166.491 111.443 155.52 119.117 144.146H119.111ZM165.045 239.891C164.862 239.672 164.697 239.434 164.521 239.214C164.484 239.172 164.454 239.129 164.423 239.093C160.772 234.558 157.267 229.645 154.421 224.604C153.836 223.458 152.671 222.141 152.769 220.794C146.29 221.782 139.676 221.642 133.148 221.538C121.055 220.941 108.877 220.666 96.9419 218.484C96.6128 218.381 96.0398 218.301 95.4913 218.167C95.4303 218.381 95.3206 218.582 95.2048 218.74C91.6147 223.994 87.1346 228.596 83.1849 233.582C82.045 234.954 80.8687 236.283 79.7715 237.666C96.4787 244.432 114.801 247.547 133.526 246.187C144.4 245.535 154.988 243.371 165.051 239.891H165.045ZM175.51 15.2668C175.693 15.0229 175.852 14.7547 176.029 14.4987C174.803 13.877 173.566 13.2857 172.323 12.7189C172.061 12.4934 171.829 12.1459 171.719 11.7863C155.152 4.94735 136.677 1.66197 117.172 2.94198C105.963 3.6978 95.2901 5.90431 85.2877 9.34816C91.0661 14.6755 95.3754 21.3559 99.441 28.0181C99.8189 28.6215 103.933 35.686 104.622 38.4655C104.75 38.4045 104.896 38.3435 105.067 38.2826C107.133 37.6669 109.322 37.7401 111.455 37.6548C115.728 37.4537 120.007 37.4902 124.279 37.6548C130.759 37.8011 137.244 37.9778 143.693 38.6666C147.82 39.075 151.97 39.5443 156.042 40.2818C157.407 40.6049 158.956 40.5196 160.266 41.0316C160.973 37.1001 167.007 28.6398 168.55 26.0676C170.872 22.4714 173.139 18.8386 175.51 15.2668ZM183.276 231.857C183.081 231.486 182.91 231.083 182.685 230.754C181.258 228.139 179.789 225.549 178.345 222.94C174.852 216.674 171.518 210.274 168.166 203.929C159.413 204.959 150.55 205.264 141.761 205.3C126.577 205.379 111.394 204.239 96.4665 201.405C91.7 200.594 86.9518 199.607 82.2523 198.431C78.2172 204.301 74.176 210.164 69.9154 215.876C67.459 219.204 64.7222 222.544 62.0585 225.658C61.4916 226.219 60.9126 227.03 60.3275 227.7C66.1424 231.37 72.2621 234.552 78.6256 237.197C78.6804 237.124 78.7292 237.051 78.778 236.977C81.7891 232.412 85.3609 228.255 88.6767 223.903C90.3164 221.788 91.9011 219.594 93.815 217.71C93.9065 217.619 94.0162 217.515 94.132 217.424C94.0711 217.29 94.065 217.125 94.132 216.942C93.8516 216.54 93.6017 216.107 93.3153 215.729C91.7305 213.395 89.9567 211.097 89.0729 208.39C89.1948 207.476 90.1518 207.97 90.5053 208.457C92.3095 210.292 93.3762 212.663 94.644 214.864C94.7781 215.175 95.2413 215.845 95.5461 216.485C96.5335 216.467 97.521 216.619 98.5024 216.698C108.243 218.192 117.946 219.027 127.766 219.447C135.001 219.917 142.254 220.087 149.453 219.197C150.843 219.057 152.226 218.874 153.604 218.698C153.671 218.685 153.738 218.679 153.805 218.673C154.799 217.113 155.908 215.626 157.133 214.242C157.925 213.541 161.461 208.787 162.314 210.152C162.497 210.506 162.314 210.944 162.162 211.28C160.9 213.785 158.913 215.808 157.218 218.015C156.633 218.759 156.024 219.496 155.469 220.264C155.335 220.52 155.128 220.77 154.884 220.959C157.895 225.591 160.766 230.358 163.789 234.972C164.594 236.216 165.38 237.477 166.215 238.702C166.361 238.904 166.52 239.111 166.599 239.348C172.353 237.276 177.93 234.759 183.282 231.863L183.276 231.857ZM192.687 28.9141C193.01 28.3899 193.345 27.8108 193.675 27.2379C190.584 24.2877 187.348 21.5083 183.788 19.1677C181.801 17.7292 179.71 16.4614 177.565 15.3033C177.229 15.9311 176.638 16.5041 176.346 17.0709C172.207 23.3247 168.355 29.7491 164.466 36.1553C163.667 37.4841 162.893 38.8312 162.186 40.2148C161.93 40.5622 161.692 41.4095 161.357 41.9764C161.394 42.0312 161.424 42.0922 161.455 42.1531C162.418 43.5246 169.049 52.8992 166.971 53.722C165.776 53.1308 165.203 51.7106 164.466 50.6561C162.832 48.0046 161.18 45.3593 159.376 42.8419C159.321 42.72 159.279 42.6103 159.242 42.5005C149.093 41.1413 138.744 40.0624 128.54 39.6297C120.951 39.331 113.357 40.0441 105.78 39.9161C105.713 39.9161 105.646 39.9161 105.585 39.9161C105.463 40.1965 105.262 40.4403 105.067 40.672C103.744 42.3177 102.342 43.7257 100.867 45.2008C98.9595 47.1696 96.8323 49.0164 95.0707 51.0949C94.961 51.3265 94.6989 51.4851 94.4246 51.4424C92.2181 51.0218 98.0879 45.3593 98.734 44.512C100.331 42.781 101.879 40.9889 103.561 39.3371C103.586 39.2944 103.616 39.2578 103.647 39.2213C101.306 35.1801 99.1729 31.0048 96.753 27.0002C92.9983 20.9354 88.6889 15.2302 84.1357 9.76267C81.0454 10.8598 78.0282 12.0728 75.0781 13.3955C74.8525 13.7307 74.5051 13.9867 74.2004 14.2549C71.5733 16.7174 68.9889 19.2348 66.4593 21.8009C66.5142 21.868 66.569 21.935 66.6239 22.002C73.3043 31.0779 79.0462 40.7939 84.9403 50.3818C86.6043 53.0942 88.2317 55.831 89.8348 58.5861C89.8714 58.5861 89.908 58.58 89.9384 58.5739C115.271 55.2885 141.048 56.5624 166.179 60.8718C168.537 61.2497 170.896 61.6703 173.249 62.1335C177.936 54.7521 182.471 47.2732 186.775 39.5992C188.737 36.0334 190.694 32.4677 192.687 28.9202V28.9141ZM233.465 163.937C238.079 145.548 240.072 126.445 237.286 107.653C236.652 103.076 235.775 98.5408 234.647 94.0729C232.24 91.8847 229.716 89.8184 227.15 87.8435C211.68 75.787 192.992 69.1676 173.907 65.2483C164.295 80.4317 154.159 95.292 144.223 110.268C139.542 117.125 134.946 124.031 130.35 130.919C130.942 131.986 131.533 133.059 132.124 134.131C138.652 146.102 145.107 158.129 152.025 169.88C158.035 180.102 163.728 190.647 169.251 201.094C174.846 200.381 180.387 199.363 185.836 197.961C193.997 195.554 202.171 192.927 209.736 188.983C217.038 184.972 223.858 180.005 229.996 174.372C231.319 170.959 232.483 167.479 233.459 163.95L233.465 163.937ZM240.176 166.138C239.81 166.601 239.432 167.058 239.054 167.509C237.055 170.063 234.897 172.477 232.617 174.763C229.442 183.016 225.388 190.915 220.445 198.266C216.514 204.026 212.174 209.652 207.365 214.803C221.969 201.6 233.428 184.942 240.176 166.132V166.138ZM243.723 100.241C244.211 100.839 244.68 101.448 245.137 102.064C239.243 70.9961 221.481 43.7075 196.484 25.6227C196.46 25.6897 196.436 25.7567 196.411 25.8238C198.234 27.5853 199.989 29.4139 201.696 31.2852C212.021 42.2445 221.268 54.2462 227.814 67.8448C231.74 75.8419 234.812 84.2961 237.03 93.0001C239.414 95.2676 241.657 97.6752 243.723 100.241ZM155.975 3.86848C260.583 31.2303 284.83 165.638 197.033 228.414C168.166 248.827 130.637 255.916 96.3141 247.577C45.0526 235.466 9.09639 193.091 1.49554 144.676C1.37363 144.378 1.29441 144.067 1.35536 143.75C1.11155 142.11 0.898182 140.458 0.715323 138.8C0.660465 138.88 0.569015 138.922 0.465395 138.922C0.313012 138.922 0.191142 138.77 0.197237 138.617C0.209428 138.453 0.343524 138.349 0.502002 138.349C0.569051 138.349 0.630028 138.38 0.67879 138.428C-1.32047 119.442 1.03842 99.6928 8.52955 80.6145C30.3507 21.9106 95.3754 -11.894 155.975 3.86238V3.86848Z" fill="#2C2C2C"></path><path d="M92.4869 9.87848C92.3772 9.57981 92.7002 9.41524 92.9379 9.3482C96.0222 8.41561 99.1673 7.65982 102.288 6.86134C102.556 6.76991 103.117 6.83693 103.056 7.21484C103.001 7.40989 102.8 7.56229 102.617 7.61715C101.861 7.82439 101.093 8.00112 100.332 8.19617C97.8447 8.83618 95.3517 9.44575 92.8587 10.0675C92.7063 10.104 92.5418 10.0248 92.4808 9.87848H92.4869Z" fill="#2C2C2C"></path><path d="M94.7047 13.6271C93.955 12.5848 96.6064 12.3775 97.2099 12.0727C102.525 10.6403 107.877 9.34209 113.222 8.00112C114.77 7.64759 116.313 7.19652 117.867 6.91004C118.178 6.88566 118.617 7.19652 118.33 7.51957C118.062 7.88529 117.568 7.87311 117.166 7.99502C110.028 9.72609 102.897 11.4937 95.8262 13.4808C95.4422 13.5661 95.0643 13.9989 94.7047 13.6271Z" fill="#2C2C2C"></path><path d="M96.5079 15.9373C99.3239 14.7487 102.548 14.3403 105.523 13.5296C108.668 12.8896 111.819 11.9022 114.977 11.506C115.409 11.6401 115.22 12.0241 114.897 12.1642C113.861 12.4385 112.807 12.6214 111.764 12.8713C106.797 14.0294 101.78 15.0657 96.837 16.3274C96.6054 16.4188 96.3677 16.1567 96.5018 15.9373H96.5079Z" fill="#2C2C2C"></path><path d="M103.208 18.3204C102.787 18.1497 102.94 17.4671 103.397 17.5098C104.921 17.205 106.444 16.9368 107.974 16.6747C110.309 16.2724 112.631 15.8579 114.966 15.4495C115.167 15.413 115.386 15.4678 115.545 15.6019C115.929 16.1749 114.838 16.3151 114.46 16.3638C110.711 16.949 106.95 17.8511 103.208 18.3144V18.3204Z" fill="#2C2C2C"></path><path d="M101.837 22.5689C101.782 22.4227 101.85 22.2459 102.002 22.1849C105.001 21.1975 108.122 20.6184 111.194 19.9174C114.997 19.0885 118.801 18.2839 122.61 17.5098C123.402 17.3574 124.189 17.1806 124.981 17.0405C125.17 17.0161 125.383 17.0831 125.524 17.2172C126.048 18.0767 122.726 18.1925 122.165 18.4485C115.936 19.7407 109.712 21.0573 103.501 22.3983C103.032 22.4958 102.575 22.642 102.118 22.7457C102.002 22.7457 101.892 22.6787 101.843 22.5628L101.837 22.5689Z" fill="#2C2C2C"></path><path d="M107.621 25.4582C107.554 25.1961 107.712 24.9096 107.98 24.8486C111.077 24.1111 114.185 23.4284 117.294 22.7275C119.543 22.2216 121.798 21.7156 124.054 21.228C124.511 21.1548 125.352 20.783 125.535 21.4109C125.474 21.8375 124.98 21.9472 124.627 22.0021C121.762 22.6238 118.897 23.2638 116.045 23.9221C114.082 24.3793 112.119 24.8364 110.156 25.3058C109.468 25.4521 108.791 25.6776 108.108 25.8422C107.889 25.8422 107.682 25.6776 107.627 25.4643L107.621 25.4582Z" fill="#2C2C2C"></path><path d="M108.999 28.963C108.858 28.5485 109.364 28.4814 109.651 28.3961C112.491 27.6037 115.374 26.9637 118.245 26.2871C122.402 25.324 126.559 24.3732 130.735 23.4833C131.058 23.3979 131.564 23.276 131.734 23.66C131.698 24.0623 131.222 24.1537 130.893 24.2025C126.687 25.1046 122.488 26.0616 118.3 27.0307C115.35 27.7439 112.351 28.3656 109.419 29.1336C109.261 29.2007 109.066 29.1153 108.999 28.9569V28.963Z" fill="#2C2C2C"></path><path d="M112.935 32.2483C112.831 31.9862 112.984 31.6692 113.264 31.6022C114.8 31.1877 116.324 30.7245 117.866 30.3283C122.986 29.0909 128.082 27.4574 133.226 26.4333C134.043 26.6711 133.293 27.3599 132.775 27.3782C130.898 27.8597 129.021 28.3472 127.149 28.8349C123.346 29.8345 119.561 30.8707 115.769 31.8947C114.946 32.0959 114.16 32.3641 113.386 32.5409C113.191 32.5409 113.014 32.4372 112.935 32.2422V32.2483Z" fill="#2C2C2C"></path><path d="M113.234 35.6068C113.149 35.3995 113.271 35.1435 113.49 35.0947C116.581 34.3633 119.653 33.5648 122.743 32.8456C125.785 32.1324 128.82 31.4132 131.862 30.7061C133.41 30.3465 134.964 29.9929 136.519 29.6333C136.738 29.5846 136.951 29.6151 137.14 29.7431C137.457 29.9747 137.061 30.3708 136.793 30.4379C132.746 31.3705 128.698 32.3091 124.657 33.2661C121.323 34.0646 117.977 34.8144 114.636 35.5945C114.185 35.6128 113.521 36.1188 113.228 35.6007L113.234 35.6068Z" fill="#2C2C2C"></path><path d="M128.314 35.6799C128.161 35.2289 128.704 35.113 129.021 35.0094C130.368 34.601 131.739 34.278 133.098 33.9184C137.28 32.8761 141.461 31.7667 145.661 30.8158C145.99 30.7975 146.38 31.1146 146.045 31.4193C145.746 31.7302 145.265 31.7119 144.875 31.8399C139.566 33.1808 134.22 34.406 128.935 35.8444C128.722 35.9724 128.417 35.9359 128.314 35.6799Z" fill="#2C2C2C"></path></g></g><defs><clipPath id="clip0_46_4170"><rect width="251" height="251" fill="white"></rect></clipPath><clipPath id="clip1_46_4170"><rect width="251" height="34" fill="white"></rect></clipPath></defs></svg>