<svg xmlns="http://www.w3.org/2000/svg" width="319" height="149" viewBox="0 0 319 149" fill="none"><g opacity="0.2"><path d="M276.082 134.747C276.082 134.654 276.16 134.57 276.256 134.57C276.353 134.57 276.431 134.647 276.431 134.744C276.431 134.841 276.353 134.918 276.26 134.918C276.166 134.918 276.085 134.841 276.082 134.747Z" fill="black"></path><path d="M236.785 147.656C232.968 147.246 229.257 146.545 225.662 145.58C225.601 145.586 225.533 145.573 225.468 145.541C225.449 145.531 225.43 145.521 225.41 145.512C201.426 138.978 182.755 120.623 174.994 97.9087C175.097 97.9119 175.204 97.9184 175.307 97.9216C175.537 97.9313 175.769 97.941 175.999 97.9507C177.775 103.063 180.104 107.931 182.92 112.478C184.444 113.366 186.017 114.167 187.532 115.068C187.719 115.181 188.53 115.608 189.076 116.021C187.587 111.774 187.199 104.213 187.564 98.3415C187.584 98.3415 187.6 98.3415 187.619 98.3415C188.659 98.3706 189.699 98.3899 190.739 98.4093C191.782 98.4255 192.826 98.4384 193.869 98.4707C194.356 98.4868 194.844 98.503 195.332 98.5191C195.622 98.532 195.913 98.5417 196.204 98.5514C196.297 98.5514 196.391 98.5579 196.485 98.5579H196.54C196.627 98.5579 196.711 98.545 196.801 98.5385H196.811C196.843 98.5385 196.882 98.5385 196.918 98.5417C197.037 98.5482 197.04 98.3641 196.924 98.3576C196.914 98.3576 196.908 98.3576 196.898 98.3576H196.911C196.872 98.3544 196.837 98.3479 196.798 98.3415C196.798 98.3415 196.795 98.3415 196.792 98.3415C196.792 98.3415 196.792 98.3415 196.795 98.3415C196.795 98.3415 196.792 98.3415 196.788 98.3415H196.785C196.462 98.2607 196.12 98.2543 195.787 98.2284C195.4 98.1961 195.015 98.1638 194.628 98.1348C194.637 98.1348 194.644 98.1348 194.654 98.1348C194.36 98.1089 194.066 98.0831 193.772 98.0573C191.74 97.8764 189.712 97.6309 187.677 97.4598C187.684 97.4598 187.687 97.4598 187.693 97.463C187.671 97.463 187.655 97.4565 187.632 97.4565C187.784 95.5187 188.02 93.8037 188.326 92.5183C188.301 92.4343 188.32 92.3471 188.388 92.2793C188.401 92.2244 188.414 92.1695 188.427 92.121C188.543 92.0047 188.704 92.0241 188.808 92.1145C188.856 92.1113 188.911 92.1113 188.969 92.1113C195.603 92.4698 202.185 93.6261 208.764 94.5142C209.749 94.6434 210.731 94.7662 211.716 94.8663C211.745 94.721 211.807 94.5756 211.875 94.4561C212.149 93.8263 212.427 93.1933 212.721 92.5732C213.38 91.1844 214.071 89.8214 214.797 88.465C218.628 81.1302 223.589 74.5125 228.937 68.2371C228.456 67.2714 228.046 66.2734 227.639 65.2722C226.663 62.8499 225.766 60.3566 224.906 57.8923C222.94 52.1369 221.031 46.2943 219.917 40.3064C219.907 40.2805 219.9 40.2547 219.894 40.2289C219.839 40.2289 219.791 40.2224 219.749 40.2159C216.638 39.8574 213.631 38.8885 210.534 38.4202C206.988 37.7936 203.361 37.6515 199.769 37.8195C198.749 37.8873 197.748 38.0036 196.737 38.1489C196.323 38.2006 195.913 38.2781 195.503 38.3427C195.403 38.5332 195.219 38.727 195.128 38.8659C194.55 39.6314 194.008 40.4323 193.481 41.2204C190.733 45.4384 188.084 49.7178 185.565 54.0747C184.024 56.8684 182.545 59.7009 181.024 62.5011C180.588 63.2601 180.197 64.0934 179.622 64.7522C179.622 64.7522 179.622 64.7533 179.622 64.7555C179.606 64.8168 179.574 64.8685 179.525 64.9105C179.558 65.0171 179.584 65.1204 179.619 65.2205C180.317 67.7623 180.798 70.3591 181.567 72.8815C181.741 73.4435 181.919 74.0054 182.103 74.5642C181.757 74.5868 181.412 74.6126 181.066 74.6352C180.142 71.4798 179.432 68.2662 179.06 64.9912C179.06 64.9783 179.057 64.9654 179.054 64.9525C177.872 64.3259 176.761 63.5508 175.63 62.8273C174.859 62.2718 174.003 61.797 173.35 61.0994C173.305 61.248 173.234 61.3836 173.111 61.4902C173.011 62.0683 172.917 62.6497 172.83 63.2246C172.811 63.4054 172.795 63.6315 172.743 63.8221V63.8285C172.197 67.6881 171.961 71.5121 172.016 75.2747C171.706 75.2973 171.399 75.3167 171.093 75.3425C171.041 71.4959 171.299 67.6041 171.884 63.6897C171.887 63.5475 171.916 63.3957 171.952 63.2504C172.049 62.6141 172.158 61.9779 172.275 61.3384C172.045 60.8055 172.349 60.2145 172.394 59.6654C172.653 58.2701 172.959 56.8781 173.308 55.5023C173.424 55.0533 173.541 54.6044 173.663 54.1587C173.831 54.1199 173.999 54.078 174.167 54.0392C174.649 53.9229 175.127 53.8034 175.608 53.6968C176.657 53.4643 177.71 53.2382 178.763 53.0121C179.225 52.912 179.687 52.8119 180.146 52.7086C180.624 52.602 181.098 52.4889 181.576 52.3791C182.083 52.2661 182.59 52.153 183.098 52.0368C183.343 51.9819 183.592 51.9269 183.837 51.872C184.047 51.8236 184.267 51.7881 184.47 51.717C184.593 51.688 184.67 51.562 184.645 51.4393C184.619 51.3165 184.499 51.2358 184.376 51.2552C184.186 51.2681 183.989 51.3165 183.802 51.3456C183.601 51.3811 183.404 51.4167 183.204 51.4554C182.72 51.5426 182.232 51.633 181.748 51.7202C181.282 51.8042 180.814 51.8785 180.352 51.9625C179.357 52.1433 178.366 52.3339 177.371 52.5245C176.854 52.6213 176.338 52.7215 175.821 52.8151C175.327 52.9056 174.826 52.9863 174.326 53.0735C174.203 53.0929 174.08 53.1155 173.954 53.1349C177.61 40.5938 184.719 29.1476 194.214 20.2239C194.653 19.804 195.099 19.3938 195.551 18.9869C195.79 18.9126 196.029 18.8415 196.272 18.7673C197.018 18.5412 197.764 18.3248 198.507 18.0858H198.503C198.503 18.0858 198.526 18.0793 198.536 18.0761C198.526 18.0761 198.516 18.0826 198.507 18.0858C198.545 18.0729 198.584 18.0599 198.623 18.0503C198.62 18.0503 198.613 18.0535 198.61 18.0567C198.636 18.047 198.662 18.0373 198.687 18.0309C198.681 18.0309 198.678 18.0341 198.671 18.0373C198.755 18.0115 198.839 17.9824 198.923 17.9566C198.923 17.9566 198.93 17.9566 198.936 17.9534C198.943 17.9534 198.946 17.9501 198.949 17.9469C198.949 17.9469 198.968 17.9405 198.978 17.9372C196.704 19.7879 194.537 21.7774 192.496 23.8961C194.14 23.1048 196.204 22.4072 197.283 22.2941C197.731 20.6631 199.905 18.6639 200.913 17.5593C203.006 15.3567 205.354 13.4414 207.853 11.7458C205.024 13.4253 202.305 15.2953 199.721 17.343C199.627 17.3591 199.53 17.3752 199.434 17.3979C198.662 17.5626 197.899 17.7628 197.137 17.9631C196.94 18.0147 196.74 18.0664 196.543 18.1181C201.455 13.8484 206.943 10.2731 212.795 7.45996C212.934 7.43736 213.076 7.41152 213.215 7.38891C213.809 7.28879 214.407 7.19189 215.001 7.08854C215.76 6.95612 216.516 6.80432 217.275 6.67513C217.665 6.60731 218.059 6.54271 218.45 6.47166C218.644 6.43613 218.844 6.40061 219.041 6.35862C219.222 6.3231 219.403 6.27788 219.584 6.23589C219.723 6.21005 219.862 6.18098 220 6.15515C218.463 6.89799 216.948 7.6925 215.443 8.49348C212.188 10.1406 209.12 12.2012 206.2 14.3619C203.216 16.6873 200.49 19.3971 198.058 22.2909C198.025 22.3232 197.996 22.3587 197.967 22.3975C198.145 22.588 198.048 22.8949 197.832 23.0402C196.95 26.6381 196.475 30.3039 196.091 33.9858C195.974 35.0774 195.881 36.1723 195.797 37.2672C197.279 36.97 198.791 36.7989 200.299 36.6826C201.42 36.6115 202.541 36.5728 203.668 36.5728C206.158 36.5728 208.651 36.7601 211.106 37.1864C213.622 37.6709 216.154 38.1618 218.596 38.9563C219.038 39.1695 219.629 39.2535 220.091 39.4828C220.294 39.3084 220.569 39.1372 220.643 39.0435C223.97 36.337 227.474 33.8501 231.004 31.4181C234.208 29.2219 237.551 27.2518 240.929 25.343C242.828 24.3515 244.705 23.1985 246.72 22.4589C245.864 17.3236 245.344 11.2614 246.73 6.30695C246.688 6.29403 246.646 6.28111 246.604 6.26173C246.523 6.19067 246.51 6.10993 246.529 6.02919C246.504 6.02919 246.475 6.02273 246.446 6.01627C246.316 6.139 246.094 6.17452 245.922 6.09378C239.347 3.68117 232.093 3.10628 225.2 4.26252C224.122 4.56935 223.053 4.90201 221.993 5.26051C221.903 5.27343 221.809 5.28635 221.719 5.29604C220.969 5.39939 220.223 5.49951 219.471 5.58348C219.248 5.59963 219.022 5.61255 218.802 5.63839C218.57 5.66746 218.334 5.69652 218.101 5.72559C217.591 5.79342 217.081 5.85801 216.57 5.92261C216.406 5.94198 216.244 5.96137 216.08 5.98074C226.709 1.48818 238.378 -0.549783 249.924 0.270569C281.86 2.10829 309.81 25.8275 316.967 56.9718C322.238 79.173 316.925 100.773 304.901 117.371C304.878 117.413 304.852 117.449 304.82 117.487C304.82 117.487 304.817 117.491 304.813 117.491C291.423 135.903 269.764 148.128 245.16 148.131C242.412 148.131 239.624 147.976 236.808 147.663L236.785 147.656ZM227.965 122.277C226.428 123.679 218.231 132.554 214.991 134.253C217.801 137.583 220.698 140.842 224.06 143.626C224.357 143.897 224.684 144.142 225.007 144.391C232.839 146.62 241.22 147.569 249.927 146.981C257.727 146.5 265.217 144.746 272.19 141.93C272.132 141.911 272.096 141.849 272.099 141.733C272.681 140.163 272.981 138.516 273.42 136.908C273.553 136.381 273.656 135.89 273.74 135.37C273.75 135.277 273.782 135.18 273.83 135.096C270.346 132.754 267.222 129.912 264.196 127.018C263.072 125.865 261.755 124.777 260.976 123.346C260.966 123.333 260.96 123.32 260.957 123.311C260.912 123.22 260.863 123.13 260.821 123.039C260.815 123.017 260.808 122.994 260.805 122.971C260.556 123.136 260.153 123.246 259.981 123.327C257.524 124.102 254.901 123.995 252.356 124.057C250.722 124.07 249.084 124.037 247.45 123.982C242.764 123.818 238.074 123.556 233.417 123.001C231.931 122.787 230.413 122.619 228.934 122.316C228.779 122.384 228.575 122.361 228.369 122.19C228.278 122.167 228.188 122.148 228.101 122.125C228.065 122.174 228.02 122.229 227.968 122.28L227.965 122.277ZM222.765 143.716C222.048 143.138 221.363 142.518 220.679 141.904C218.996 140.373 217.413 138.729 216.044 136.908C215.482 136.175 214.891 135.448 214.432 134.64C214.31 134.699 214.155 134.708 214.006 134.64C208.78 132.386 204.078 129.05 199.508 125.701C196.969 123.756 194.421 121.776 192.005 119.687C191.337 119.067 190.616 118.479 189.993 117.81C189.961 117.807 189.925 117.797 189.883 117.791C189.825 117.697 189.773 117.604 189.718 117.503C189.541 117.294 189.376 117.077 189.228 116.845C189.192 116.851 189.153 116.854 189.115 116.858C187.212 116.38 185.633 115.152 183.995 114.132C183.986 114.125 183.973 114.119 183.963 114.112C193.026 127.916 206.646 138.552 222.765 143.713V143.716ZM299.83 119.535C299.691 119.774 299.426 119.99 299.245 120.165C298.512 120.814 297.753 121.437 296.975 122.032C294.307 124.021 291.578 125.907 288.713 127.593C285.196 129.722 281.572 131.666 277.945 133.597C277.37 133.817 275.794 134.867 274.796 135.131C274.796 135.144 274.79 135.154 274.79 135.164C274.764 135.228 274.728 135.273 274.686 135.306C274.712 135.529 274.66 135.787 274.644 135.991C274.515 137.425 274.128 138.813 273.549 140.128C273.285 140.706 273.062 141.342 272.564 141.765C272.558 141.772 272.551 141.778 272.545 141.785C284.566 136.853 295.024 128.759 302.856 118.566C301.894 119.028 300.879 119.403 299.83 119.532V119.535ZM228.999 68.9896C226.215 73.1237 222.765 76.8024 220.162 81.0592C217.843 84.6506 215.757 88.423 213.9 92.2696C213.506 93.1125 213.108 93.9684 212.734 94.8275C212.701 94.9212 212.659 95.0213 212.608 95.115C213.099 95.6027 213.667 96.7848 213.848 97.0108C217.246 103.322 220.937 109.503 225.02 115.394C226.357 117.371 227.681 119.244 228.927 121.224C229.26 121.282 229.596 121.334 229.929 121.386C239.13 122.61 248.458 123.249 257.737 122.816C258.699 122.732 259.555 122.636 260.469 122.455C260.605 122.426 260.76 122.374 260.886 122.445C260.937 122.497 260.97 122.545 260.992 122.59C261.021 122.577 261.057 122.571 261.096 122.568C261.112 122.568 261.131 122.568 261.147 122.574C261.661 121.437 262.313 120.368 262.972 119.309C264.645 116.667 266.283 114.009 267.875 111.319C270.417 106.991 272.991 102.676 275.316 98.2284C275.52 97.8344 275.72 97.4533 275.894 97.111C275.936 97.0334 275.975 96.9462 276.014 96.8655C275.907 96.704 276.014 96.5619 276.201 96.4456C276.146 96.3843 276.095 96.3229 276.049 96.2518C276.001 96.1743 275.956 96.0936 275.91 96.0161C275.733 95.706 275.552 95.3992 275.378 95.0891C275.184 94.75 275.006 94.4044 274.822 94.0621C274.089 92.6894 273.346 91.3265 272.616 89.9571C271.86 88.5425 271.098 87.1311 270.355 85.7068C269.609 84.276 268.857 82.8484 268.107 81.4144C267.729 80.691 267.352 79.9675 266.98 79.2408C266.602 78.5077 266.241 77.7713 265.863 77.0381C265.491 76.3147 265.12 75.5945 264.752 74.8645C264.396 74.1701 264.061 73.4661 263.718 72.762C263.34 71.9901 262.962 71.2182 262.591 70.4398C262.304 69.8552 262.01 69.2739 261.732 68.6957C261.667 68.7054 261.599 68.7087 261.535 68.7087C261.154 68.7151 260.776 68.7151 260.398 68.7183C259.62 68.7248 258.835 68.728 258.056 68.7377C256.538 68.7539 255.021 68.7765 253.506 68.7991C251.943 68.8217 250.379 68.854 248.816 68.8734C247.201 68.8895 245.586 68.9057 243.975 68.9154C243.597 68.9154 243.219 68.9186 242.841 68.9186C241.646 68.9186 240.451 68.9057 239.256 68.8798C237.674 68.8475 236.088 68.8185 234.508 68.7668C233.727 68.741 232.945 68.7054 232.167 68.6828C231.414 68.6634 230.659 68.6505 229.903 68.6311C229.825 68.7926 229.661 68.9024 229.464 68.8411C229.357 68.8185 229.276 68.7603 229.205 68.6828C229.137 68.7862 229.07 68.8863 229.008 68.9896H228.999ZM317.261 64.9686C316.192 65.663 314.884 65.9763 313.721 66.4931C313.317 66.6158 312.888 66.8225 312.455 66.8903C312.487 67.4555 312.322 68.0498 312.277 68.6021C311.906 70.9598 311.373 73.1592 310.708 75.4233C309.387 80.1645 307.73 84.8186 305.521 89.2175C304.5 91.2587 303.399 93.2547 302.223 95.2086C302.129 95.3992 301.978 95.6543 301.794 95.8126C301.777 95.832 301.761 95.8481 301.739 95.8675C301.761 95.8869 301.784 95.9095 301.803 95.9386C302.081 96.4069 302.045 96.9914 302.084 97.5244C302.181 99.0843 302.168 100.651 302.152 102.214C302.055 107.117 301.503 111.997 300.621 116.816C300.621 116.825 300.618 116.835 300.615 116.845C300.544 117.129 300.395 117.956 300.169 118.563C300.553 118.447 300.951 118.35 301.325 118.224C302.2 117.952 303.05 117.604 303.877 117.206C311.77 106.426 316.77 93.4323 317.671 79.4314C318.026 74.5157 317.878 69.6776 317.264 64.9622C317.257 64.9654 317.254 64.9686 317.254 64.9719L317.261 64.9686ZM196.669 99.5042C196.669 99.5752 196.727 99.6334 196.798 99.6334C196.869 99.6334 196.927 99.5752 196.927 99.5042C196.927 99.4331 196.869 99.375 196.798 99.375C196.727 99.375 196.669 99.4331 196.669 99.5042ZM197.832 99.2813C197.832 99.3718 197.906 99.4461 197.996 99.4461C198.087 99.4461 198.161 99.3685 198.161 99.2813C198.161 99.1909 198.087 99.1166 197.996 99.1166C197.906 99.1166 197.832 99.1941 197.832 99.2813ZM287.36 40.0867C282.628 40.2676 277.881 40.4775 273.188 41.075C273.172 41.1461 273.155 41.2139 273.13 41.285C273.101 41.3722 273.065 41.4626 273.033 41.5498C272.965 41.7307 272.894 41.9148 272.823 42.0924C272.674 42.4703 272.529 42.8482 272.377 43.2228C272.067 43.9947 271.763 44.7699 271.46 45.545C270.866 47.0533 270.249 48.5551 269.648 50.0634C269.361 50.7901 269.05 51.5071 268.76 52.237C268.453 52.9895 268.149 53.7453 267.83 54.4914C267.487 55.3117 267.164 56.1385 266.815 56.9557C266.735 57.1591 266.651 57.3561 266.567 57.5564C266.312 58.1991 266.044 58.8386 265.785 59.4781C265.559 60.0465 265.323 60.6085 265.084 61.1672C265.046 61.2544 265.01 61.3449 264.981 61.4095C264.897 61.6097 264.81 61.8067 264.723 62.007C264.723 62.007 264.723 62.007 264.723 62.0102H264.719C264.706 62.0393 264.7 62.0651 264.694 62.0716C264.677 62.1071 264.661 62.1491 264.661 62.1491C264.606 62.275 264.555 62.3945 264.503 62.514C264.493 62.5334 264.487 62.5528 264.484 62.556C264.406 62.7369 264.332 62.9177 264.27 63.0534C264.248 63.1083 264.225 63.1632 264.219 63.1729C264.115 63.4087 264.019 63.6412 263.925 63.8576C263.902 63.9093 263.883 63.9609 263.88 63.9674C263.864 63.9997 263.854 64.032 263.838 64.0643C263.828 64.0869 263.818 64.1127 263.815 64.1192C263.796 64.1612 263.78 64.2 263.76 64.2419C263.738 64.2968 263.715 64.3517 263.692 64.4034C263.676 64.4422 263.657 64.4842 263.657 64.4874C263.389 65.1107 263.114 65.7308 262.833 66.351C262.691 66.6707 262.549 66.9904 262.404 67.3102C262.333 67.4684 262.265 67.6267 262.187 67.7817C262.233 67.8302 262.271 67.8883 262.304 67.9497C262.381 68.095 262.333 68.263 262.249 68.3921C262.203 68.4632 262.136 68.5246 262.065 68.5698C262.145 68.7119 262.229 68.854 262.313 68.9961C262.526 69.3675 262.743 69.7389 262.959 70.1104C263.356 70.7886 263.767 71.4636 264.161 72.1451C264.574 72.8556 264.997 73.563 265.404 74.2767C265.801 74.9743 266.195 75.6784 266.586 76.3793C266.977 77.0866 267.384 77.7842 267.778 78.4915C268.175 79.1956 268.566 79.9029 268.954 80.6135C269.341 81.3305 269.738 82.041 270.129 82.758C270.517 83.475 270.911 84.192 271.305 84.9058C272.083 86.3107 272.839 87.7286 273.595 89.1432C274.331 90.5158 275.064 91.8917 275.801 93.2643C276.224 94.0556 276.647 94.8437 277.028 95.6544C277.086 95.7835 277.131 95.9127 277.151 96.0451C278.682 95.5413 280.393 95.4444 281.976 95.3314C285.383 95.0795 288.8 95.0924 292.217 95.1021C293.435 95.1053 294.649 95.1117 295.867 95.1021C297.188 95.0794 298.512 95.0633 299.83 95.0084C300.069 94.9987 300.34 94.9535 300.566 95.0601C300.653 95.0601 300.741 95.0536 300.831 95.0536C300.944 95.0471 301.057 95.0439 301.167 95.0472C301.261 94.8792 301.38 94.7145 301.454 94.5595C302.191 93.2643 302.914 91.9595 303.605 90.6386C305.375 87.3733 306.88 83.9562 308.072 80.4423C308.075 80.4358 308.079 80.4326 308.079 80.4261C308.079 80.4261 308.079 80.4229 308.079 80.4197C308.079 80.4197 308.082 80.41 308.085 80.4068C309.467 76.5924 310.427 72.6392 311.186 68.6667C311.186 68.6505 311.192 68.6344 311.195 68.615C311.273 68.2339 311.354 67.8205 311.431 67.4523C311.476 67.2359 311.544 66.7805 311.686 66.4705C311.67 66.4608 311.657 66.4543 311.644 66.4446C309.965 61.8552 307.953 57.34 305.585 53.0574C303.702 49.7404 301.567 46.5268 299.481 43.3423C299.074 42.7384 298.651 42.1505 298.208 41.5757C298.112 41.4012 297.54 40.7811 297.236 40.3064C297.117 40.5195 296.975 40.6293 296.817 40.5809C296.829 40.4452 296.839 40.3064 296.852 40.1675C295.279 40.2192 293.706 40.1707 292.13 40.1223C291.042 40.09 289.953 40.0544 288.862 40.0544C288.355 40.0544 287.851 40.0641 287.344 40.0803L287.36 40.0867ZM272.829 40.0415C272.949 40.0674 273.036 40.1352 273.104 40.2256C273.175 40.2127 273.243 40.1966 273.307 40.1739C276.976 39.2825 280.774 39.134 284.531 38.9402C288.649 38.7335 292.821 38.8045 296.878 39.5861C296.888 39.5861 296.897 39.5926 296.907 39.5958C297.262 34.7803 297.033 29.8033 295.57 25.1621C295.402 25.0426 295.24 24.907 295.089 24.7584C294.856 24.542 294.808 24.0027 295.221 24.1319C295.198 24.0705 295.179 24.0091 295.156 23.9478C295.105 23.5796 295.489 23.4762 295.654 23.8121C295.731 24.0059 295.802 24.1997 295.877 24.3935C297.185 24.9231 298.473 25.5013 299.662 26.2603C293.102 18.806 285.034 12.6728 275.914 8.37721C275.975 8.75509 275.487 8.70664 275.261 8.59037C270.539 6.61054 265.566 5.37032 260.453 5.04412C256.506 4.87294 252.456 4.73407 248.642 5.91938C248.467 5.94522 248.28 6.00012 248.086 6.06471C248.096 6.08732 248.099 6.1067 248.099 6.13254C248.102 6.25527 248.002 6.35862 247.876 6.35862C247.779 6.35862 247.692 6.29726 247.663 6.20682C247.599 6.22943 247.537 6.24881 247.476 6.26496C246.481 11.1128 246.672 16.106 247.418 20.9667C247.476 21.3963 247.537 21.8258 247.595 22.2554C247.75 22.3038 247.844 22.4395 247.825 22.588C249.117 23.0047 250.36 23.5666 251.574 24.1674C251.574 24.1674 251.581 24.1706 251.581 24.1738C254.807 25.779 257.775 27.8525 260.624 30.0487C264.69 33.2042 268.705 36.463 272.322 40.1255C272.335 40.1352 272.348 40.1481 272.358 40.1578C272.358 40.1578 272.361 40.1546 272.364 40.1513C272.471 40.0803 272.597 40.0318 272.726 40.0318C272.758 40.0318 272.794 40.0351 272.829 40.0415Z" fill="black"></path><path d="M300.618 116.838C300.618 116.838 300.615 116.857 300.612 116.864C300.612 116.854 300.615 116.848 300.618 116.838Z" fill="black"></path><path d="M300.628 116.796C300.628 116.796 300.628 116.805 300.625 116.812C300.625 116.805 300.625 116.802 300.628 116.796Z" fill="black"></path><path d="M198.48 18.0893C198.48 18.0893 198.468 18.0924 198.465 18.0955C198.471 18.0955 198.474 18.0924 198.48 18.0893Z" fill="black"></path><path d="M198.626 18.0439C198.626 18.0439 198.616 18.047 198.61 18.0501C198.616 18.047 198.619 18.0439 198.626 18.0439Z" fill="black"></path><path d="M174.481 96.342C172.439 89.9019 171.274 83.1291 171.099 76.1917C171.409 76.1917 171.716 76.1884 172.026 76.1852C172.217 83.197 173.415 89.9923 175.488 96.4195C175.152 96.3937 174.817 96.3646 174.481 96.342Z" fill="black"></path><path d="M188.514 91.7465C188.194 91.6787 187.981 91.3654 187.82 91.1038C187.393 90.4256 186.986 89.715 186.618 89.0077C185.22 86.2301 184.057 83.3331 182.975 80.4198C182.978 80.4295 182.982 80.436 182.985 80.4457C182.458 79.0117 181.958 77.5647 181.502 76.1049C181.871 76.1049 182.239 76.1017 182.607 76.0984C183.405 78.4368 184.27 80.7493 185.2 83.0359C186.001 85.0028 186.844 86.9471 187.742 88.8721C187.868 89.4211 189.535 91.7465 188.517 91.7465H188.514Z" fill="black"></path><path d="M199.941 10.2827C199.86 10.2375 199.941 10.1503 200.005 10.1406C200.086 10.1342 200.115 10.1794 200.109 10.2246C200.102 10.2666 200.067 10.3086 200.015 10.3086C199.992 10.3086 199.97 10.3021 199.944 10.2827H199.941Z" fill="black"></path><path d="M264.597 3.59757C264.597 3.54913 264.635 3.50714 264.684 3.50714C264.732 3.50714 264.774 3.54913 264.774 3.59757C264.774 3.64602 264.732 3.68478 264.684 3.68478C264.635 3.68478 264.597 3.64279 264.597 3.59757Z" fill="black"></path><path d="M47.8752 84.4599C47.8752 84.3824 47.9431 84.321 48.0206 84.321C48.0981 84.321 48.1627 84.3856 48.1627 84.4631C48.1627 84.5406 48.0948 84.602 48.0173 84.602C47.9398 84.602 47.8752 84.5374 47.8752 84.4599Z" fill="black"></path><path d="M88.6117 18.932C90.1781 18.7544 91.7413 18.5477 93.3045 18.3506C95.0421 18.1342 96.7797 17.9211 98.5173 17.7079C101.64 17.3236 104.764 16.9263 107.884 16.5291C114.356 15.7087 120.822 14.869 127.294 14.0551C134.038 13.2057 140.778 12.3401 147.525 11.5004C153.975 10.6994 160.428 9.90811 166.878 9.08453C173.25 8.27387 179.619 7.43737 185.995 6.65254C192.364 5.86771 198.742 5.15071 205.121 4.41433C211.358 3.6941 217.588 2.93512 223.844 2.37314C226.919 2.09538 229.98 1.70135 233.052 1.3913C234.467 1.24919 235.875 1.09416 237.289 0.952056C237.729 0.910069 238.165 0.832558 238.601 0.939139C239.04 1.04895 239.469 1.39453 239.589 1.84023C239.708 2.26979 239.495 2.70257 239.182 2.99002C239.004 3.1515 238.772 3.29684 238.539 3.35821C238.31 3.41634 238.081 3.44218 237.848 3.47125C235.258 3.80068 232.664 4.12043 230.074 4.42402C230.258 4.39172 230.445 4.35942 230.633 4.32713C231.004 4.26253 231.376 4.19148 231.747 4.13335C231.867 4.11397 231.841 3.92987 231.721 3.94925C231.243 4.0203 230.762 4.07521 230.284 4.13657C229.777 4.20117 229.267 4.27222 228.76 4.34005C227.222 4.55321 225.682 4.75991 224.138 4.96016C223.324 5.06674 222.51 5.17332 221.696 5.28313C220.947 5.38648 220.198 5.4866 219.445 5.57058C219.461 5.57058 219.474 5.57058 219.487 5.57058C219.251 5.58673 219.015 5.59964 218.78 5.62548C218.544 5.65455 218.311 5.68362 218.079 5.71269C217.569 5.78051 217.058 5.84511 216.548 5.9097C216.183 5.95492 215.815 5.99367 215.45 6.03889C215.04 6.08733 214.633 6.14224 214.226 6.20037C213.48 6.3005 212.737 6.40385 211.988 6.49428C211.784 6.51689 211.581 6.53304 211.38 6.55888C211.245 6.57502 211.119 6.62993 211.025 6.72036C210.805 6.7462 210.589 6.76881 210.366 6.79464C207.22 7.14346 204.075 7.49873 200.929 7.85077C194.547 8.571 188.165 9.27508 181.777 9.9178C175.265 10.5734 168.748 11.2 162.233 11.8686C155.645 12.5436 149.056 13.2251 142.468 13.9001C139.338 14.223 136.212 14.5266 133.079 14.8399C129.849 15.1629 126.622 15.4956 123.396 15.8153C116.756 16.4774 110.115 17.133 103.478 17.8016C100.936 18.06 98.3946 18.3216 95.856 18.5864C93.4596 18.8351 91.0631 19.058 88.6666 19.3293C88.6569 19.3293 88.6472 19.3293 88.6408 19.3293C88.4018 19.3293 88.3598 18.9514 88.6117 18.9223V18.932Z" fill="black"></path><path d="M212.02 6.49725C212.02 6.49725 212 6.49726 211.994 6.50046C212.004 6.50046 212.013 6.49725 212.02 6.49725Z" fill="black"></path><path d="M235.681 148.076C235.477 148.076 235.267 148.044 235.067 148.028C234.899 148.012 234.731 147.999 234.56 147.983C234.237 147.954 233.914 147.921 233.588 147.895C232.936 147.834 232.286 147.776 231.637 147.711C230.271 147.576 228.905 147.434 227.542 147.285C226.189 147.14 224.842 146.972 223.489 146.82C220.785 146.52 218.076 146.261 215.369 145.983C212.688 145.706 210.004 145.45 207.321 145.192C204.601 144.931 201.888 144.653 199.172 144.378C193.646 143.819 188.12 143.258 182.594 142.705C177.126 142.156 171.655 141.597 166.187 141.026C160.602 140.444 155.018 139.853 149.44 139.214C146.708 138.901 143.979 138.578 141.243 138.258C138.559 137.945 135.876 137.667 133.195 137.357C129.665 136.943 126.131 136.54 122.598 136.146C122.572 136.146 122.546 136.146 122.524 136.139C122.511 136.139 122.498 136.133 122.485 136.133C120.421 135.903 118.357 135.677 116.294 135.458C115.083 135.329 113.871 135.199 112.66 135.073C111.423 134.941 110.186 134.799 108.949 134.679C108.775 134.663 108.652 134.479 108.678 134.311C108.704 134.13 108.872 134.02 109.046 134.037C110.874 134.214 112.705 134.363 114.537 134.521C116.384 134.686 118.228 134.844 120.056 134.999C120.699 135.054 121.342 135.109 121.923 135.157C121.978 135.161 122.033 135.167 122.065 135.167C122.204 135.18 122.346 135.193 122.485 135.203C122.504 135.203 122.527 135.209 122.546 135.209C122.576 135.209 122.605 135.215 122.63 135.219C122.701 135.219 122.773 135.228 122.847 135.235C124.387 135.364 125.928 135.49 127.472 135.616C130.317 135.848 133.166 136.065 136.011 136.304C136.124 136.314 136.237 136.323 136.331 136.33C136.748 136.362 137.164 136.401 137.542 136.433C138.007 136.472 138.472 136.511 138.844 136.543C142.907 136.869 146.976 137.157 150.913 137.496C156.543 137.964 162.169 138.458 167.795 138.968C173.308 139.469 178.821 139.979 184.331 140.499C189.825 141.019 195.322 141.533 200.819 142.043C203.551 142.295 206.281 142.553 209.01 142.825C211.7 143.093 214.387 143.345 217.078 143.593C219.548 143.823 222.022 144.058 224.493 144.265C225.271 144.327 226.05 144.385 226.786 144.443C229.519 144.672 232.251 144.921 234.98 145.208C235.151 145.228 235.316 145.244 235.484 145.263C235.697 145.286 235.913 145.295 236.12 145.357C236.579 145.496 237.024 145.796 237.234 146.239C237.331 146.445 237.389 146.665 237.354 146.897C237.322 147.114 237.215 147.291 237.089 147.466C236.973 147.624 236.782 147.753 236.614 147.847C236.336 147.999 236.023 148.073 235.707 148.08H235.684L235.681 148.076Z" fill="black"></path><path d="M239.285 147.954C237.6 147.902 235.901 147.879 234.231 147.627C233.75 147.498 232.264 147.35 232.384 146.688C232.461 146.504 232.726 146.468 232.897 146.449C236.036 146.206 239.172 146.746 242.308 146.762C242.725 146.784 243.148 146.778 243.575 146.775C244.25 146.765 244.925 146.755 245.583 146.865C246.204 147.117 245.942 147.824 245.351 147.876C244.22 147.957 243.087 147.983 241.953 147.983C241.065 147.983 240.174 147.97 239.285 147.96V147.954Z" fill="black"></path><path d="M198.633 135.936C198.42 135.913 198.21 135.897 198 135.874C197.318 135.81 196.637 135.745 195.955 135.681C193.136 135.406 190.323 135.102 187.506 134.796C184.664 134.482 181.819 134.153 178.973 133.853C173.108 133.232 167.233 132.67 161.362 132.092C158.432 131.805 155.503 131.521 152.57 131.236C151.075 131.094 149.58 130.949 148.084 130.807C146.715 130.674 145.349 130.532 143.979 130.416C142.626 130.3 141.276 130.161 139.923 130.029C138.431 129.883 136.935 129.741 135.443 129.593C132.575 129.308 129.704 129.034 126.836 128.75C123.884 128.456 120.929 128.168 117.977 127.865C115.105 127.567 112.237 127.264 109.369 126.967C103.469 126.356 97.5679 125.733 91.6704 125.081C90.1912 124.919 88.712 124.758 87.2327 124.59C85.718 124.415 84.2065 124.215 82.6918 124.05C79.7947 123.731 76.8944 123.443 73.9973 123.14C72.2048 122.952 70.4123 122.765 68.6166 122.578C67.6993 122.484 66.7789 122.393 65.8616 122.297C65.0606 122.213 64.2597 122.119 63.4555 122.041C63.3198 122.029 63.3456 121.825 63.4813 121.835C64.8539 121.961 66.233 122.048 67.6089 122.164C69.1527 122.29 70.6965 122.413 72.2403 122.536C75.118 122.765 77.9925 123.001 80.8734 123.22C82.1492 123.32 83.4249 123.414 84.7007 123.498C87.6527 123.66 90.6014 123.899 93.5534 124.115C96.5473 124.331 99.5381 124.577 102.529 124.806C108.375 125.255 114.22 125.717 120.063 126.195C125.912 126.676 131.758 127.183 137.604 127.687C139.009 127.806 140.414 127.929 141.815 128.052C143.178 128.168 144.538 128.307 145.898 128.423C148.85 128.679 151.802 128.94 154.754 129.195C160.567 129.702 166.381 130.196 172.194 130.687C175.107 130.933 178.021 131.175 180.937 131.395C183.837 131.614 186.741 131.818 189.648 132.028C192.445 132.234 195.242 132.47 198.035 132.716C198.361 132.745 198.691 132.774 199.014 132.803C199.221 132.819 199.43 132.829 199.631 132.88C199.918 132.951 200.215 133.071 200.448 133.262C200.781 133.536 201.071 133.878 201.136 134.321C201.204 134.809 200.942 135.235 200.58 135.535C200.202 135.849 199.724 135.968 199.246 135.994C199.224 135.994 199.201 135.994 199.175 135.994C198.995 135.994 198.807 135.958 198.63 135.942L198.633 135.936Z" fill="black"></path><path d="M203.203 135.778C203.099 135.778 202.996 135.771 202.909 135.778C200.916 135.674 198.946 135.309 196.969 135.035C196.317 134.844 194.385 135.015 194.634 133.962C194.918 133.426 195.716 133.543 196.417 133.665C196.724 133.717 197.011 133.769 197.234 133.769C199.456 134.127 201.775 134.298 203.9 135.028C204.058 135.125 204.184 135.309 204.1 135.5C203.952 135.742 203.671 135.781 203.387 135.781C203.322 135.781 203.261 135.781 203.199 135.778H203.203Z" fill="black"></path><path d="M201.494 135.823C201.417 135.823 201.355 135.823 201.32 135.823C200.144 135.742 198.975 135.587 197.812 135.403C197.331 135.355 196.566 135.19 196.675 134.554C196.931 133.956 197.719 134.095 198.419 134.237C198.726 134.298 199.017 134.36 199.237 134.36C200.651 134.625 202.189 134.647 203.522 135.187C203.962 135.771 202.495 135.823 201.723 135.823C201.639 135.823 201.562 135.823 201.497 135.823H201.494Z" fill="black"></path><path d="M204.705 136.472C204.598 136.465 204.508 136.462 204.446 136.465C202.163 136.349 199.899 136.003 197.648 135.606C197.208 135.542 196.446 135.432 196.543 134.825C196.863 134.043 198.31 134.689 198.965 134.692C200.629 134.967 202.389 135.264 204.01 135.606C204.508 135.764 205.179 135.739 205.541 136.146C205.596 136.43 205.27 136.478 204.95 136.478C204.866 136.478 204.785 136.475 204.708 136.472H204.705Z" fill="black"></path><path d="M200.906 134.182C200.348 134.036 200.38 133.468 200.916 133.319C201.249 133.239 201.785 133.31 201.782 133.746C201.775 134.085 201.446 134.208 201.142 134.208C201.058 134.208 200.977 134.198 200.906 134.182Z" fill="black"></path><path d="M246.42 147.73C241.679 147.324 236.947 146.829 232.206 146.413C230.003 146.203 227.807 145.919 225.604 145.725C225.359 145.725 225.075 145.615 225 145.36C225.026 144.843 225.617 144.911 226.105 144.979C226.295 145.005 226.473 145.034 226.589 145.024C228.921 145.185 231.266 145.308 233.591 145.495C233.582 145.495 233.575 145.495 233.566 145.492C236.766 145.751 239.97 146.003 243.145 146.493C244.117 146.648 245.092 146.82 246.052 147.036C246.368 147.139 246.788 147.156 246.998 147.437C247.092 147.695 246.872 147.753 246.656 147.753C246.568 147.753 246.481 147.743 246.417 147.734L246.42 147.73Z" fill="black"></path><path d="M242.121 147.847C241.262 147.753 240.403 147.679 239.544 147.592C239.272 147.553 238.226 147.582 238.559 147.101C238.71 146.962 238.914 146.998 239.098 147.023C240.128 147.169 241.197 147.237 242.208 147.479C242.454 147.521 242.402 147.86 242.192 147.86C242.169 147.86 242.147 147.857 242.121 147.847Z" fill="black"></path><path d="M109.867 28.5629C109.896 28.5629 109.925 28.5533 109.941 28.5533C110.112 28.521 110.277 28.4693 110.448 28.4338C110.687 28.3885 110.929 28.3498 111.168 28.311C111.582 28.2464 111.995 28.1883 112.408 28.1269C113.436 27.9784 114.463 27.8298 115.49 27.6812C117.45 27.4002 119.407 27.1096 121.365 26.8189C125.221 26.2505 129.074 25.6529 132.93 25.0684C136.78 24.4806 140.63 23.896 144.48 23.2952C148.278 22.701 152.086 22.1584 155.894 21.6255C159.698 21.0926 163.512 20.6016 167.324 20.101C171.093 19.6069 174.865 19.1515 178.637 18.6864C182.442 18.2181 186.247 17.7304 190.048 17.2266C191.908 16.9811 193.765 16.7066 195.626 16.4514C196.54 16.3255 197.451 16.1963 198.365 16.0768C198.697 16.0316 199.043 16.1059 199.33 16.277C199.618 16.4482 199.892 16.7906 199.824 17.1458C199.812 17.204 199.795 17.2621 199.779 17.317C199.66 17.3364 199.54 17.359 199.421 17.3848C198.649 17.5495 197.887 17.7498 197.124 17.95C196.346 18.1535 195.571 18.357 194.792 18.5572C194.553 18.6186 194.314 18.68 194.075 18.7413C193.691 18.7865 193.307 18.8285 192.926 18.8737C191.001 19.0901 189.079 19.3485 187.157 19.6004C183.401 20.0913 179.645 20.5952 175.892 21.1216C172.104 21.6545 168.305 22.1422 164.514 22.6364C160.716 23.1273 156.914 23.6053 153.113 24.0542C151.146 24.2868 149.176 24.5128 147.206 24.7325C145.319 24.9392 143.43 25.1297 141.544 25.3332C137.61 25.7563 133.673 26.1794 129.739 26.6025C125.912 27.0127 122.081 27.4293 118.257 27.8686C116.885 28.0236 115.515 28.1851 114.14 28.3433C113.532 28.4144 112.922 28.4822 112.318 28.5533C111.685 28.6275 111.049 28.7083 110.416 28.7438C110.29 28.7535 110.164 28.7438 110.048 28.7535C109.999 28.7535 109.947 28.76 109.902 28.7664C109.896 28.7664 109.889 28.7664 109.886 28.7664C109.767 28.7664 109.747 28.5759 109.876 28.5565L109.867 28.5629Z" fill="black"></path><path d="M198.494 18.0856C198.494 18.0856 198.474 18.0921 198.468 18.0953C198.481 18.0889 198.497 18.0856 198.51 18.0792C198.549 18.0662 198.588 18.0533 198.626 18.0404C198.617 18.0436 198.607 18.0469 198.6 18.0501C198.623 18.0436 198.646 18.0372 198.668 18.0275C198.749 18.0017 198.833 17.9758 198.914 17.9467C198.914 17.9467 198.93 17.9435 198.936 17.9403C199.127 17.8789 199.321 17.8143 199.511 17.7465C199.472 17.7885 199.427 17.8305 199.379 17.866C199.227 17.9887 199.04 18.0889 198.852 18.1373C198.697 18.1761 198.546 18.1922 198.387 18.2116C198.216 18.2342 198.048 18.2536 197.877 18.2762C198.084 18.2116 198.29 18.1502 198.494 18.0824V18.0856Z" fill="black"></path><path d="M198.508 18.0794C198.508 18.0794 198.501 18.0794 198.494 18.0829C198.497 18.0829 198.504 18.0794 198.508 18.0794Z" fill="black"></path><path d="M0.162286 68.1014C-0.0314979 68.1014 -0.0670471 67.7946 0.139656 67.7752C1.83527 67.617 3.52764 67.4232 5.22002 67.2423C7.0642 67.0453 8.90842 66.8386 10.7526 66.6319C12.7292 66.4123 14.7058 66.1959 16.6823 65.9698C18.5168 65.7631 20.3481 65.537 22.1826 65.3303C26.1455 64.8846 30.1084 64.4615 34.0745 64.0514C37.8985 63.6541 41.7257 63.2859 45.5465 62.8757C49.4125 62.4591 53.2785 62.0812 57.1477 61.6904C61.0815 61.2932 65.0154 60.8927 68.9492 60.4986C72.6472 60.1272 76.3452 59.7429 80.0465 59.3779C84.0385 58.9807 88.0304 58.5931 92.0191 58.1991C99.6026 57.4562 107.183 56.7069 114.763 55.9738C122.459 55.2309 130.156 54.4913 137.856 53.7743C145.471 53.0638 153.09 52.3565 160.712 51.6912C164.462 51.365 168.215 51.0517 171.971 50.7513C172.889 50.677 173.809 50.6027 174.729 50.5446C175.175 50.5155 175.621 50.4897 176.07 50.4735C176.448 50.4574 176.819 50.4735 177.197 50.4897C177.381 50.4994 177.568 50.5123 177.756 50.5155C177.84 50.5155 177.927 50.5155 178.017 50.5123C178.289 50.5058 178.56 50.4962 178.815 50.6157C179.157 50.7739 179.477 51.0452 179.526 51.4392C179.561 51.7073 179.458 51.9592 179.29 52.1627C178.647 52.2854 178.008 52.4049 177.365 52.5277C176.848 52.6245 176.331 52.7247 175.815 52.8183C175.32 52.9088 174.82 52.9895 174.319 53.0735C173.292 53.2479 172.265 53.4288 171.238 53.6064C171.261 53.5999 171.283 53.5967 171.306 53.5935C171.07 53.6355 170.834 53.6774 170.599 53.7162C169.791 53.7969 168.984 53.8777 168.176 53.9584C164.43 54.3395 160.683 54.7077 156.937 55.0598C149.318 55.7735 141.696 56.4744 134.074 57.1526C126.348 57.8406 118.626 58.5253 110.897 59.1874C103.307 59.8366 95.7204 60.4857 88.1338 61.1381C80.2694 61.8164 72.3985 62.4591 64.5308 63.118C60.765 63.4345 57.0023 63.7316 53.2365 64.0481C49.28 64.3776 45.3236 64.6747 41.3672 64.9977C37.4301 65.3174 33.4931 65.6468 29.5529 65.9537C25.7741 66.2508 21.992 66.5156 18.2068 66.7676C15.0739 66.9743 11.9444 67.2133 8.81153 67.4393C7.31939 67.5459 5.82722 67.6622 4.33508 67.7752C2.95275 67.8818 1.56393 67.9787 0.184838 68.1047H0.165519L0.162286 68.1014Z" fill="black"></path><path d="M192.69 97.6112C191.915 97.6015 191.14 97.5789 190.361 97.5789C189.605 97.5789 188.85 97.5175 188.097 97.4658C187.312 97.4109 186.528 97.3496 185.746 97.285C185 97.2139 184.254 97.1332 183.508 97.0654C182.51 96.9717 181.509 96.8877 180.507 96.807C179.448 96.7262 178.392 96.6455 177.332 96.568C176.325 96.4937 175.317 96.4065 174.306 96.3322C173.221 96.2547 172.136 96.1675 171.051 96.0868C170.986 96.0803 170.921 96.0771 170.857 96.0738C165.802 95.6572 160.748 95.2341 155.693 94.7852C152.376 94.488 149.056 94.207 145.742 93.8647C144.318 93.7161 142.891 93.5805 141.463 93.4513C141.382 93.4513 141.302 93.4448 141.221 93.4287C139.257 93.251 137.293 93.0831 135.33 92.9055C131.974 92.6083 128.615 92.3209 125.266 91.9527C121.826 91.5748 118.374 91.2777 114.931 90.9386C113.397 90.7868 111.859 90.6156 110.325 90.4702C108.639 90.312 106.957 90.1537 105.274 90.0019C101.805 89.6854 98.3396 89.3495 94.8741 89.033C88.0174 88.4097 81.1606 87.7928 74.3039 87.1759C67.4956 86.5655 60.6938 85.8743 53.8887 85.251C51.3566 85.0184 48.8245 84.7924 46.2892 84.5663C44.9714 84.45 43.6569 84.3337 42.3424 84.211C41.6997 84.1529 41.057 84.0947 40.4111 84.0334C39.8717 83.9849 39.3291 83.9139 38.7865 83.8719C38.6056 83.8557 38.6444 83.5748 38.8253 83.5909H38.835C43.7636 83.9139 48.6825 84.295 53.6046 84.6503H53.6013C56.957 84.8893 60.3127 85.1315 63.6716 85.3447C67.0499 85.561 70.425 85.7871 73.7969 86.0326C76.4291 86.2231 79.0645 86.4169 81.6806 86.6075C82.9435 86.6979 84.203 86.7851 85.3754 86.8723C88.2499 87.079 91.1212 87.2922 93.986 87.4989C97.3126 87.7347 100.642 87.9575 103.976 88.1933C107.415 88.4387 110.858 88.6777 114.301 88.8844C117.708 89.0879 121.116 89.3495 124.523 89.5562C125.33 89.6047 126.135 89.6402 126.942 89.6887C127.801 89.7436 128.66 89.8017 129.52 89.8598C131.276 89.9793 133.033 90.1053 134.79 90.2377C136.916 90.396 139.037 90.5542 141.163 90.706C141.266 90.7125 141.366 90.7189 141.47 90.7286H141.479C141.689 90.7448 141.899 90.7609 142.109 90.7738C142.474 90.7997 142.842 90.8255 143.026 90.8384C143.152 90.8481 143.281 90.8578 143.407 90.8643C145.006 90.9741 146.605 91.0548 148.203 91.1679C149.925 91.2906 151.646 91.4198 153.368 91.5457C156.64 91.7847 159.908 92.0302 163.177 92.2886C169.862 92.8118 176.548 93.3447 183.23 93.8938C185.32 94.0682 187.409 94.22 189.492 94.4364C190.436 94.5332 191.369 94.7076 192.306 94.8368C192.761 94.9014 193.22 94.9725 193.672 95.0435C193.975 95.0888 194.263 95.1372 194.54 95.2761C194.647 95.331 194.741 95.3956 194.831 95.4666C194.838 95.4666 194.844 95.4699 194.851 95.4731C195.096 95.5345 195.329 95.6346 195.516 95.8187C195.687 95.9899 195.829 96.2095 195.829 96.4646C195.829 96.7069 195.674 96.9523 195.48 97.0912C195.235 97.2656 194.977 97.356 194.683 97.3786C194.576 97.44 194.469 97.4885 194.353 97.524C194.159 97.5853 193.962 97.5983 193.759 97.6112C193.656 97.6176 193.555 97.6209 193.452 97.6209C193.2 97.6209 192.945 97.608 192.696 97.6047L192.69 97.6112Z" fill="black"></path><path d="M69.13 75.9243C68.9265 75.9243 68.9201 75.6046 69.1235 75.6046C71.5878 75.5691 74.0521 75.5174 76.5164 75.4754C79.1874 75.4302 81.8616 75.385 84.5294 75.3333C87.3909 75.2784 90.2556 75.2235 93.1139 75.1589C95.7074 75.104 98.3074 75.0297 100.901 74.9716C106.278 74.8521 111.656 74.7196 117.03 74.613C122.411 74.5032 127.792 74.3934 133.172 74.2901C135.821 74.2384 138.472 74.1867 141.121 74.1286C143.63 74.0737 146.143 73.9897 148.649 73.9187C151.275 73.8476 153.901 73.7669 156.523 73.6829C159.143 73.5989 161.762 73.5375 164.381 73.473C169.71 73.347 175.036 73.1371 180.365 73.0854C181.764 73.0725 183.159 73.0757 184.557 73.0951C185.236 73.108 185.911 73.1241 186.589 73.1468C187.283 73.1694 187.974 73.2113 188.566 73.2404C189.131 73.263 189.699 73.2759 190.268 73.305C190.545 73.3179 190.862 73.305 191.114 73.4407C191.311 73.5472 191.476 73.7442 191.495 73.9671C190.959 73.9962 190.423 74.0252 189.883 74.0543C189.586 74.0705 189.289 74.106 188.992 74.1254C188.611 74.1544 188.233 74.1803 187.855 74.2061C186.541 74.2901 185.223 74.345 183.908 74.4386C182.587 74.5291 181.266 74.6227 179.942 74.7132C178.621 74.8004 177.3 74.8714 175.979 74.9716C174.658 75.0749 173.337 75.1847 172.013 75.2784C171.865 75.2881 171.716 75.301 171.567 75.3107C170.844 75.3074 170.124 75.3042 169.4 75.301C168.018 75.301 166.636 75.3042 165.253 75.3107C162.637 75.3236 160.021 75.343 157.402 75.3333C154.786 75.3236 152.17 75.3171 149.55 75.3204C148.52 75.3204 147.49 75.3204 146.463 75.3204C144.819 75.3204 143.168 75.3204 141.521 75.3268C136.176 75.3527 130.828 75.4172 125.479 75.4592C120.231 75.5012 114.979 75.5658 109.731 75.5884C107.086 75.6014 104.437 75.6175 101.789 75.6336C99.0761 75.653 96.3663 75.653 93.6534 75.6692C88.2371 75.7047 82.8208 75.7628 77.4013 75.8274C74.6399 75.8597 71.8785 75.8823 69.1203 75.9211H69.1171L69.13 75.9243Z" fill="black"></path><path d="M185.752 73.7307C188.934 73.6499 192.125 73.637 195.309 73.553C195.374 73.553 195.438 73.5498 195.503 73.5466C195.668 73.5401 195.836 73.5336 195.997 73.5724C196.075 73.5982 196.12 73.6596 196.136 73.7307C196.023 73.7371 195.913 73.7404 195.803 73.7468C194.492 73.8049 193.184 73.8792 191.873 73.9438C191.214 73.9761 190.552 74.0117 189.893 74.0504C189.596 74.0666 189.299 74.0989 189.002 74.1215C188.62 74.1505 188.243 74.1764 187.865 74.2022C187.106 74.2474 186.347 74.2894 185.588 74.3314C185.291 74.1505 185.417 73.7985 185.756 73.7307H185.752Z" fill="black"></path><path d="M217.498 9.3784C217.485 9.26213 217.575 9.16848 217.688 9.16525C218.586 9.04898 219.477 8.90364 220.378 8.7906C220.65 8.81966 222.623 8.30936 222.291 8.83904C222.207 8.94239 222.071 8.96177 221.948 8.97146C220.898 9.12649 219.849 9.28474 218.796 9.41393C218.428 9.46238 218.06 9.51082 217.691 9.53989C217.598 9.53989 217.51 9.47207 217.501 9.37518L217.498 9.3784Z" fill="black"></path><path d="M212.892 10.88C212.911 10.7411 213.057 10.6346 213.195 10.6701C213.861 10.6604 214.529 10.5926 215.188 10.5635C217.607 10.4343 220.026 10.3051 222.445 10.1889C222.839 10.2179 223.301 10.0274 223.647 10.2502C223.783 10.3471 223.682 10.5118 223.563 10.57C222.797 10.7282 221.967 10.6539 221.179 10.7347C219.057 10.8413 216.939 10.964 214.817 11.0899C214.255 11.1222 213.693 11.1642 213.128 11.1707C212.979 11.1707 212.869 11.0221 212.892 10.88Z" fill="black"></path><path d="M210.386 13.6093C210.298 13.5834 210.231 13.5059 210.221 13.4155C210.231 13.0344 210.773 13.1119 211.038 13.0247C212.659 12.7695 214.29 12.5919 215.918 12.3755C217.604 12.1623 219.293 11.9524 220.979 11.7554C221.186 11.7166 221.473 11.6876 221.59 11.9104C221.59 12.2818 221.079 12.2269 220.818 12.2754C217.343 12.6888 213.845 13.1313 210.389 13.6125L210.386 13.6093Z" fill="black"></path><path d="M208.929 15.4698C208.709 15.0305 209.384 15.0241 209.659 14.9627C213.092 14.5041 216.548 14.236 219.994 13.8743C220.653 13.8549 221.341 13.6515 221.987 13.7483C222.061 13.7839 222.164 13.8614 222.116 13.9518C221.838 14.3135 221.244 14.1327 220.84 14.236C217.032 14.6236 213.186 14.9498 209.404 15.5053C209.239 15.5312 209.048 15.641 208.926 15.473L208.929 15.4698Z" fill="black"></path><path d="M204.223 18.3409C204.146 18.1924 204.272 18.0438 204.424 18.0309C205.244 17.85 206.074 17.7273 206.901 17.5949C210.269 17.0846 213.638 16.5904 217.01 16.1156C217.588 16.0704 218.182 15.8734 218.757 15.9283C218.838 15.9638 218.948 16.0284 218.915 16.1318C218.676 16.5161 218.037 16.3643 217.646 16.4871C213.841 17.0135 210.046 17.5916 206.245 18.1439C205.628 18.2343 205.002 18.3248 204.394 18.4443C204.327 18.4443 204.259 18.4087 204.223 18.3441V18.3409Z" fill="black"></path><path d="M203.932 20.7471C203.677 20.7471 203.584 20.3757 203.839 20.2852C204.785 20.1302 205.738 19.9558 206.691 19.8234C209.32 19.4843 211.949 18.9546 214.578 18.7059C214.801 18.7705 214.868 18.9772 214.652 19.1193C212.969 19.5069 211.19 19.6296 209.475 19.9397C207.627 20.1916 205.79 20.6018 203.932 20.7439V20.7471Z" fill="black"></path><path d="M200.648 23.3146C200.629 23.1531 200.745 23.0014 200.906 22.9852C202.725 22.6816 204.543 22.4135 206.365 22.1132C207.485 21.9323 208.606 21.7482 209.727 21.5738C209.988 21.4672 210.56 21.6481 210.186 21.9614C207.605 22.5363 204.911 22.814 202.305 23.3502C201.856 23.4244 201.407 23.5246 200.952 23.5762C200.803 23.5762 200.667 23.4729 200.648 23.3179V23.3146Z" fill="black"></path><path d="M199.873 26.034C199.634 25.8661 199.782 25.5657 200.047 25.5366C201.733 25.0651 203.458 24.7421 205.163 24.361C207.285 23.8992 209.41 23.447 211.539 23.0174C211.726 22.9625 212.03 22.9561 212.088 23.1854C212.062 23.4373 211.768 23.5019 211.561 23.5278C210.56 23.728 209.559 23.9347 208.558 24.1479C205.661 24.7098 202.738 25.5044 199.87 26.0308L199.873 26.034Z" fill="black"></path><path d="M200.819 27.8137C200.674 27.8137 200.59 27.6166 200.703 27.5165C200.784 27.4455 200.897 27.4455 200.997 27.4196C202.693 27.0256 204.401 26.6994 206.11 26.3635C208.099 25.9792 210.092 25.5948 212.085 25.2331C212.262 25.1879 212.488 25.1847 212.601 25.3558C212.614 25.7692 212.01 25.7014 211.726 25.7918C210.99 25.9275 210.25 26.0664 209.517 26.2052C206.61 26.7317 203.736 27.3744 200.816 27.8169L200.819 27.8137Z" fill="black"></path><path d="M199.566 29.7323C199.576 29.6386 199.663 29.5611 199.757 29.5579C200.464 29.4158 201.187 29.2446 201.891 29.1219C203.836 28.7537 205.728 28.3984 207.666 28.0399C207.912 27.9495 208.361 28.1336 208.028 28.3952C207.214 28.6665 206.264 28.7278 205.438 28.9216C203.955 29.1962 202.508 29.4868 201.032 29.7614C200.713 29.7549 199.53 30.2329 199.566 29.7291V29.7323Z" fill="black"></path><path d="M198.132 32.9328C198.048 32.7358 198.222 32.5582 198.403 32.5324C200.328 31.8993 202.256 31.347 204.194 30.7721C204.86 30.5945 205.515 30.3555 206.19 30.2199C206.407 30.2037 206.649 30.404 206.465 30.6107C206.323 30.8012 206.064 30.8141 205.854 30.8852C203.526 31.5537 201.145 32.2514 198.846 32.9684C198.613 33.0362 198.271 33.2429 198.132 32.9296V32.9328Z" fill="black"></path><path d="M198.788 33.9277C198.72 33.9084 198.665 33.847 198.658 33.7727C198.642 33.6177 198.794 33.5402 198.923 33.5692C201.048 33.1688 203.164 32.723 205.292 32.3258C205.528 32.3 205.78 32.1675 206.006 32.2903C206.177 32.3678 206.09 32.5486 205.964 32.6262C204.798 32.9459 203.555 33.0945 202.373 33.3496C201.178 33.5337 199.996 33.8793 198.794 33.9245L198.788 33.9277Z" fill="black"></path><path d="M251.843 9.00045C251.668 9.00045 251.623 8.74854 251.784 8.68394C252.214 8.58059 252.673 8.6032 253.115 8.56121C254.32 8.49016 255.521 8.43525 256.726 8.38357C256.842 8.37388 256.971 8.42233 257.042 8.51599C257.133 8.95524 256.093 8.76146 255.812 8.83251C254.494 8.89065 253.164 8.95524 251.846 9.00045H251.843Z" fill="black"></path><path d="M251.494 13.1444C251.458 12.76 252.007 12.886 252.253 12.8246C253.396 12.7309 254.542 12.6567 255.686 12.5695C255.892 12.5598 256.17 12.4855 256.299 12.6954C256.312 12.9054 256.031 12.9409 255.87 12.9441C254.484 13.0475 253.099 13.1508 251.72 13.2962C251.62 13.3123 251.519 13.2412 251.494 13.1411V13.1444Z" fill="black"></path><path d="M252.572 15.9802C252.198 15.9027 250.625 16.1901 250.706 15.6766C250.725 15.5603 250.828 15.4699 250.945 15.4731C252.799 15.486 254.652 15.4376 256.503 15.4473C257.469 15.4441 258.438 15.4473 259.407 15.4408C259.658 15.3859 260.098 15.6637 259.775 15.8865C259.239 16.09 258.599 15.9221 258.031 15.977C256.212 15.977 254.391 15.9899 252.572 15.977V15.9802Z" fill="black"></path><path d="M252.476 17.7432C252.214 17.7012 252.243 17.3007 252.511 17.3039C252.996 17.3395 253.486 17.2781 253.971 17.2716C256.138 17.2555 258.347 17.0262 260.492 17.1392C260.56 17.178 260.656 17.2587 260.624 17.3492C260.388 17.7303 259.726 17.5106 259.342 17.5849C257.055 17.6269 254.762 17.7852 252.476 17.7464V17.7432Z" fill="black"></path><path d="M262.481 21.0087C260.211 20.9344 257.937 20.8763 255.667 20.7988C255.218 20.7794 254.769 20.7568 254.317 20.7374C254.22 20.7342 254.136 20.6631 254.126 20.5663C254.113 20.4661 254.191 20.3563 254.297 20.3499C257.078 20.4242 259.856 20.5759 262.64 20.6373C263.231 20.7051 262.943 21.0927 262.485 21.0087H262.481Z" fill="black"></path><path d="M264.148 23.0272C261.551 22.8496 258.954 22.7043 256.355 22.5395C255.912 22.5234 255.964 21.8484 256.406 21.9065C259.08 22.1617 261.761 22.307 264.439 22.5072C265.068 22.7139 264.619 23.1435 264.148 23.0272Z" fill="black"></path><path d="M270.765 25.2976C266.557 25.2782 262.352 25.3331 258.144 25.2588C257.817 25.2976 257.782 24.7776 258.118 24.7776C262.41 24.7098 266.699 24.7453 270.991 24.7453C271.88 24.7841 271.518 25.4268 270.765 25.2976Z" fill="black"></path><path d="M276.085 27.1903C271.615 27.1386 267.148 27.1095 262.681 26.9965C262.362 26.9933 262.388 26.483 262.714 26.5217C266.402 26.5411 270.094 26.6315 273.782 26.6638C274.619 26.6767 275.458 26.6767 276.295 26.6897C276.44 26.6993 276.634 26.793 276.64 26.9545C276.573 27.1838 276.285 27.2064 276.082 27.187L276.085 27.1903Z" fill="black"></path><path d="M274.632 29.7967C271.105 29.5835 267.559 29.3736 264.045 29.0635C263.864 29.0377 263.88 28.7567 264.067 28.7599C267.594 28.8213 271.118 29.0312 274.638 29.2573C275.249 29.2508 275.274 29.8516 274.632 29.7934V29.7967Z" fill="black"></path><path d="M275.303 31.9281C272.474 31.912 269.645 31.9184 266.816 31.8765C266.612 31.8506 266.632 31.5276 266.842 31.5373C266.925 31.5438 267.009 31.5406 267.097 31.5406C269.991 31.5244 272.891 31.4889 275.778 31.5406C276.007 31.5987 276.088 31.8054 275.823 31.9055C275.655 31.9572 275.475 31.9184 275.3 31.9281H275.303Z" fill="black"></path><path d="M268.841 34.2443C268.692 33.8115 269.354 33.8922 269.613 33.8567C272.161 33.7404 274.712 33.7759 277.264 33.7533C278.065 33.7533 278.863 33.7533 279.66 33.7598C279.783 33.7695 279.909 33.8276 279.977 33.931C280.093 34.1441 279.748 34.2766 279.576 34.2539C276.153 34.2572 272.726 34.241 269.306 34.3185C269.148 34.325 268.944 34.4219 268.844 34.2443H268.841Z" fill="black"></path><path d="M271.586 36.353C271.586 36.1592 271.777 36.0203 271.961 36.0494C273.811 35.946 275.665 35.8782 277.519 35.8007C278.953 35.7393 280.39 35.6812 281.824 35.6198C282.057 35.594 282.325 35.6037 282.467 35.8168C282.622 36.4402 281.527 36.2302 281.165 36.2981C279.802 36.353 278.443 36.4111 277.077 36.4693C275.368 36.5371 273.656 36.6178 271.948 36.6566C271.767 36.6856 271.583 36.55 271.586 36.3497V36.353Z" fill="black"></path><path d="M274.396 38.091C274.36 37.6679 274.829 37.697 275.126 37.6937C276.237 37.6453 277.38 37.6065 278.482 37.5516C278.75 37.5452 279.076 37.458 279.273 37.697C279.463 37.9844 279.002 38.1685 278.766 38.1459C277.438 38.2396 276.108 38.3074 274.78 38.3914C274.596 38.4172 274.419 38.2783 274.399 38.091H274.396Z" fill="black"></path><path d="M205.292 40.6972C202.234 40.6197 199.169 40.61 196.113 40.4776C195.774 40.5293 195.619 40.0997 196.023 40.09C199.259 40.132 202.495 40.2225 205.728 40.2806C205.967 40.3161 206.132 40.5519 205.835 40.6714C205.664 40.7328 205.473 40.6875 205.296 40.6972H205.292Z" fill="black"></path><path d="M193.885 43.6265C193.853 43.2971 194.205 43.2874 194.444 43.2519C196.169 42.9967 197.916 42.9418 199.65 42.8029C202.011 42.635 204.372 42.4671 206.736 42.3379C206.969 42.3088 207.385 42.3023 207.402 42.6124C207.301 42.916 206.937 42.8772 206.675 42.8934C204.869 42.9935 203.054 43.1098 201.246 43.2422C198.946 43.4392 196.63 43.5296 194.347 43.8558C194.156 43.9398 193.914 43.8494 193.885 43.6233V43.6265Z" fill="black"></path><path d="M194.205 45.713C194.056 45.5967 194.134 45.3319 194.327 45.3286C195.228 45.2285 196.13 45.1349 197.034 45.0606C198.549 44.9282 200.067 44.8151 201.581 44.6924C201.762 44.6665 201.985 44.6762 202.092 44.8506C202.147 45.2091 201.62 45.1736 201.378 45.1995C198.998 45.3319 196.566 45.7098 194.208 45.713H194.205Z" fill="black"></path><path d="M192.451 47.7801C192.419 47.2601 193.052 47.3602 193.401 47.3118C195.009 47.1987 196.624 47.1794 198.236 47.1019C199.166 47.0631 200.102 47.0243 201.033 46.9888C201.356 46.9727 202.105 46.8758 201.998 47.3861C201.869 47.6122 201.604 47.6509 201.365 47.6412C199.815 47.6994 198.194 47.7672 196.672 47.8479C195.406 47.9448 194.127 47.9545 192.868 48.1063C192.671 48.1418 192.474 47.9739 192.451 47.7801Z" fill="black"></path><path d="M193.969 50.5803C193.946 50.393 194.088 50.1863 194.289 50.1734C195.203 50.1056 196.117 50.0313 197.031 49.9699C198.865 49.8375 200.696 49.6889 202.531 49.5565C202.857 49.5597 203.28 49.395 203.526 49.6857C203.771 50.2929 202.592 50.1476 202.25 50.2154C200.864 50.3155 199.479 50.4253 198.097 50.5384C196.856 50.6546 195.613 50.7321 194.376 50.8936C194.182 50.9291 193.992 50.7644 193.969 50.5771V50.5803Z" fill="black"></path><path d="M189.47 53.6289C189.296 53.0185 190.568 53.1896 190.936 53.0766C194.176 52.8021 197.425 52.6503 200.667 52.3887C201.911 52.3241 203.161 52.1529 204.401 52.1529C204.604 52.2013 204.74 52.4306 204.521 52.5695C204.21 52.7536 203.81 52.6664 203.461 52.7246C199.766 52.9862 196.075 53.2607 192.386 53.574C191.508 53.6483 190.617 53.6773 189.744 53.813C189.628 53.813 189.518 53.7419 189.473 53.6289H189.47Z" fill="black"></path><path d="M187.364 56.0999C187.3 55.8544 187.474 55.6089 187.723 55.5734C188.624 55.4539 189.528 55.3473 190.436 55.2634C191.553 55.1632 192.667 55.047 193.782 54.9307C194.098 54.8952 194.628 54.7886 194.715 55.2085C194.686 55.4765 194.379 55.5863 194.143 55.5993C192.044 55.8221 189.932 56.074 187.855 56.4067C187.642 56.439 187.422 56.3227 187.364 56.0999Z" fill="black"></path><path d="M185.649 58.5865C185.588 58.3507 185.756 58.1053 185.998 58.0762C186.886 57.9567 187.771 57.7887 188.662 57.6822C193.016 57.1783 197.373 56.4742 201.733 56.119C202.463 56.4129 201.759 56.907 201.268 56.8586C199.669 57.0362 198.074 57.2332 196.475 57.4335C193.132 57.8695 189.78 58.2538 186.456 58.8126C186.162 58.8965 185.752 58.9708 185.652 58.5833L185.649 58.5865Z" fill="black"></path><path d="M185.187 60.1046C185.174 59.9981 185.249 59.8785 185.359 59.8592C185.772 59.8043 186.192 59.7784 186.605 59.7332C189.825 59.4006 193.055 59.1777 196.281 58.9032C197.431 58.8095 198.584 58.7158 199.734 58.6222C200.028 58.6125 200.509 58.4704 200.613 58.8483C200.587 59.0937 200.296 59.168 200.086 59.1712C198.135 59.3263 196.185 59.4878 194.231 59.6492C191.537 59.8689 188.843 60.1337 186.143 60.2758C185.843 60.2306 185.304 60.489 185.184 60.1079L185.187 60.1046Z" fill="black"></path><path d="M184.383 62.598C184.312 62.0263 185.691 62.2363 186.085 62.1297C187.493 62.036 188.901 61.9682 190.31 61.8842C192.574 61.7486 194.838 61.6032 197.099 61.474C197.276 61.4547 197.489 61.5096 197.567 61.6872C197.58 62.0199 197.14 62.0199 196.895 62.0263C194.169 62.1878 191.443 62.3461 188.721 62.5431C187.422 62.6529 186.117 62.7013 184.822 62.8531C184.635 62.921 184.406 62.8112 184.383 62.598Z" fill="black"></path><path d="M182.926 66.7192C182.565 66.577 182.771 66.1378 183.12 66.1927C184.822 65.9343 186.531 65.7179 188.236 65.5016C190.339 65.2303 192.438 64.9557 194.541 64.6973C194.721 64.6586 194.951 64.6973 195.048 64.875C195.061 65.3659 194.273 65.2303 193.946 65.3207C193.032 65.437 192.122 65.5532 191.208 65.6695C188.443 65.9828 185.694 66.506 182.923 66.7192H182.926Z" fill="black"></path><path d="M184.916 68.486C184.764 68.486 184.69 68.2761 184.816 68.1889C185.026 68.1081 185.275 68.1243 185.498 68.0758C188.065 67.7205 190.636 67.4234 193.21 67.1263C193.533 67.1327 193.95 66.9131 194.208 67.1779C194.292 67.5074 193.769 67.4912 193.553 67.5203C190.672 67.8271 187.797 68.2438 184.913 68.4892L184.916 68.486Z" fill="black"></path><path d="M185.862 70.4207C185.849 70.3238 185.924 70.2301 186.024 70.2172C186.906 70.1171 187.778 69.9556 188.659 69.8425C188.982 69.8813 192.296 69.1352 191.595 69.8974C190.093 70.2656 188.446 70.2753 186.896 70.4852C186.615 70.4562 185.972 70.7598 185.866 70.4174L185.862 70.4207Z" fill="black"></path><path d="M187.494 71.7963C187.458 71.6575 187.545 71.4928 187.69 71.4605C188.553 71.2796 189.435 71.1698 190.31 71.0503C192.706 70.8081 195.132 70.2945 197.522 70.2299C197.961 70.4463 197.499 70.8113 197.183 70.7887C195.364 70.9986 193.546 71.2311 191.731 71.4637C190.433 71.651 189.118 71.7544 187.829 71.9934C187.687 72.0354 187.529 71.9385 187.494 71.7963Z" fill="black"></path><path d="M185.465 76.7769C185.297 76.2731 186.612 76.3538 186.928 76.2375C190.1 75.8177 193.278 75.4495 196.456 75.0587C196.769 75.049 197.102 74.9198 197.409 75.0005C197.593 75.0748 197.619 75.2234 197.444 75.3397C195.726 75.6788 193.921 75.7628 192.177 76.0276C190.116 76.2989 188.03 76.5314 185.979 76.8609C185.782 76.8964 185.569 77.003 185.462 76.7769H185.465Z" fill="black"></path><path d="M186.812 78.3171C186.812 78.1911 186.909 78.0974 187.002 78.0813C187.461 77.9844 187.907 77.8907 188.336 77.81C190.264 77.4418 192.205 77.1156 194.143 76.7894C195.106 76.6473 196.065 76.4244 197.031 76.3308C197.379 76.376 197.46 76.7022 197.131 76.8702C193.862 77.4967 190.507 77.9909 187.225 78.527C187.051 78.5948 186.815 78.5431 186.812 78.3171Z" fill="black"></path><path d="M186.883 80.8426C186.686 80.7845 186.595 80.5035 186.763 80.3614C187.61 80.032 188.559 79.9254 189.447 79.6993C191.301 79.3117 193.158 78.9339 195.015 78.5624C195.196 78.514 195.422 78.5366 195.545 78.6916C195.668 78.908 195.393 79.118 195.196 79.1502C192.422 79.6767 189.647 80.3388 186.883 80.8426Z" fill="black"></path><path d="M189.744 82.4835C189.709 81.873 190.943 82.0798 191.363 81.9603C192.057 81.9215 192.751 81.8246 193.446 81.7988C193.552 81.8149 193.678 81.8731 193.733 81.9699C193.83 82.1993 193.52 82.3478 193.326 82.3575C192.619 82.4286 191.912 82.5222 191.208 82.6224C190.775 82.5901 189.887 83.0842 189.741 82.4835H189.744Z" fill="black"></path><path d="M190.116 84.1821C190.08 83.9366 190.303 83.7364 190.539 83.7525C191.579 83.6847 192.615 83.5781 193.652 83.4683C193.872 83.4295 194.275 83.5684 194.159 83.8494C194.072 84.0109 193.91 84.0916 193.73 84.111C193.274 84.1627 192.822 84.2111 192.367 84.2693C191.737 84.3436 191.11 84.4275 190.484 84.518C190.3 84.518 190.135 84.3629 190.112 84.1821H190.116Z" fill="black"></path><path d="M192.021 86.4371C191.973 86.2498 192.089 86.043 192.283 85.9978C192.935 85.8331 193.598 85.6975 194.266 85.5941C194.715 85.6038 196.482 84.9288 196.411 85.6845C196.34 85.859 196.175 85.9688 195.994 86.0011C195.254 86.127 194.508 86.2691 193.775 86.4112C193.31 86.4984 192.91 86.5695 192.464 86.6955C192.28 86.7536 192.07 86.6212 192.025 86.4371H192.021Z" fill="black"></path><path d="M191.531 88.4682C191.479 88.2841 191.615 88.0903 191.805 88.0677C192.677 87.9289 193.556 87.8384 194.434 87.7383C195.397 87.6963 196.504 87.3346 197.431 87.4605C198.135 88.0451 195.994 88.0581 195.661 88.1485C194.434 88.3197 193.194 88.5102 191.973 88.6879C191.795 88.7621 191.579 88.6556 191.534 88.465L191.531 88.4682Z" fill="black"></path><path d="M190.035 90.2575C190.003 90.1283 190.093 89.9927 190.226 89.9765C191.104 89.8118 191.986 89.6665 192.864 89.5308C193.652 89.4178 194.441 89.2724 195.232 89.1852C195.371 89.1917 195.571 89.2692 195.577 89.4307C195.539 89.6277 195.335 89.7246 195.151 89.744C193.533 89.9927 191.915 90.2091 190.294 90.4255C190.3 90.4255 190.306 90.4222 190.313 90.419C190.319 90.419 190.329 90.4158 190.335 90.4125C190.213 90.4545 190.067 90.3964 190.032 90.2575H190.035Z" fill="black"></path><path d="M228.989 71.9709C228.925 71.6641 229.267 71.6479 229.48 71.6092C230.139 71.5284 230.804 71.4154 231.463 71.3799C231.683 71.4154 231.87 71.6027 231.641 71.7836C231.376 71.9677 231.008 71.8999 230.698 71.9645C230.194 72.0226 229.703 72.0549 229.238 72.1615C229.128 72.1615 229.018 72.0872 228.989 71.9709Z" fill="black"></path><path d="M226.609 75.3877C226.518 74.9517 228.834 74.7644 229.238 74.6514C231.76 74.2832 234.283 73.9344 236.811 73.6049C237.115 73.6082 237.516 73.3918 237.758 73.6372C237.784 73.6792 237.745 73.7341 237.716 73.7664C236.417 74.1475 234.412 74.2057 232.978 74.4834C230.917 74.8258 228.818 75.0131 226.78 75.4782C226.709 75.4976 226.635 75.4556 226.605 75.391L226.609 75.3877Z" fill="black"></path><path d="M225.297 77.7164C225.281 77.5969 225.381 77.4839 225.504 77.4871C227.325 77.1803 229.157 76.9606 230.991 76.7346C233.394 76.4439 235.797 76.1597 238.206 75.9078C238.374 75.8787 238.684 75.9659 238.626 76.1823C238.426 76.5149 237.948 76.389 237.619 76.4665C235.103 76.741 232.587 77.0382 230.071 77.3353C228.556 77.5162 227.035 77.6647 225.527 77.8908C225.417 77.8973 225.313 77.8262 225.3 77.7132L225.297 77.7164Z" fill="black"></path><path d="M224.7 79.9998C224.548 79.9804 224.519 79.7575 224.664 79.7026C224.755 79.6736 224.852 79.6703 224.945 79.6509C228.492 79.0664 232.073 78.7499 235.645 78.3752C236.424 78.3461 237.234 78.1201 238 78.2169C238.226 78.3138 238.106 78.5302 237.916 78.5851C233.514 79.047 229.092 79.441 224.7 80.003V79.9998Z" fill="black"></path><path d="M222.342 83.9694C222.265 83.866 222.258 83.7239 222.326 83.6141C222.381 83.5237 222.475 83.472 222.575 83.4655C222.572 83.4655 222.565 83.4655 222.562 83.4655C222.549 83.4655 222.536 83.472 222.523 83.472C227.155 82.587 231.857 81.9895 236.53 81.3597C236.711 81.363 236.976 81.5471 236.805 81.7344C236.353 82.08 235.668 81.9476 235.129 82.0864C231.253 82.6193 227.377 83.2072 223.524 83.8854C223.159 83.8854 222.617 84.2697 222.342 83.9661V83.9694Z" fill="black"></path><path d="M221.17 86.9404C220.914 86.8758 220.869 86.4947 221.105 86.3752C221.224 86.3074 221.392 86.3591 221.509 86.3171C221.651 86.2912 221.77 86.2686 221.893 86.246C225.575 85.6356 229.305 85.3837 233.013 84.9477C235.161 84.7216 237.309 84.5052 239.46 84.3243C239.876 84.2726 240.115 84.699 239.598 84.8443C233.452 85.416 227.264 86.0264 221.17 86.9372V86.9404Z" fill="black"></path><path d="M222.837 89.4147C222.762 88.9787 223.347 89.011 223.628 88.9076C225.227 88.5491 226.851 88.3295 228.466 88.0582C230.921 87.6545 233.375 87.2605 235.836 86.902C236.066 86.8438 236.544 86.8341 236.495 87.1733C236.411 87.3541 236.217 87.4381 236.03 87.4478C234.37 87.6836 232.716 87.9452 231.059 88.2132C228.511 88.646 225.947 89.0433 223.415 89.5697C223.205 89.6472 222.908 89.6925 222.837 89.4115V89.4147Z" fill="black"></path><path d="M222.849 92.3824C222.523 92.2015 222.72 91.8592 223.024 91.8011C223.799 91.5427 224.603 91.3747 225.401 91.1939C227.235 90.7966 229.067 90.3832 230.908 90.0247C231.069 89.9827 231.263 89.9892 231.376 90.1313C231.502 90.6157 230.414 90.5641 230.103 90.69C227.675 91.1583 225.217 91.8043 222.846 92.3824H222.849Z" fill="black"></path><path d="M221.751 93.7294C221.347 93.2514 224.428 93.1739 224.768 93.0803C228.378 92.725 231.989 92.4053 235.603 92.1049C236.382 92.0403 237.157 91.9789 237.935 91.9176C238.087 91.8982 238.362 91.9854 238.307 92.1727C238.174 92.4149 237.874 92.3665 237.641 92.3923C236.026 92.5183 234.412 92.6539 232.8 92.7961C229.134 93.0512 225.359 93.6035 221.748 93.7262L221.751 93.7359V93.7294Z" fill="black"></path><path d="M218.944 96.5008C218.899 96.3297 219.022 96.1811 219.164 96.1552C219.61 96.0616 220.075 95.9647 220.533 95.8904C223.776 95.4318 227.038 95.1347 230.29 94.7762C232.086 94.5921 233.885 94.4112 235.684 94.2626C235.9 94.2206 236.291 94.3111 236.233 94.5921C235.968 95.0281 235.326 94.8311 234.893 94.9344C231.67 95.2186 228.453 95.5707 225.236 95.9292C223.253 96.1843 221.247 96.3135 219.283 96.7075C219.148 96.7398 218.977 96.6656 218.938 96.5041L218.944 96.5008Z" fill="black"></path><path d="M221.26 99.3331C221.247 99.22 221.331 99.1037 221.447 99.094C223.256 98.8486 225.055 98.5191 226.87 98.2931C230.562 97.7828 234.26 97.3048 237.961 96.8623C238.901 96.7686 239.838 96.6072 240.777 96.5619C241.091 96.6072 241.181 96.8978 240.868 97.0561C236.537 97.6213 232.177 98.1122 227.839 98.7C225.724 98.9584 223.611 99.2426 221.499 99.5236C221.386 99.5365 221.273 99.4558 221.26 99.3363V99.3331Z" fill="black"></path><path d="M222.742 101.804C222.691 101.526 223.023 101.536 223.211 101.507C224.961 101.239 226.725 101.084 228.485 100.896C231.201 100.622 233.917 100.367 236.637 100.125C237.212 100.083 237.787 100.012 238.358 99.9857C238.484 99.9954 238.607 100.06 238.672 100.17C238.726 100.406 238.397 100.515 238.206 100.509C236.388 100.661 234.573 100.829 232.758 101C229.825 101.284 226.896 101.555 223.963 101.833C223.621 101.869 223.282 101.917 222.939 101.956C222.846 101.956 222.762 101.894 222.739 101.804H222.742Z" fill="black"></path><path d="M226.173 103.952C225.872 103.916 225.901 103.432 226.215 103.444C228.091 103.254 229.964 103.015 231.844 102.847C234.593 102.582 237.344 102.298 240.096 102.081C240.316 102.081 240.61 102.324 240.384 102.527C239.854 102.863 239.008 102.702 238.384 102.831C234.315 103.183 230.249 103.648 226.173 103.948V103.952Z" fill="black"></path><path d="M226.367 108.082C225.934 107.543 226.919 107.459 227.264 107.378C230.688 106.726 234.137 106.212 237.577 105.657C238.878 105.453 240.174 105.256 241.475 105.069C241.621 105.04 241.779 105.03 241.918 105.095C242.447 105.408 241.75 105.763 241.398 105.731C236.395 106.432 231.305 107.381 226.367 108.079V108.082Z" fill="black"></path><path d="M229.719 109.826C229.677 109.665 229.822 109.555 229.971 109.552C230.839 109.39 231.711 109.239 232.587 109.109C235.303 108.699 238.016 108.305 240.735 107.927C240.897 107.902 241.078 107.86 241.22 107.969C241.737 108.473 239.744 108.476 239.466 108.577C236.501 108.996 233.543 109.445 230.578 109.885C230.31 109.872 229.861 110.153 229.716 109.83L229.719 109.826Z" fill="black"></path><path d="M226.996 112.849C226.709 112.468 227.206 112.287 227.516 112.249C228.304 112.074 229.099 111.935 229.896 111.803C234.515 111.063 239.137 110.359 243.771 109.729C244.233 109.716 244.74 109.481 245.186 109.652C245.425 109.768 245.373 110.036 245.157 110.149C244.937 110.269 244.679 110.249 244.44 110.295C238.904 111.05 233.339 111.887 227.829 112.794C227.552 112.798 227.238 113.066 226.999 112.852L226.996 112.849Z" fill="black"></path><path d="M230.526 115.511C230.136 115.501 230.165 114.916 230.546 114.929C231.634 114.645 232.813 114.425 233.898 114.222C236.153 113.799 238.41 113.389 240.671 113.008C240.897 112.953 241.191 112.933 241.327 113.163C241.414 113.421 241.084 113.586 240.868 113.605C237.422 114.219 233.943 114.784 230.526 115.514V115.511Z" fill="black"></path><path d="M231.595 117.019C231.495 116.37 232.723 116.486 233.146 116.331C234.522 116.102 235.897 115.905 237.277 115.691C239.55 115.343 241.827 114.994 244.107 114.677C244.317 114.635 244.627 114.677 244.689 114.92C244.689 115.175 244.398 115.288 244.185 115.307C241.472 115.685 238.759 116.092 236.056 116.538C235.084 116.699 234.102 116.864 233.136 117.035C232.735 117.1 232.335 117.196 231.941 117.28C231.786 117.28 231.637 117.167 231.599 117.016L231.595 117.019Z" fill="black"></path><path d="M236.404 118.899C236.366 118.747 236.459 118.572 236.614 118.54C237.102 118.437 237.596 118.346 238.071 118.256C238.962 118.085 239.844 117.923 240.732 117.752C240.729 117.752 240.726 117.752 240.723 117.752C241.675 117.571 242.628 117.394 243.581 117.216C244.243 117.093 244.905 116.964 245.57 116.845C245.716 116.835 245.913 116.89 245.961 117.038C245.903 117.51 245.238 117.397 244.892 117.52C243.843 117.717 242.793 117.91 241.753 118.107C240.106 118.43 238.417 118.718 236.763 119.102C236.611 119.138 236.446 119.047 236.404 118.889V118.899Z" fill="black"></path><path d="M235.145 120.426C235.067 120.052 235.468 120.036 235.713 119.99C239.466 119.283 243.268 118.854 247.05 118.356C247.347 118.253 247.99 118.45 247.631 118.824C247.528 118.928 247.392 118.96 247.253 118.979C245.993 119.135 244.744 119.296 243.484 119.464C240.829 119.842 238.158 120.187 235.52 120.652C235.361 120.698 235.184 120.591 235.145 120.43V120.426Z" fill="black"></path><path d="M243.374 121.453C243.222 120.807 244.272 120.927 244.669 120.785C245.312 120.678 245.958 120.539 246.601 120.443C246.72 120.443 246.833 120.472 246.927 120.549C247.195 120.801 246.746 121.076 246.504 121.079C245.938 121.185 245.438 121.282 244.886 121.395C244.485 121.463 244.085 121.576 243.691 121.667C243.555 121.667 243.429 121.589 243.374 121.457V121.453Z" fill="black"></path><path d="M275.168 43.691C275.155 43.6264 275.184 43.5489 275.245 43.5198C275.53 43.3939 275.856 43.3745 276.159 43.3164C278.058 43.0741 279.99 42.7253 281.892 42.6575C282.325 42.8384 281.879 43.1678 281.585 43.1355C280.381 43.2679 279.179 43.41 277.974 43.5457C277.096 43.6522 276.214 43.7136 275.336 43.817C275.258 43.8363 275.171 43.7717 275.165 43.691H275.168Z" fill="black"></path><path d="M272.917 46.5558C272.781 46.3814 272.897 46.094 273.12 46.0746C274.024 45.8324 274.968 45.7419 275.891 45.6063C277.693 45.3673 279.492 45.096 281.288 44.8247C282.086 44.7084 282.877 44.5792 283.675 44.4694C283.794 44.4662 283.936 44.5049 284.011 44.6051C284.133 45.0863 283.258 44.9959 282.968 45.0863C280.258 45.4868 277.555 45.9066 274.858 46.3782C274.293 46.4686 273.721 46.5494 273.165 46.6753C273.072 46.6753 272.978 46.6333 272.92 46.5526L272.917 46.5558Z" fill="black"></path><path d="M272.823 48.9943C272.687 48.7262 273.023 48.6132 273.23 48.5809C275.807 48.0544 278.42 47.7282 281.017 47.3019C281.588 47.2276 282.157 47.1017 282.728 47.0564C282.838 47.0694 282.951 47.1178 283.006 47.2179C283.048 47.4537 282.728 47.5506 282.541 47.557C279.479 48.006 276.401 48.5518 273.353 49.0427C273.172 49.0621 272.939 49.1978 272.82 48.9943H272.823Z" fill="black"></path><path d="M271.228 51.827C271.085 51.7236 271.111 51.4782 271.273 51.4103C271.408 51.3651 271.567 51.3457 271.693 51.3167C273.498 50.9808 275.326 50.7644 277.141 50.4931C278.165 50.351 279.192 50.1895 280.219 50.0603C280.523 50.0635 280.687 50.3316 280.361 50.4995C278.042 50.8936 275.688 51.1778 273.362 51.5654C272.691 51.6687 272.022 51.7462 271.376 51.8819C271.324 51.8819 271.273 51.8657 271.228 51.827Z" fill="black"></path><path d="M270.417 54.0683C270.397 53.9262 270.52 53.7809 270.665 53.7873C272.477 53.4837 274.308 53.2996 276.133 53.0832C278.065 52.8604 279.993 52.6408 281.924 52.4405C282.153 52.4179 282.438 52.3469 282.602 52.5633C282.719 52.9476 282.131 52.9476 281.879 52.9767C280.745 53.0962 279.612 53.2221 278.478 53.3481C275.897 53.6581 273.307 53.9133 270.733 54.2783C270.591 54.3235 270.433 54.2169 270.417 54.0683Z" fill="black"></path><path d="M271.257 55.9929C271.089 55.9218 271.114 55.6699 271.286 55.6279C272.19 55.5149 273.104 55.4309 274.015 55.3534C275.468 55.2371 276.921 55.1338 278.378 55.0401C278.788 55.0886 280.035 54.6816 280.029 55.3017C279.757 55.7377 279.108 55.5246 278.669 55.6215C276.201 55.7506 273.718 56.0316 271.253 55.9961L271.257 55.9929Z" fill="black"></path><path d="M269.225 59.0971C268.899 58.5254 270.443 58.5448 270.775 58.4124C274.173 57.8472 277.606 57.4725 281.033 57.1237C281.262 57.1173 281.498 57.0365 281.724 57.1108C281.954 57.1948 281.963 57.4112 281.744 57.5242C280.649 57.7471 279.489 57.7503 278.372 57.9118C275.429 58.2832 272.442 58.5771 269.542 59.1681C269.435 59.2198 269.296 59.1908 269.225 59.0971Z" fill="black"></path><path d="M268.262 61.6C268.188 61.3028 268.466 61.122 268.731 61.1155C272.219 60.5212 275.726 60.04 279.227 59.5103C279.702 59.4328 280.002 59.914 279.466 60.1369C277.9 60.4082 276.314 60.602 274.738 60.8571C272.748 61.1865 270.733 61.4352 268.756 61.8486C268.556 61.9229 268.32 61.8163 268.262 61.6Z" fill="black"></path><path d="M266.641 64.3549C266.612 64.2419 266.683 64.1256 266.796 64.0965C267.694 63.906 268.611 63.8026 269.522 63.6734C273.059 63.2245 276.602 62.7207 280.145 62.3718C280.351 62.4009 280.519 62.6173 280.293 62.7626C279.57 63.0275 278.717 62.9661 277.948 63.1115C274.744 63.4958 271.544 63.9157 268.34 64.3064C267.843 64.3678 267.345 64.4356 266.854 64.5132C266.757 64.5132 266.667 64.455 266.641 64.3549Z" fill="black"></path><path d="M266.26 67.2325C266.179 66.7384 266.832 66.8062 267.151 66.7093C268.744 66.4186 270.349 66.1893 271.944 65.9277C273.75 65.6403 275.555 65.3561 277.364 65.0815C277.939 65.0137 278.514 64.8716 279.089 64.8458C279.321 64.8716 279.547 65.1074 279.315 65.3076C279.211 65.4077 279.079 65.4465 278.94 65.4626C278.058 65.5918 277.177 65.7243 276.295 65.8599C273.307 66.3218 270.291 66.8094 267.319 67.3327C266.971 67.3488 266.428 67.6847 266.26 67.2293V67.2325Z" fill="black"></path><path d="M267.061 70.0941C267.032 69.9875 267.1 69.8583 267.213 69.8357C269.025 69.5676 270.853 69.4126 272.674 69.2091C275.633 68.9604 278.611 68.4986 281.562 68.3565C281.795 68.434 281.808 68.6697 281.582 68.7828C281.155 68.9314 280.671 68.8926 280.222 68.9669C276.22 69.3641 272.225 69.8195 268.217 70.149C267.901 70.178 267.581 70.1909 267.268 70.2523C267.174 70.2523 267.087 70.1813 267.064 70.0941H267.061Z" fill="black"></path><path d="M268.585 72.5877C268.188 72.3551 268.518 71.7189 268.941 71.9159C270.765 71.735 272.593 71.5961 274.418 71.4379C276.734 71.2344 279.05 71.0277 281.369 70.821C281.821 70.7887 282.273 70.7306 282.725 70.7047C282.922 70.6983 283.261 70.9082 283.084 71.1278C283.003 71.228 282.893 71.3022 282.761 71.3216C282.199 71.3765 281.64 71.4217 281.075 71.4702C279.244 71.6317 277.409 71.7932 275.578 71.9643C273.256 72.1194 270.878 72.5328 268.585 72.5844V72.5877Z" fill="black"></path><path d="M272.232 75.5495C272.209 75.0198 272.875 75.1522 273.224 75.0844C274.816 74.9649 276.408 74.868 278 74.7582C281.837 74.5289 285.684 74.1219 289.514 73.9572C290.005 74.1348 289.605 74.5289 289.24 74.4901C287.864 74.5902 286.491 74.6904 285.115 74.7937C281.414 75.0682 277.716 75.3492 274.018 75.6884C273.537 75.7271 273.059 75.7788 272.584 75.8628C272.41 75.8628 272.251 75.7336 272.229 75.5527L272.232 75.5495Z" fill="black"></path><path d="M274.296 77.8258C274.26 77.674 274.405 77.5836 274.544 77.5965C275.797 77.519 277.054 77.4221 278.307 77.3478C281.74 77.1508 285.173 76.9215 288.591 76.7794C288.93 76.8472 288.884 77.125 288.565 77.1928C284.227 77.4286 279.848 77.6837 275.491 77.9066C275.491 77.9066 275.491 77.9066 275.494 77.9066C275.497 77.9066 275.5 77.9066 275.507 77.9066C275.165 77.9259 274.809 77.9421 274.467 77.9615C274.386 77.9615 274.312 77.9066 274.292 77.8258H274.296Z" fill="black"></path><path d="M275.517 81.0623C275.352 81.072 275.252 80.8491 275.394 80.749C275.471 80.6973 275.578 80.7038 275.665 80.6941C279.234 80.4745 282.819 80.5423 286.391 80.4938C286.759 80.5649 290.551 80.2452 289.456 80.904C284.815 80.9395 280.158 80.9718 275.513 81.0623H275.517Z" fill="black"></path><path d="M276.637 84.7249C276.592 84.5505 276.715 84.3761 276.892 84.3503C277.78 84.2308 278.665 84.1306 279.557 84.0434C283.122 83.7398 286.691 83.3297 290.257 83.1068C290.619 83.194 290.641 83.5267 290.283 83.6623C289.543 83.7818 288.778 83.7947 288.028 83.8787C284.363 84.2146 280.69 84.5279 277.031 84.9348C276.87 84.9801 276.679 84.9025 276.637 84.7249Z" fill="black"></path><path d="M279.686 87.1247C279.492 86.5853 280.28 86.6854 280.603 86.6144C282.244 86.4238 283.894 86.3205 285.541 86.1848C287.331 86.0395 289.12 85.878 290.909 85.7359C291.203 85.7359 292.166 85.5001 291.962 86.0362C291.623 86.3431 291.068 86.188 290.641 86.2785C288.807 86.427 286.975 86.5821 285.144 86.7565C283.442 86.9276 281.743 87.0827 280.044 87.2506C279.915 87.3023 279.757 87.2506 279.686 87.1247Z" fill="black"></path><path d="M281.805 90.0993C281.769 89.9669 281.863 89.8345 281.995 89.8183C283.798 89.5276 285.613 89.3274 287.428 89.1433C288.419 89.0335 289.411 88.9334 290.402 88.8332C290.59 88.8009 290.906 88.7977 290.945 89.0367C290.887 89.2725 290.603 89.2919 290.402 89.3048C288.245 89.5147 286.097 89.7763 283.946 90.0315C283.316 90.109 282.683 90.1833 282.054 90.2705C281.944 90.2834 281.831 90.2156 281.802 90.1025L281.805 90.0993Z" fill="black"></path><path d="M281.911 92.1759C281.872 91.8981 282.16 91.7463 282.392 91.7721C284.941 91.6365 287.399 91.5073 289.931 91.3458C290.17 91.3458 290.422 91.2715 290.648 91.3684C290.887 91.4621 290.903 91.7302 290.67 91.8464C289.776 92.0628 288.804 91.9756 287.88 92.0822C286.488 92.1662 285.096 92.2695 283.704 92.3761C283.226 92.4116 282.748 92.4439 282.273 92.4859C282.095 92.4859 281.937 92.3567 281.911 92.1726V92.1759Z" fill="black"></path><path d="M313.418 69.5321C313.363 68.8894 314.4 69.3739 313.776 69.7001C313.783 69.7001 313.789 69.6936 313.795 69.6904C313.653 69.7647 313.463 69.7033 313.418 69.5321Z" fill="black"></path><path d="M318.747 69.7322C318.747 69.6644 318.805 69.6095 318.873 69.6095C318.94 69.6095 318.999 69.6677 318.995 69.7355C318.995 69.8033 318.937 69.8582 318.869 69.8582C318.802 69.8582 318.743 69.8001 318.747 69.7322Z" fill="black"></path><path d="M312.526 71.2923C312.491 70.8563 313.24 70.9047 313.337 71.2374C313.304 71.5636 312.568 71.6766 312.526 71.2923Z" fill="black"></path><path d="M312.658 73.7374C312.526 73.7277 312.381 73.7438 312.268 73.6631C312.08 73.5081 312.248 73.2432 312.468 73.2723C312.697 73.2626 313.011 73.2174 313.136 73.4628C313.185 73.6954 312.836 73.7697 312.662 73.7406L312.658 73.7374Z" fill="black"></path><path d="M311.402 76.6475C311.105 76.6798 311.082 76.2179 311.38 76.2179C311.751 76.2502 312.345 76.0274 312.607 76.3504C312.646 76.8122 311.699 76.5764 311.399 76.6475C311.399 76.6475 311.399 76.6475 311.402 76.6475Z" fill="black"></path><path d="M310.763 78.9631C310.514 78.9631 310.443 78.5949 310.679 78.5077C311.002 78.4915 311.631 78.3042 311.799 78.6724C311.706 79.1084 311.089 78.9049 310.766 78.9631H310.763Z" fill="black"></path><path d="M312.662 81.7858C312.116 81.7535 311.583 81.7082 311.07 81.6695C310.866 81.6436 310.459 81.6921 310.524 81.3756C310.553 81.2787 310.64 81.227 310.721 81.2302C311.241 81.2367 311.761 81.2302 312.284 81.2464C312.542 81.269 312.852 81.1915 313.053 81.395C313.282 81.6275 312.875 81.831 312.662 81.789V81.7858Z" fill="black"></path><path d="M308.55 84.3375C308.502 83.8369 309.69 84.063 310.039 83.9758C310.469 84.0178 311.079 83.7529 311.376 84.1599C311.431 84.7186 310.495 84.499 310.146 84.5507C309.697 84.5603 309.251 84.541 308.812 84.57C308.683 84.57 308.563 84.4764 308.547 84.3375H308.55Z" fill="black"></path><path d="M308.337 87.648C308.159 87.6254 308.043 87.4349 308.095 87.2702C308.224 86.931 308.696 87.057 308.98 87.0053C309.451 86.9762 309.904 86.9666 310.372 86.9536C310.572 86.9375 310.808 86.9472 310.937 87.1248C311.131 87.4446 310.64 87.6061 310.391 87.5802C309.707 87.6028 309.022 87.6577 308.337 87.648Z" fill="black"></path><path d="M312.772 90.0312C310.847 89.9311 308.919 89.8891 306.994 89.7534C306.781 89.7405 306.425 89.7535 306.461 89.4466C306.477 89.3336 306.583 89.2335 306.7 89.2399C307.594 89.2787 308.489 89.2948 309.384 89.3497C310.627 89.4176 311.874 89.4821 313.117 89.5403C313.253 89.5435 313.382 89.6049 313.463 89.7179C313.592 90.0893 312.994 90.0538 312.768 90.028L312.772 90.0312Z" fill="black"></path><path d="M305.708 92.8993C305.682 92.5408 306.008 92.4729 306.28 92.4891C307.058 92.4536 307.843 92.4019 308.621 92.3857C308.851 92.4116 309.138 92.6473 308.918 92.8702C308.563 93.1835 308.011 93.0155 307.575 93.0963C307.074 93.1286 306.567 93.1576 306.067 93.2093C305.889 93.2093 305.727 93.0898 305.702 92.896L305.708 92.8993Z" fill="black"></path><path d="M304.939 95.2763C304.875 95.1148 304.981 94.934 305.156 94.9114C305.828 94.8629 306.509 94.8597 307.184 94.8468C307.452 94.7822 307.995 95.0115 307.598 95.2796C306.877 95.4669 306.031 95.3538 305.295 95.4217C305.162 95.483 304.998 95.4055 304.943 95.2731L304.939 95.2763Z" fill="black"></path><path d="M304.09 97.7792C303.861 97.2108 304.539 97.1947 304.923 97.1947C305.592 97.2237 306.354 96.9944 306.977 97.256C307.048 97.3045 307.132 97.4175 307.097 97.5112C306.948 97.8988 306.47 97.8051 306.138 97.8471C305.527 97.902 304.978 97.8826 304.413 97.9666C304.284 97.9666 304.155 97.8955 304.09 97.7792Z" fill="black"></path><path d="M304.723 99.5973C304.7 99.4132 304.891 99.3648 305.036 99.3745C305.492 99.3454 305.941 99.326 306.396 99.3099C306.838 99.3648 307.439 99.1 307.788 99.4294C307.846 99.5812 307.617 99.6813 307.494 99.6942C306.632 99.7362 305.766 99.7621 304.907 99.7621C304.817 99.7621 304.736 99.6846 304.726 99.5941L304.723 99.5973Z" fill="black"></path><path d="M303.137 102.601C303.108 102.311 303.428 102.304 303.635 102.304C304.184 102.285 304.746 102.236 305.292 102.282C305.376 102.307 305.453 102.353 305.505 102.42C305.673 102.953 304.319 102.701 304.006 102.779C303.732 102.747 303.228 102.982 303.137 102.598V102.601Z" fill="black"></path><path d="M304.116 105.224C303.745 105.273 303.69 104.714 304.071 104.704C304.291 104.707 304.51 104.711 304.73 104.711C304.93 104.698 305.214 104.717 305.282 104.95C305.156 105.392 304.449 105.147 304.097 105.224C304.103 105.224 304.11 105.224 304.116 105.224Z" fill="black"></path><path d="M304.691 107.53C304.355 107.462 303.696 107.714 303.647 107.217C303.657 106.894 303.996 106.913 304.232 106.916C304.494 106.926 304.762 106.862 305.014 106.942C305.556 107.172 305.104 107.601 304.691 107.53Z" fill="black"></path><path d="M302.789 109.513C302.456 109.077 303.195 109.09 303.46 109.061C304.077 109.013 304.701 108.909 305.317 108.929C305.379 108.948 305.44 108.974 305.485 109.019C306.009 109.636 303.351 109.452 303.037 109.542C302.953 109.565 302.863 109.578 302.789 109.517V109.513Z" fill="black"></path><path d="M302.718 111.735C302.682 111.37 303.131 111.341 303.393 111.39C303.935 111.567 303.486 112.003 303.108 111.99C303.118 111.99 303.124 111.987 303.134 111.984C302.95 112.039 302.737 111.936 302.714 111.732L302.718 111.735Z" fill="black"></path><path d="M304.116 113.276C304.112 113.218 304.216 113.247 304.183 113.295C304.164 113.324 304.112 113.311 304.116 113.276Z" fill="black"></path><path d="M228.172 124.683C227.484 124.108 229.328 124.16 229.619 124.118C230.878 124.099 232.164 123.985 233.413 124.076C233.604 124.144 233.711 124.354 233.497 124.473C231.77 124.719 229.896 124.441 228.172 124.683Z" fill="black"></path><path d="M235.048 126.434C232.564 126.227 229.977 126.243 227.539 125.872C227.384 125.681 227.597 125.471 227.81 125.533C230.316 125.694 232.836 125.791 235.335 126.004C235.791 126.211 235.378 126.515 235.051 126.434H235.048Z" fill="black"></path><path d="M225.714 127.787C225.772 127.671 225.918 127.654 226.031 127.635C226.841 127.538 227.678 127.554 228.489 127.519C229.625 127.486 230.759 127.464 231.896 127.448C232.041 127.445 232.203 127.435 232.319 127.538C232.849 128.097 229.997 127.816 229.684 127.906C228.427 127.961 227.187 127.906 225.95 128.039C225.805 128.097 225.637 127.932 225.714 127.78V127.787Z" fill="black"></path><path d="M222.339 131.317C222.016 131.311 222.029 130.8 222.352 130.81C223.25 130.771 224.154 130.762 225.055 130.762C227.07 130.771 229.095 130.697 231.104 130.745C231.221 130.784 231.408 130.897 231.321 131.036C231.098 131.336 230.649 131.168 230.329 131.21C227.668 131.223 225.003 131.272 222.342 131.317H222.339Z" fill="black"></path><path d="M227.119 132.88C225.236 132.793 223.353 132.687 221.467 132.648C221.328 132.648 221.218 132.519 221.225 132.386C221.231 132.247 221.348 132.144 221.487 132.144C223.302 132.199 225.12 132.305 226.935 132.383C227.155 132.409 227.397 132.36 227.594 132.477C227.991 132.777 227.384 132.958 227.122 132.884L227.119 132.88Z" fill="black"></path><path d="M220.253 135.161C220.149 135.128 220.068 135.025 220.078 134.915C220.143 134.499 220.827 134.689 221.138 134.618C223.418 134.528 225.659 134.505 227.936 134.473C228.844 134.463 229.751 134.453 230.659 134.45C230.959 134.398 231.408 134.731 231.014 134.973C227.481 135.222 223.802 135.06 220.253 135.164V135.161Z" fill="black"></path><path d="M233.869 137.273C230.445 137.143 227.025 137.046 223.605 136.904C223.388 136.872 223.421 136.526 223.644 136.539C227.219 136.588 230.814 136.63 234.376 136.856C234.896 137.179 234.205 137.35 233.869 137.273Z" fill="black"></path><path d="M225.766 139.249C225.64 139.191 225.559 139.055 225.566 138.92C225.611 138.355 226.751 138.603 227.167 138.513C229.412 138.468 231.66 138.442 233.905 138.387C234.202 138.38 234.518 138.723 234.17 138.929C233.11 139.162 231.938 138.991 230.846 139.088C229.154 139.12 227.445 139.269 225.763 139.249H225.766Z" fill="black"></path><path d="M239.98 140.538C236.511 140.467 233.042 140.428 229.577 140.292C229.367 140.286 229.373 139.95 229.59 139.963C233.229 140.037 236.921 139.898 240.535 140.15C240.952 140.46 240.312 140.599 239.98 140.538Z" fill="black"></path><path d="M228.866 142.838C228.598 142.854 228.556 142.434 228.831 142.411C232.193 142.179 235.623 142.075 238.975 141.978H238.936C239.13 141.975 239.314 141.969 239.505 141.962C240.005 142.001 240.58 141.807 241.042 142.033C241.372 142.314 240.848 142.566 240.584 142.515C236.669 142.618 232.761 142.776 228.847 142.841C228.853 142.841 228.86 142.841 228.866 142.841V142.838Z" fill="black"></path><path d="M244.702 145.208C241.333 144.966 237.951 144.682 234.596 144.362C234.27 144.352 234.286 143.842 234.615 143.855C237.635 144.149 240.664 144.407 243.694 144.637C244.12 144.724 244.663 144.569 245.015 144.863C245.18 145.05 244.876 145.221 244.705 145.208H244.702Z" fill="black"></path></g></svg>