<svg xmlns="http://www.w3.org/2000/svg" width="80" height="80" viewBox="0 0 80 80" fill="none"><rect width="80" height="80" fill="white"></rect><mask id="path-1-inside-1_34_3829" fill="white"><path fill-rule="evenodd" clip-rule="evenodd" d="M3.3335 15H33.3335V46.1649H18.3335V61.6667L3.3335 46.1649V15ZM46.6669 15H76.6669V46.1649H61.6669V61.6667L46.6669 46.1649V15Z"></path></mask><path fill-rule="evenodd" clip-rule="evenodd" d="M3.3335 15H33.3335V46.1649H18.3335V61.6667L3.3335 46.1649V15ZM46.6669 15H76.6669V46.1649H61.6669V61.6667L46.6669 46.1649V15Z" fill="#FF7200"></path><path d="M33.3335 15H35.3426V12.9909H33.3335V15ZM3.3335 15V12.9909H1.32441V15H3.3335ZM33.3335 46.1649V48.174H35.3426V46.1649H33.3335ZM18.3335 46.1649V44.1558H16.3244V46.1649H18.3335ZM18.3335 61.6667L16.8897 63.0638L20.3426 66.6322V61.6667H18.3335ZM3.3335 46.1649H1.32441V46.9778L1.88968 47.562L3.3335 46.1649ZM76.6669 15H78.676V12.9909H76.6669V15ZM46.6669 15V12.9909H44.6579V15H46.6669ZM76.6669 46.1649V48.174H78.676V46.1649H76.6669ZM61.6669 46.1649V44.1558H59.6579V46.1649H61.6669ZM61.6669 61.6667L60.2231 63.0638L63.676 66.6322V61.6667H61.6669ZM46.6669 46.1649H44.6579V46.9778L45.2231 47.562L46.6669 46.1649ZM33.3335 12.9909H3.3335V17.0091H33.3335V12.9909ZM35.3426 46.1649V15H31.3244V46.1649H35.3426ZM18.3335 48.174H33.3335V44.1558H18.3335V48.174ZM20.3426 61.6667V46.1649H16.3244V61.6667H20.3426ZM1.88968 47.562L16.8897 63.0638L19.7773 60.2696L4.77731 44.7679L1.88968 47.562ZM1.32441 15V46.1649H5.34259V15H1.32441ZM76.6669 12.9909H46.6669V17.0091H76.6669V12.9909ZM78.676 46.1649V15H74.6579V46.1649H78.676ZM61.6669 48.174H76.6669V44.1558H61.6669V48.174ZM63.676 61.6667V46.1649H59.6579V61.6667H63.676ZM45.2231 47.562L60.2231 63.0638L63.1108 60.2696L48.1108 44.7679L45.2231 47.562ZM44.6579 15V46.1649H48.676V15H44.6579Z" fill="#FF7200" mask="url(#path-1-inside-1_34_3829)"></path></svg>