<svg xmlns="http://www.w3.org/2000/svg" width="478" height="278" viewBox="0 0 478 278" fill="none"><path d="M369.279 8.53025C369.279 8.36203 369.416 8.2312 369.584 8.2312C369.752 8.2312 369.889 8.3745 369.883 8.53649C369.883 8.70471 369.746 8.83554 369.578 8.83554C369.409 8.83554 369.272 8.69225 369.279 8.53025Z" fill="black"></path><path d="M226.37 220.759C226.713 220.728 227.049 220.691 227.386 220.666C228.252 220.622 229.118 220.604 229.984 220.529C230.171 220.516 230.358 220.485 230.544 220.454C244.563 238.878 263.167 253.351 284.183 262.56C284.65 262.149 285.36 261.862 285.834 261.6C287.566 260.684 289.323 259.818 291.08 258.94C298.731 255.027 306.662 251.307 313.784 246.547C313.123 245.569 312.911 244.186 312.438 243.152C311.441 240.155 310.282 237.227 309.105 234.298C304.986 223.875 300.382 213.638 296.606 203.077C295.815 200.922 294.974 198.791 294.164 196.647C293.933 195.912 293.236 194.816 293.609 194.124C293.585 194.124 293.566 194.124 293.541 194.112C283.491 191.476 274.301 186.517 265.435 181.221C255.896 175.763 246.507 170.087 237.977 163.14C232.295 167.595 226.445 172.068 221.18 176.984C219.105 179.102 217.037 181.227 214.993 183.37C215.323 184.666 215.566 185.962 215.816 187.252C215.523 187.264 215.23 187.283 214.931 187.302C214.152 187.358 213.379 187.433 212.607 187.545C212.339 185.962 212.214 184.342 212.507 182.778C212.52 182.716 212.532 182.654 212.551 182.598C211.566 181.42 210.052 179.19 208.626 176.778C209.679 180.398 210.894 184 212.27 187.601C212.108 187.626 211.953 187.651 211.791 187.682C210.813 187.856 209.841 188.099 208.881 188.367C208.831 188.38 208.781 188.398 208.732 188.411C205.056 178.915 202.514 169.314 201.024 159.738C201.423 159.694 201.816 159.645 202.214 159.588C203.062 159.483 203.903 159.389 204.75 159.308C205.261 162.648 205.897 165.981 206.669 169.32C208.644 172.28 210.389 175.37 212.302 178.373C212.887 179.302 213.448 180.261 214.015 181.196C214.084 181.295 214.152 181.408 214.214 181.52C214.495 181.102 214.781 180.691 215.074 180.286C217.791 176.448 221.087 173.015 224.613 169.912C228.308 166.691 232.308 163.838 236.339 161.053C236.351 161.04 236.37 161.034 236.382 161.022C235.454 159.987 235.691 157.819 235.361 156.567C235.292 155.95 235.224 155.339 235.168 154.722C235.934 154.666 236.706 154.604 237.473 154.536C237.728 154.511 237.977 154.492 238.239 154.461C238.308 155.545 238.395 156.623 238.507 157.694C238.588 158.535 238.868 159.881 238.551 160.729C238.551 160.866 238.488 160.984 238.389 161.059C238.401 161.071 238.42 161.09 238.432 161.109C238.9 161.19 239.361 161.395 239.784 161.564C252.476 168.691 264.064 177.75 277.342 183.881C282.868 186.604 288.42 189.327 294.282 191.258C294.438 191.308 294.581 191.37 294.706 191.439C294.924 191.295 295.136 191.158 295.317 191.027C297.086 189.719 299.179 188.255 300.874 187.059C307.316 182.623 313.709 178.174 320.307 173.975C328.6 168.666 337.092 163.688 345.553 158.654C346.905 157.875 348.263 157.096 349.665 156.398C349.865 156.261 350.139 156.124 350.413 156.037C350.413 156.012 350.413 155.987 350.407 155.962C350.176 154.093 350.139 152.205 350.064 150.324C349.784 140.255 349.908 130.187 349.746 120.118C349.609 112.71 349.379 105.302 349.117 97.8941C348.974 95.0406 348.886 92.1745 348.93 89.321C349.005 88.511 348.731 87.4768 348.955 86.673C345.908 84.9223 343.036 82.9908 340.058 81.2151C331.865 76.0625 323.385 71.3959 314.793 66.9411C308.432 63.5579 301.747 60.2059 295.211 57.2838C295.011 57.4583 294.793 57.5954 294.581 57.6888C287.117 61.0969 280.351 65.7635 273.441 70.1311C265.853 75.2276 258.177 80.2806 251.373 86.4176C248.438 88.9098 245.61 91.5328 242.544 93.863C242.544 98.8287 241.205 103.745 240.675 108.679C240.65 108.854 240.632 109.028 240.607 109.196C240.027 109.252 239.442 109.321 238.868 109.402C238.071 109.508 237.273 109.632 236.482 109.769C237.099 104.735 237.903 99.6947 239.56 94.9222C239.386 94.9097 239.211 94.8848 239.049 94.8412C234.513 93.9939 230.164 92.3241 225.666 91.2836C221.566 90.1995 217.635 88.592 213.598 87.321C209.878 96.2742 207.105 105.651 205.367 115.29C204.059 115.414 202.744 115.545 201.436 115.695C203.641 102.947 207.622 90.6356 213.168 79.103C213.778 79.0407 214.389 78.9784 214.999 78.9161C215.859 78.8289 216.713 78.7354 217.566 78.6482C216.626 80.5235 215.735 82.4238 214.881 84.3428C214.993 84.3678 215.112 84.4051 215.23 84.4487C222.769 86.0313 230.252 87.9254 237.41 90.8226C238.42 91.2774 239.529 91.6886 240.414 92.3802C241.865 90.455 243.454 88.6356 245.111 86.8849C256.463 75.1902 270.102 65.9504 284.363 58.1873C287.136 56.7169 289.983 55.3898 292.899 54.2433C292.968 54.0004 293.036 53.7698 293.086 53.5642C293.504 52.1561 294.027 50.7979 294.538 49.4209C296.893 43.2777 299.342 37.1531 302.675 31.4647C303.366 30.337 304.912 27.6205 306.756 24.6423C308.295 24.5177 309.834 24.3557 311.373 24.175C311.497 24.1625 311.628 24.1438 311.753 24.1314C306.968 31.8634 302.631 39.8572 298.905 48.1499C298.831 48.3119 298.756 48.4739 298.687 48.6297C298.687 48.6297 298.687 48.6359 298.681 48.6421C298.681 48.6421 298.681 48.6421 298.681 48.6484C298.276 49.34 297.105 52.3368 295.84 54.7044C295.865 54.7418 295.89 54.773 295.915 54.8103C296.706 55.0969 297.485 55.396 298.264 55.7075C301.273 56.9225 304.226 58.262 307.186 59.5891C312.812 61.9941 318.282 64.7106 323.69 67.5766C332.263 72.1809 340.999 76.8227 348.351 83.2774C348.619 83.5453 349.597 84.4488 350.407 85.3709C352.151 83.4893 357.266 81.022 358.039 80.3802C365.671 75.8195 373.64 71.7261 381.665 67.9629C386.693 65.3212 391.74 62.7043 396.599 59.7635C397.416 59.3897 398.182 58.7355 399.017 58.3243C399.104 58.0065 399.385 57.7449 399.74 57.6203C398.674 56.2495 398.176 54.4116 397.378 52.8789C395.522 48.5798 393.696 43.9693 391.708 39.8322C387.69 31.1095 381.783 23.446 377.048 15.1533C377.011 15.0723 376.986 14.9913 376.973 14.9103C366.668 14.0691 356.326 13.5583 345.983 13.5583C342.681 13.5583 339.379 13.6081 336.07 13.7202C331.472 13.8698 326.88 14.1751 322.295 14.4928C320.625 14.5177 318.918 14.7545 317.229 14.8853C317.267 15.4336 317.074 16.0317 316.718 16.4243C315.597 18.094 314.5 19.7763 313.422 21.4772C312.693 21.4897 311.965 21.5083 311.236 21.5208C310.376 21.5457 309.522 21.5769 308.669 21.6205C310.288 19.1532 311.977 16.7981 313.429 15.2903C309.422 14.5364 299.79 12.9414 296.052 10.5614C285.448 14.0255 275.522 18.7295 266.407 24.4865C263.734 24.5737 261.068 24.879 258.426 25.3152C281.666 8.81061 310.494 -0.834171 342.55 0.0567893C407.272 1.61441 464.138 49.963 474.711 114.056C490.406 198.654 424.462 277.887 338.407 277.538C337.939 277.538 337.466 277.544 337.005 277.544C293.734 277.544 251.884 255.357 226.395 220.741L226.37 220.759ZM314.563 247.962C313.348 250.005 311.204 251.239 309.261 252.491C304.887 255.251 300.251 257.569 295.572 259.756C292.849 261.015 290.089 262.335 287.36 263.544C311.086 266.672 335.46 264.983 358.581 258.977H358.575C358.575 258.977 358.618 258.965 358.637 258.965C366.643 256.99 374.444 254.342 382.313 251.931C382.649 251.482 383.609 251.526 384.126 251.694C388.145 253.04 391.852 255.544 395.547 257.463C396.469 257.987 397.366 258.504 398.232 258.996C398.481 259.164 398.768 259.301 399.042 259.445C399.31 259.307 399.584 259.17 399.852 259.033C399.814 259.008 399.777 258.99 399.74 258.965C399.596 258.74 399.528 258.541 399.522 258.354C396.275 256.417 393.067 254.398 389.615 252.834C386.506 251.401 383.335 250.142 380.12 248.977C380.07 248.952 380.02 248.927 379.97 248.896C379.908 248.903 379.846 248.909 379.79 248.896C379.746 248.871 379.709 248.846 379.678 248.809C379.509 248.828 379.366 248.853 379.254 248.884C366.973 249.974 354.612 250.036 342.288 250.13C333.41 250.03 324.432 249.27 315.759 247.401C315.616 247.37 315.46 247.339 315.31 247.308C315.192 247.407 315.03 247.445 314.824 247.426C314.756 247.632 314.662 247.825 314.556 247.968L314.563 247.962ZM454.468 164.199C455.048 164.891 455.727 165.539 456.325 166.236C456.935 166.523 457.415 167.071 457.907 167.514C458.904 168.324 466.281 178.697 465.59 180.76C465.59 180.76 465.59 180.766 465.59 180.772C465.583 180.81 465.565 180.847 465.54 180.878C465.154 183.626 463.602 186.186 462.593 188.747C460.474 193.476 458.2 198.143 455.677 202.679C447.733 217.956 436.792 231.663 423.708 242.803C421.366 244.896 418.961 246.928 416.487 248.865C440.126 231.956 458.001 207.675 466.992 179.875C466.337 178.486 465.658 177.115 465.004 175.732C461.727 170.187 457.658 165.233 453.59 160.268C453.534 160.18 453.447 160.068 453.347 159.944C450.68 165.57 434.157 176.828 430.911 178.959C425.839 182.118 420.786 185.308 415.683 188.417C413.116 189.788 410.606 191.526 407.889 192.579C407.808 192.641 407.702 192.691 407.571 192.722C407.54 192.722 407.509 192.728 407.472 192.735C407.335 192.784 407.191 192.834 407.048 192.878C404.126 206.236 398.157 218.66 392.107 230.834L392.089 230.872C390.818 233.195 385.696 243.077 382.207 247.133C382.631 247.283 383.042 247.445 383.397 247.532C384.244 247.856 385.092 248.199 385.927 248.547C386.026 248.41 386.151 248.292 386.294 248.198C388.138 246.678 390.039 245.22 391.864 243.688C394.799 241.251 397.634 238.797 400.425 236.336C412.437 225.9 423.017 213.912 431.933 200.735C437.814 192.242 443.172 183.408 447.939 174.243C449.154 171.9 450.2 169.676 451.285 167.383C451.864 166.342 452.182 165.109 452.836 164.124C452.792 163.726 453.035 163.526 453.365 163.526C453.714 163.526 454.163 163.75 454.474 164.193L454.468 164.199ZM340.862 165.152C334.401 169.37 327.752 173.289 321.285 177.495C315.03 181.663 308.644 185.626 302.326 189.694C300.363 190.953 298.388 192.18 296.401 193.383C296.064 193.644 295.622 193.925 295.167 194.074C295.41 194.38 295.56 194.797 295.659 195.158C297.603 200.224 299.622 205.264 301.653 210.298C304.201 216.71 306.793 223.152 309.522 229.482C310.027 230.797 315.024 241.289 315.578 245.588C315.597 245.588 315.616 245.594 315.634 245.6C334.095 248.915 352.955 247.912 371.615 247.494C374.3 247.42 376.986 247.139 379.671 247.114C379.815 246.977 379.983 246.89 380.157 246.834C380.98 245.632 381.503 244.28 382.325 243.077C386.008 236.909 389.515 230.622 392.631 224.149C395.366 218.778 397.852 213.264 399.87 207.582C401.708 202.741 402.942 197.738 405.434 193.214C405.59 192.947 405.733 192.654 405.914 192.398C402.331 191.19 399.123 188.76 395.864 187.015C385.628 181.395 375.509 175.657 365.877 169.071C362.282 166.697 358.749 164.243 355.192 161.806C353.597 160.722 352.083 159.526 350.637 158.261C348.251 160.666 342.643 163.881 340.88 165.152H340.862ZM395.166 64.4489C385.073 70.5797 374.313 75.4582 363.79 80.7977C360.587 82.3304 357.553 84.1746 354.407 85.8195C353.485 86.1995 352.556 86.8288 351.565 87.0905C351.653 87.3584 351.609 87.564 351.379 87.6512C351.379 87.7011 351.379 87.7571 351.379 87.807C351.497 88.916 351.784 90.0499 351.846 91.1527C352.917 99.5577 353.198 108.012 353.647 116.461C353.877 125.352 353.609 134.261 353.223 143.127C353.005 144.617 352.911 154.691 351.703 156.953C352.257 157.327 352.812 157.856 353.21 158.018C365.484 166.492 378.431 173.944 391.335 181.401C396.631 184.392 401.889 187.476 406.992 190.791C407.858 190.199 408.936 189.775 409.671 189.246C419.384 183.651 428.612 177.538 437.521 170.785C442.144 167.071 446.749 163.296 451.017 159.171C451.341 158.891 451.677 158.43 452.057 158.087C452.057 157.969 452.07 157.85 452.088 157.744C452.605 152.467 452.973 147.184 452.805 141.881C452.686 133.751 452.281 125.614 451.633 117.501C451.073 110.206 450.724 103.134 449.266 96.0188C449.197 95.9814 449.129 95.9378 449.054 95.8817C441.228 88.536 433.179 81.4083 424.599 74.941C417.254 69.4831 409.752 64.0003 401.335 60.2994C399.634 62.0377 397.179 63.0657 395.16 64.4364L395.166 64.4489ZM462.686 94.4674C472.138 114.181 472.524 139.252 470.2 160.61C469.714 164.772 469.141 168.934 468.406 173.059C468.213 174.124 467.982 175.177 467.727 176.23C467.702 176.373 467.664 176.529 467.608 176.673C467.689 176.822 467.764 176.978 467.839 177.134C472.78 160.66 474.618 143.009 472.717 124.966C471.471 112.417 468.306 100.15 463.521 88.5422C460.082 91.1839 456.269 93.4144 452.225 94.9409C451.827 95.0842 451.434 95.2213 451.029 95.3272C452.418 98.4549 452.836 101.956 453.446 105.296C453.989 108.355 454.418 111.807 454.668 114.804C455.372 122.679 455.602 130.791 455.129 138.629C454.942 143.613 454.45 148.529 454.094 153.501C453.97 155.078 453.833 156.66 453.658 158.236C453.665 158.274 453.671 158.317 453.677 158.355C454.53 158.922 455.322 159.582 456.076 160.293C456.076 157.713 456.842 155.183 457.154 152.629C458.256 145.489 459.241 138.592 459.484 131.42C459.97 119.595 458.35 107.931 456.213 96.3428C456.163 95.5764 455.783 94.6294 456.325 93.9814C456.692 93.6637 457.091 93.9378 457.316 94.2929C457.347 94.2805 457.378 94.268 457.403 94.2556C458.094 93.8817 458.786 93.4892 459.478 93.1154C459.939 92.8225 460.431 92.916 460.692 93.1839C460.742 92.9534 460.886 92.835 461.085 92.835C461.515 92.835 462.194 93.3895 462.686 94.4799V94.4674ZM387.005 13.8635C384.575 14.3308 382.151 14.904 379.69 15.0286C381.148 16.4367 382.244 18.3121 383.31 19.8074C387.478 26.2622 391.204 32.9974 394.425 39.9693C396.275 43.7574 397.733 47.6951 399.272 51.6203C399.478 52.3991 401.191 56.181 400.967 57.6203C409.677 58.6919 427.945 73.3273 434.686 79.0033C439.945 83.6637 445.297 88.3179 449.802 93.7135C449.988 93.7696 450.188 93.9066 450.356 94.0873C450.823 93.7073 451.496 93.3147 452.175 92.9534C452.175 92.9534 452.175 92.9098 452.175 92.8911C452.175 92.7291 452.306 92.5858 452.468 92.5858C452.555 92.5858 452.637 92.6232 452.693 92.6792C453.54 92.2431 454.3 91.8692 454.58 91.6512C454.742 91.5702 454.898 91.4892 455.054 91.402C454.668 90.997 454.437 90.4113 454.144 89.9503C452.823 87.6014 451.546 85.2338 450.219 82.8911C446.967 77.1528 443.64 71.4395 439.708 66.1249C434.774 59.2838 428.892 53.3586 423.322 47.072C422.649 46.5985 422.263 45.1344 423.578 45.4646C423.758 45.5331 423.914 45.6453 424.064 45.7699C424.238 45.7138 424.437 45.7262 424.599 45.8571C430.549 50.3057 435.341 56.343 440.095 61.9629C443.253 65.8009 446.238 69.7884 449.041 73.8881C449.079 73.9192 449.116 73.9504 449.147 73.9878C450.082 74.9099 459.241 85.7883 459.465 88.754C460.157 88.2867 460.842 87.7945 461.509 87.2836C461.889 87.0033 462.269 86.7104 462.643 86.4238C454.02 66.4613 440.593 48.5425 423.914 34.6298C413.16 25.6703 400.992 18.5489 388.039 13.4212C387.765 13.6704 387.397 13.8448 387.023 13.8635H387.005ZM458.194 89.5765C458.319 89.5017 458.437 89.4207 458.555 89.3397C458.431 89.24 458.312 89.1341 458.2 89.0219C458.263 89.2525 458.269 89.4456 458.188 89.5765H458.194ZM377.347 13.147C377.403 13.147 377.453 13.147 377.503 13.1595C377.877 13.091 378.269 13.066 378.618 12.9975C380.581 12.7296 382.544 12.4243 384.487 12.0816C365.366 5.12217 344.687 2.45551 324.407 4.59257C316.818 5.36515 309.472 6.74831 302.407 8.67353C306.837 9.90094 311.466 10.9352 315.659 12.5925C315.703 12.6237 315.74 12.6548 315.778 12.686C319.516 11.7202 325.971 11.2966 326.843 11.172C332.55 10.686 338.27 10.443 343.983 10.443C355.148 10.443 366.301 11.3651 377.335 13.147H377.347Z" fill="black"></path><path d="M214.378 201.108C212.72 197.812 211.213 194.492 209.842 191.164C209.96 191.146 210.079 191.133 210.203 191.121C212.191 190.872 214.172 190.585 216.135 190.18C216.234 190.161 216.34 190.136 216.446 190.112C216.627 190.834 216.832 191.545 217.088 192.255C218.216 196.23 219.63 200.068 220.988 203.956C221.549 205.476 222.054 207.015 222.49 208.573C224.496 211.9 226.639 215.127 228.907 218.248C228.402 218.292 227.904 218.348 227.399 218.41C226.963 218.46 226.527 218.491 226.091 218.535C225.686 218.579 225.287 218.647 224.882 218.703C220.938 213.133 217.418 207.258 214.371 201.108H214.378Z" fill="black"></path><path d="M234.622 140.187C234.747 131.794 235.071 123.383 235.874 115.022C235.918 114.617 235.968 114.206 236.011 113.794C236.56 113.732 237.114 113.663 237.669 113.601C238.479 113.508 239.289 113.414 240.099 113.308C239.656 117.171 239.326 121.047 239.089 124.916C238.622 133.526 238.148 142.162 238.117 150.772C238.117 150.791 238.117 150.816 238.117 150.835C237.924 150.847 237.731 150.866 237.538 150.884C237.55 150.884 237.557 150.884 237.569 150.884C237.525 150.884 237.476 150.891 237.432 150.897C237.444 150.897 237.457 150.897 237.469 150.897C237.457 150.897 237.438 150.897 237.426 150.897C236.585 150.972 235.743 151.059 234.902 151.165C234.666 147.514 234.585 143.85 234.616 140.193L234.622 140.187Z" fill="black"></path><path d="M200.848 119.346C202.156 119.184 203.464 118.997 204.773 118.816C202.922 130.909 202.698 143.383 204.293 155.931C203.047 156.093 201.801 156.236 200.561 156.423C198.929 143.9 199.091 131.445 200.848 119.346Z" fill="black"></path><path d="M253.206 29.2217C253.86 29.0847 254.52 28.9476 255.174 28.8167C255.193 28.8167 255.212 28.8167 255.224 28.8105C256.682 28.5364 258.14 28.2435 259.604 27.9694C259.604 27.9694 259.635 27.9694 259.654 27.9632H259.66C259.698 27.9569 259.741 27.9507 259.779 27.9383C259.741 27.9445 259.704 27.9507 259.667 27.9632C259.822 27.9445 259.984 27.9071 260.14 27.8759C260.153 27.8759 260.171 27.8759 260.184 27.8697C260.19 27.8697 260.202 27.8697 260.209 27.8697C260.302 27.851 260.396 27.8323 260.489 27.8199C260.52 27.8199 260.558 27.8074 260.589 27.8012C260.582 27.8012 260.576 27.8012 260.564 27.8012C260.576 27.8012 260.589 27.8012 260.607 27.8012C260.62 27.8012 260.639 27.8012 260.651 27.7887C260.651 27.7887 260.651 27.7887 260.663 27.7887C260.663 27.7887 260.663 27.7887 260.657 27.7887H260.663C260.72 27.7762 260.776 27.77 260.838 27.7576C260.863 27.7576 260.894 27.7451 260.925 27.7389C260.913 27.7389 260.9 27.7389 260.888 27.7451C260.9 27.7451 260.919 27.7451 260.931 27.7389C261.206 27.689 261.486 27.6392 261.76 27.5894C243.997 39.8634 229.567 56.2122 219.486 74.9535C219.119 75.0033 218.745 75.0532 218.377 75.103C217.224 75.2588 216.078 75.4208 214.932 75.5828C224.165 57.6701 237.218 41.7762 253.212 29.2404L253.206 29.2217Z" fill="black"></path><path d="M260.963 27.7139C260.963 27.7139 260.937 27.7139 260.93 27.7203C260.93 27.7203 260.93 27.7203 260.924 27.7203C260.937 27.7203 260.95 27.7203 260.969 27.7139H260.963Z" fill="black"></path><path d="M255.217 28.8106C255.217 28.8106 255.185 28.8106 255.172 28.8171C255.172 28.8171 255.172 28.8171 255.166 28.8171C255.185 28.8171 255.198 28.8106 255.217 28.8042V28.8106Z" fill="black"></path><path d="M260.136 27.8696C260.104 27.8759 260.067 27.8822 260.035 27.8885C260.067 27.8885 260.098 27.8759 260.136 27.8696Z" fill="black"></path><path d="M449.015 156.342C448.398 156.149 448.056 155.464 447.987 154.866C447.943 154.448 447.9 154.025 447.875 153.601C447.85 153.078 447.875 152.548 447.887 152.018C447.894 151.526 447.918 151.034 447.931 150.548C447.956 149.707 447.981 148.866 448.012 148.025C448.043 147.04 448.08 146.062 448.13 145.084C448.174 144.118 448.267 143.159 448.305 142.193C448.386 140.174 448.398 138.149 448.523 136.137C448.585 135.165 448.598 134.193 448.629 133.221C448.66 132.23 448.654 131.24 448.654 130.255C448.654 128.293 448.654 126.33 448.71 124.367C448.735 123.477 448.766 122.592 448.828 121.707C448.859 121.296 448.89 120.885 448.897 120.467C448.897 120.243 448.909 120.019 448.915 119.794C448.915 119.657 448.928 119.501 448.959 119.364C448.971 119.084 449.264 118.866 449.545 118.916C449.75 118.953 449.881 119.09 449.931 119.265C450.099 119.639 450.099 120.093 450.137 120.492C450.18 120.972 450.23 121.452 450.274 121.931C450.367 122.928 450.436 123.925 450.523 124.916C450.61 125.906 450.685 126.897 450.722 127.888C450.76 128.853 450.822 129.819 450.853 130.785C450.909 132.716 450.953 134.648 451.052 136.579C451.158 138.573 451.102 140.573 451.121 142.386V142.598C451.165 143.645 451.183 144.685 451.171 145.732C451.158 146.691 451.115 147.651 451.065 148.604C451.021 149.42 450.971 150.243 450.934 151.059C450.909 151.588 450.884 152.112 450.853 152.635C450.828 153.146 450.803 153.645 450.722 154.149C450.691 154.342 450.666 154.548 450.641 154.741C450.629 154.835 450.616 154.928 450.604 155.022C450.566 155.252 450.467 155.47 450.355 155.669C450.143 156.05 449.732 156.38 449.295 156.38C449.208 156.38 449.121 156.367 449.034 156.336L449.015 156.342Z" fill="black"></path><path d="M412.493 184.23C412.568 183.713 413.091 183.482 413.44 183.158C415.384 181.52 417.397 179.956 419.397 178.38C422.636 175.875 425.814 173.302 428.979 170.704C433.82 166.841 438.91 163.302 443.602 159.258C445.502 157.8 447.122 155.825 449.259 154.741C449.583 154.673 449.957 154.853 450.125 155.127C451.103 157.645 446.019 161.171 444.281 162.585C438.605 167.009 432.854 171.271 426.892 175.283C422.692 178.155 418.693 181.227 414.412 183.968C413.901 184.317 412.58 185.339 412.493 184.23Z" fill="black"></path><path d="M445.446 156.884C445.128 156.754 444.898 156.517 444.717 156.224C444.461 155.813 444.437 155.333 444.48 154.866C444.524 154.411 444.586 153.962 444.642 153.507C444.873 151.632 445.128 149.757 445.346 147.875C445.465 146.872 445.577 145.869 445.676 144.866C445.776 143.9 445.851 142.934 445.938 141.969C446.119 140.05 446.299 138.131 446.536 136.212C446.655 135.233 446.798 134.268 446.929 133.29C447.06 132.324 447.197 131.358 447.34 130.399C447.489 129.414 447.658 128.436 447.801 127.452C447.944 126.461 448.081 125.47 448.206 124.48C448.3 123.726 448.393 122.972 448.499 122.218C448.561 121.769 448.624 121.315 448.686 120.866C448.717 120.673 448.748 120.48 448.779 120.287C448.798 120.162 448.829 120.037 448.873 119.919C448.904 119.682 449.141 119.514 449.377 119.539C449.608 119.564 449.764 119.757 449.776 119.975C449.845 120.23 449.801 120.529 449.795 120.779C449.788 121.053 449.77 121.333 449.751 121.607C449.708 122.23 449.676 122.847 449.633 123.47C449.545 124.772 449.452 126.068 449.396 127.271C449.384 127.52 449.371 127.769 449.359 127.994C449.352 128.156 449.346 128.318 449.34 128.367C449.309 129.209 449.284 130.05 449.246 130.891C449.072 134.779 448.792 138.666 448.362 142.542C448.15 144.492 447.963 146.442 447.813 148.405C447.676 150.299 447.552 152.199 447.415 154.093C447.396 154.305 447.384 154.517 447.365 154.729C447.346 155.003 447.352 155.321 447.271 155.588C447.153 155.993 446.954 156.398 446.599 156.66C446.362 156.835 446.081 156.953 445.795 156.953C445.676 156.953 445.552 156.934 445.427 156.884H445.446Z" fill="black"></path><path d="M410.441 185.62C409.812 184.822 410.964 184.168 411.475 183.688C413.207 182.261 414.946 180.841 416.659 179.395C423.924 173.233 430.977 166.704 437.724 159.994C440.104 157.869 442.104 154.878 445.238 153.869C445.868 153.732 446.727 153.888 447.002 154.548C447.699 156.847 445.301 158.604 443.924 160.099C437.276 166.492 429.712 171.85 422.534 177.576C419.083 180.224 415.494 182.697 411.98 185.264C411.563 185.588 410.946 186.018 410.447 185.613L410.441 185.62Z" fill="black"></path><path d="M446.198 157.09C445.936 156.536 446.01 155.944 446.098 155.352C446.278 153.956 446.31 152.529 446.721 151.177C446.97 150.162 447.207 147.938 448.721 148.43C450.397 149.788 449.475 154.548 449.244 156.529C448.939 158.081 446.914 158.716 446.198 157.084V157.09Z" fill="black"></path><path d="M378.015 245.656C376.987 244.952 377.89 243.725 378.333 242.934C379.068 241.65 379.853 240.398 380.607 239.12C382.245 236.354 383.84 233.563 385.367 230.728C387.554 226.541 390.152 222.51 392.133 218.223C392.725 217.233 394.812 211.588 395.921 212.111C396.818 212.809 394.096 217.507 393.685 218.516C391.46 223.233 389.479 228.061 386.937 232.616C384.881 236.497 382.663 240.46 380.252 244.067C379.728 244.809 379.13 246.173 378.015 245.65V245.656Z" fill="black"></path><path d="M357.603 246.921C356.176 246.778 344.077 247.164 344.681 245.849C344.843 245.6 345.192 245.65 345.447 245.6C348.089 245.376 350.75 245.42 353.398 245.382C358.133 245.326 362.868 245.201 367.603 245.089C370.718 244.99 373.827 244.759 376.93 244.448C377.765 244.435 378.706 244.036 379.453 244.56C379.821 244.79 379.958 245.282 379.672 245.638C378.818 246.616 377.254 246.192 376.089 246.423C369.94 246.834 363.778 246.971 357.609 246.915L357.603 246.921Z" fill="black"></path><path d="M376.251 243.364C374.955 242.765 376.145 241.32 376.65 240.547C377.796 238.828 378.992 237.015 380.12 235.357C383.584 230.043 386.656 224.479 390.126 219.171C391.59 217.015 392.948 214.747 394.755 212.859C394.992 212.641 395.297 212.298 395.659 212.348C396.319 212.51 395.927 213.258 395.696 213.638C392.861 218.89 389.628 223.912 386.587 229.046C384.955 231.345 378.544 243.899 376.251 243.364Z" fill="black"></path><path d="M345.904 246.753C345.499 246.765 344.714 246.772 344.901 246.167C345.362 245.6 346.247 245.544 346.914 245.357C356.839 243.843 367.138 243.569 376.864 241.183C377.418 241.158 378.153 241.501 378.241 242.105C379.256 245.818 349.375 246.734 345.904 246.753Z" fill="black"></path><path d="M371.884 245.139C371.168 245.015 371.118 244.379 371.728 244.03C372.975 243.376 374.364 243.008 375.697 242.566C376.694 242.242 377.728 241.694 378.426 240.934C379.136 240.217 379.473 239.251 380.034 238.423C380.289 237.993 380.956 237.75 381.311 238.199C381.585 238.535 381.504 238.99 381.379 239.37C381.105 240.51 380.75 241.656 380.09 242.641C379.242 244.012 377.672 244.56 376.14 244.722C374.756 244.971 373.292 245.301 371.89 245.139H371.884Z" fill="black"></path><path d="M279.148 262.516C278.319 262.024 278.949 260.846 279.647 260.585C280.961 259.906 282.263 259.214 283.572 258.522C287.752 256.367 291.865 254.074 295.977 251.793C297.379 251.17 304.413 246.878 305.148 248.055C305.354 249.731 294.625 254.946 292.78 255.968C289.765 257.501 286.861 259.133 283.896 260.74C282.961 261.245 282.027 261.737 281.086 262.23C280.519 262.572 279.784 262.909 279.154 262.522L279.148 262.516Z" fill="black"></path><path d="M275.249 260.946C274.651 260.367 275.199 259.42 275.859 259.17C277.461 258.603 278.962 258.043 280.532 257.438C284.831 255.75 289.018 253.793 293.249 251.949C306.626 246.055 305.984 249.033 293.853 254.317C289.635 256.192 285.411 258.061 281.093 259.694C279.635 260.242 278.165 260.74 276.682 261.226C276.215 261.382 275.592 261.314 275.243 260.952L275.249 260.946Z" fill="black"></path><path d="M277.168 261.818C276.451 260.915 280.027 259.133 280.719 258.697C281.379 258.398 282.04 257.856 282.794 258.011C283.342 258.086 283.672 258.659 283.436 259.164C283.392 259.999 277.616 262.572 277.161 261.825L277.168 261.818Z" fill="black"></path><path d="M294.459 188.953C293.113 187.993 297.5 185.308 298.197 184.579C302.627 181.121 307.2 177.825 311.817 174.635C311.805 174.641 311.792 174.654 311.78 174.66C311.761 174.673 311.743 174.685 311.724 174.704C320.509 168.536 329.574 162.866 339.082 157.9C339.344 157.769 339.605 157.626 339.854 157.495C340.453 157.215 340.932 158.112 340.322 158.436C329.281 165.24 318.316 172.18 307.842 179.844C304.191 182.417 300.646 185.134 297.063 187.806C296.752 188.056 296.415 188.28 296.067 188.473C295.599 188.766 295.039 189.258 294.472 188.953H294.459Z" fill="black"></path><path d="M293.581 189.052C289.662 188.118 286.167 186.298 282.541 184.653C276.703 181.931 271.027 178.878 265.432 175.706C265.45 175.719 265.469 175.731 265.494 175.744C265.507 175.75 265.525 175.763 265.538 175.769C262.79 174.205 260.105 172.535 257.426 170.865C256.821 170.404 253.905 169.059 255.507 168.373C256.46 168.361 257.276 169.177 258.111 169.545C259.114 170.124 260.061 170.647 260.996 171.189C267.282 174.809 273.594 178.373 280.186 181.407C284.852 183.675 289.612 185.731 294.347 187.85C295.793 188.448 294.84 189.557 293.587 189.065L293.581 189.052Z" fill="black"></path><path d="M291.13 186.136C291.111 185.277 292.077 184.915 292.662 184.473C293.809 183.7 294.905 182.859 295.983 182.037C301.516 178.074 307.061 174.13 312.756 170.404C319.229 166.236 325.796 162.623 332.781 159.47C334.843 158.529 336.905 157.551 339.098 156.972C339.447 156.903 339.858 156.735 340.189 156.934C340.787 157.445 339.902 157.862 339.466 158.037C333.809 160.591 328.282 163.763 322.918 166.791C314.644 171.526 307.161 177.464 299.211 182.697C297.584 183.781 295.871 184.703 294.17 185.632C293.323 185.999 291.665 187.464 291.117 186.136H291.13Z" fill="black"></path><path d="M294.27 184.517C294.27 184.367 294.407 184.268 294.551 184.268C294.694 184.268 294.812 184.405 294.8 184.548C294.8 184.697 294.663 184.797 294.52 184.797C294.376 184.797 294.258 184.66 294.27 184.517Z" fill="black"></path><path d="M295.374 184.897C282.894 181.837 270.863 177.227 259.48 171.283C258.988 170.965 252.371 167.738 254.471 167.557C262.876 171.339 271.218 175.407 280.041 178.161C285.162 179.825 290.34 181.314 295.555 182.666C297.686 182.903 297.673 185.389 295.374 184.897Z" fill="black"></path><path d="M295.051 187.058C290.622 187.046 286.497 185.158 282.453 183.544C277.531 181.333 272.653 178.897 268.005 176.18C266.329 175.177 267.469 174.087 268.995 174.934C273.463 176.728 277.886 178.61 282.453 180.136C287.213 181.794 292.241 182.978 296.665 185.432C297.73 186.629 296.129 187.214 295.058 187.058H295.051Z" fill="black"></path><path d="M293.155 188.043C291.666 187.956 290.687 185.894 292.557 185.489C293.329 185.358 294.052 185.782 294.662 186.212C294.949 186.423 295.211 186.654 295.279 187.015C295.454 188.212 293.977 188.236 293.155 188.043Z" fill="black"></path><path d="M293.445 187.04C291.358 185.688 307.943 176.087 309.626 174.834C315.426 171.146 321.482 167.906 327.47 164.535C329.881 163.171 332.317 161.856 334.772 160.567C335.127 160.386 335.532 160.081 335.918 160.348C336.087 160.492 335.937 160.797 335.812 160.928C333.121 162.573 330.361 164.137 327.669 165.788C321.8 169.333 316.074 173.102 310.361 176.897C306.286 179.57 302.33 182.436 298.193 185.015C296.735 185.869 295.352 186.791 293.763 187.115C293.651 187.115 293.545 187.09 293.451 187.034L293.445 187.04Z" fill="black"></path><path d="M303.772 177.457C303.81 177.302 303.872 177.152 303.99 177.034C304.85 176.392 305.822 175.881 306.719 175.283C314.813 169.713 323.374 165.015 331.772 159.944C331.884 159.632 332.314 159.551 332.551 159.782C332.813 160.037 332.688 160.511 332.327 160.585C329.679 162.623 326.956 164.473 324.134 166.218C317.959 170.224 311.523 173.769 305.224 177.57C304.85 177.912 303.698 178.317 303.779 177.464L303.772 177.457Z" fill="black"></path><path d="M307.248 176.741C306.395 175.987 308.937 174.903 309.373 174.442C312.077 172.579 314.737 170.766 317.379 168.835C322.338 165.289 327.609 162.162 333.092 159.508C334.151 159.034 335.198 158.548 336.276 158.143C336.519 158.037 336.818 158.168 336.918 158.411C337.03 158.66 336.899 158.978 336.644 159.071C335.373 159.844 334.077 160.592 332.781 161.339C328.637 163.676 324.5 166.025 320.451 168.523C317.055 170.554 313.709 172.698 310.463 174.959C309.778 175.433 309.173 175.85 308.501 176.311C308.133 176.573 307.709 176.959 307.236 176.735L307.248 176.741Z" fill="black"></path><path d="M212.584 174.355C209.874 170.753 207.512 166.866 204.914 163.171C204.285 162.255 203.643 161.345 203.008 160.43C202.814 160.18 202.659 159.863 202.652 159.539C203.194 159.47 203.736 159.414 204.278 159.358C204.44 159.539 204.578 159.738 204.671 159.906C205.948 161.694 207.313 163.638 208.484 165.408C208.852 166.112 214.621 174.411 212.877 174.411C212.796 174.411 212.696 174.392 212.584 174.355Z" fill="black"></path><path d="M353.373 79.0095C352.626 79.0219 352.825 78.0624 353.299 77.7821C354.912 76.4861 356.588 75.2774 358.289 74.0874C367.654 67.67 377.878 62.2744 388.607 58.5859C388.918 58.6171 389.093 59.0034 388.925 59.265C388.644 59.6015 388.164 59.7012 387.791 59.913C381.006 62.9535 374.327 66.0313 367.866 69.6949C363.205 72.3054 358.725 75.2213 354.47 78.4425C354.127 78.6855 353.816 79.0282 353.367 79.0157L353.373 79.0095Z" fill="black"></path><path d="M351.727 79.1277C347.571 76.8536 344.194 73.2462 340.045 70.9284C332.263 66.4238 324.113 62.6294 316.039 58.6917C315.534 58.4176 314.955 58.2432 314.512 57.8818C313.983 57.3522 314.219 56.6481 315.036 56.6855C319.802 58.4176 324.369 60.7976 328.967 62.9659C333.129 65.0531 337.384 66.9845 341.291 69.5328C344.649 71.6138 347.739 74.0873 351.035 76.2617C351.689 76.7477 352.412 77.1589 352.973 77.757C353.633 78.6168 352.637 79.5078 351.733 79.1277H351.727Z" fill="black"></path><path d="M352.569 74.0125C352.694 73.4892 353.236 73.0156 353.604 72.6917C355.466 71.0593 357.603 69.8256 359.79 68.6917C368.744 63.8942 378.6 61.1404 388.307 58.3117C389.416 57.9877 389.946 59.184 388.793 59.6575C381.23 62.536 373.254 64.4425 365.896 67.8256C361.815 69.6948 357.896 71.9129 353.903 73.9689C353.504 74.0811 352.706 74.6543 352.569 74.0125Z" fill="black"></path><path d="M351.714 76.2867C349.321 75.4332 347.215 73.9441 344.947 72.8226C339.128 69.7136 333.122 66.6731 327.221 63.7759C327.221 63.7759 327.234 63.7759 327.24 63.7821C327.253 63.7821 327.259 63.7946 327.271 63.8008C324.754 62.5734 322.274 61.3647 319.745 60.1934C317.602 59.0532 315.06 58.4052 313.147 56.9411C312.985 56.3056 313.851 56.399 314.231 56.5298C322.947 59.3273 331.003 63.8818 339.365 67.564C342.598 69.1217 345.801 70.6668 348.935 72.4052C350.287 73.2151 351.832 73.8818 352.848 75.1154C353.358 75.9441 352.555 76.6294 351.72 76.2867H351.714Z" fill="black"></path><path d="M352.269 75.2151C350.892 73.7821 354.555 71.0781 355.702 72.536C356.375 73.6637 355.029 74.5547 354.163 75.0158C353.633 75.4644 352.848 75.7572 352.275 75.2089L352.269 75.2151Z" fill="black"></path><path d="M350.501 76.9161C350.407 76.1559 350.856 75.4145 351.466 74.9908C352.955 73.8444 354.507 72.7666 356.133 71.8195C361.08 68.9099 366.395 66.6669 371.796 64.7541C374.164 63.9068 376.457 62.8476 378.874 62.1498C379.317 62.0127 379.815 61.8694 380.257 61.994C380.544 62.0189 380.488 62.4551 380.208 62.4302C373.871 67.2588 366.052 69.6949 359.254 73.7011C357.385 74.8039 355.535 75.9379 353.747 77.1715C352.862 78.0251 350.818 78.5484 350.494 76.9161H350.501Z" fill="black"></path><path d="M351.829 77.7196C351.188 77.5078 350.477 77.3147 350.016 76.7913C349.356 76.0374 349.742 75.0032 350.789 75.0405C351.742 75.1278 352.832 76.0125 353.306 76.81C353.618 77.7259 352.508 78.0312 351.829 77.7196Z" fill="black"></path><path d="M0.0359369 92.5609C-0.0949033 92.2058 0.14808 91.8631 0.496987 91.7946C1.71816 91.2525 2.88949 90.5983 4.07328 90.0002C14.5966 84.7167 25.4127 80.0376 36.2973 75.5392C67.7862 62.5424 100.228 52.044 133.038 42.9413C172.041 32.3308 211.792 23.957 252.097 20.3745C261.567 19.4274 271.037 19.7701 280.508 20.1128C286.451 20.3309 292.402 20.5427 298.352 20.443C302.464 20.4305 306.57 20.4119 310.688 20.4492C311.816 20.4679 312.944 20.4492 314.065 20.4929C314.271 20.5302 314.451 20.6673 314.626 20.7608C314.887 20.9041 314.993 21.2218 314.887 21.471C313.666 21.4835 312.439 21.5084 311.218 21.5396C309.18 21.5894 307.149 21.7016 305.124 21.9383C299.461 21.9383 293.934 21.9196 288.302 22.2499C281.43 22.848 274.582 23.6392 267.729 24.4803H267.536C263.716 24.5115 259.922 25.0162 256.171 25.7327C256.234 25.7202 256.29 25.7078 256.352 25.6953C256.165 25.7327 255.972 25.7701 255.785 25.8074C255.237 25.9196 254.695 26.038 254.153 26.1688C249.411 26.7545 244.67 27.3152 239.922 27.8074C206.857 31.8635 174.539 37.9445 142.247 45.8509C97.7113 56.6048 53.8237 70.1685 11.6744 88.1871C8.09192 89.7136 4.54682 91.3335 0.982983 92.7977C0.858374 92.8787 0.715051 92.9223 0.57175 92.9223C0.347452 92.9223 0.123164 92.8101 0.0359369 92.5547V92.5609Z" fill="black"></path><path d="M10.1184 125.234C9.9003 124.916 10.2492 124.592 10.5109 124.442C12.0374 123.47 13.7071 122.723 15.3333 121.938C22.4298 118.611 29.6572 115.57 36.9219 112.636C71.0837 99.0343 106.915 90.0749 142.89 82.7229C173.606 76.7354 204.416 69.8881 235.799 68.9161C241.17 68.6545 246.541 68.2869 251.917 68.4676C252.03 68.4676 252.148 68.4676 252.266 68.4676C252.684 68.4551 253.107 68.4426 253.506 68.5984C253.917 68.7105 253.98 69.3461 253.587 69.5205C248.322 70.8414 242.827 71.3211 237.45 72.1622C232.871 72.9784 228.291 73.7261 223.706 74.4301C221.924 74.6108 220.148 74.8351 218.379 75.0781C216.08 75.3959 213.781 75.7074 211.488 76.0688C210.13 76.2868 208.759 76.5049 207.413 76.8102C201.164 77.6887 194.921 78.5423 188.684 79.4394C187.438 79.5017 186.198 79.589 184.958 79.7198C182.821 79.9379 180.69 80.2743 178.591 80.7043C178.03 80.8226 177.476 80.941 176.921 81.0843C176.691 81.1466 176.454 81.2152 176.223 81.2899C169.843 82.2806 163.469 83.3522 157.121 84.5671C121.856 91.2462 86.6163 98.81 52.4047 109.738C42.411 113.034 32.4983 116.554 22.7165 120.43C19.1776 121.825 15.6635 123.296 12.162 124.779C11.6075 125.003 11.053 125.339 10.4486 125.396C10.3178 125.396 10.1994 125.358 10.1121 125.234H10.1184Z" fill="black"></path><path d="M60.8776 143.202C60.7966 142.972 60.9211 142.76 61.1205 142.679C61.133 142.673 61.1517 142.667 61.1642 142.66C61.1642 142.66 61.1579 142.66 61.1517 142.66C84.8151 133.128 109.912 127.389 134.79 121.963C174.16 113.184 214.185 108.305 254.459 106.885C256.035 106.791 257.618 106.698 259.194 106.617C259.462 106.604 259.817 106.754 259.867 107.041C259.904 107.277 259.599 107.396 259.449 107.483C254.135 107.851 248.802 108.312 243.506 109.059C242.97 109.053 242.434 109.072 241.904 109.103C240.889 109.165 239.873 109.277 238.864 109.414C236.328 109.757 233.811 110.243 231.337 110.885C231.076 110.953 230.82 111.022 230.559 111.09C221.045 112.636 211.518 114.237 202.023 115.632C201.412 115.701 200.802 115.77 200.191 115.844C200.204 115.844 200.216 115.844 200.229 115.844C199.032 115.994 197.842 116.187 196.659 116.386C196.484 116.418 196.316 116.442 196.141 116.474C177.755 119.084 159.587 122.044 141.332 125.439C120.242 129.19 99.2262 133.464 78.5098 138.947C74.3042 140.056 70.1049 141.19 65.9056 142.305C64.3542 142.673 62.8401 143.215 61.2763 143.489C61.108 143.489 60.9399 143.389 60.8776 143.215V143.202Z" fill="black"></path><path d="M61.1391 142.673C61.1391 142.673 61.152 142.673 61.1584 142.673C61.1455 142.673 61.139 142.679 61.1261 142.686C61.1261 142.686 61.1197 142.686 61.1133 142.686C61.1262 142.686 61.1326 142.679 61.1455 142.673H61.1391Z" fill="black"></path><path d="M28.5679 197.825C28.1068 196.959 29.4402 196.678 29.9947 196.373C34.057 194.597 38.1629 192.94 42.2937 191.32C56.306 185.769 70.9539 181.47 85.3838 177.32C140.318 161.221 197.065 151.788 254.155 147.993C259.027 147.576 263.9 147.14 268.772 146.772C269.258 146.747 269.987 146.542 270.217 147.121C270.08 147.626 269.507 147.644 269.071 147.651C264.741 147.981 260.411 148.336 256.08 148.747C250.585 149.333 245.109 150.012 239.644 150.741C238.897 150.778 238.155 150.828 237.408 150.897C237.408 150.897 237.414 150.897 237.42 150.897C237.42 150.897 237.42 150.897 237.426 150.897C237.426 150.897 237.426 150.897 237.42 150.897C235.327 151.077 233.246 151.358 231.177 151.719C230.685 151.806 230.199 151.894 229.713 151.993C229.246 152.093 228.779 152.193 228.324 152.342C221.458 153.352 214.604 154.429 207.744 155.514C206.966 155.588 206.193 155.676 205.42 155.781C203.053 156.105 200.667 156.336 198.33 156.822C197.433 157.003 196.536 157.202 195.651 157.426C195.209 157.495 194.76 157.563 194.318 157.638C167.408 161.806 140.723 167.277 114.25 173.607C112.069 173.956 109.895 174.342 107.751 174.865C105.733 175.351 103.776 176.031 101.795 176.654C96.6858 177.931 91.5831 179.233 86.4866 180.573C68.2624 185.065 50.2064 190.261 32.5991 196.797C31.4028 197.208 30.2377 197.738 29.029 198.074C28.8483 198.074 28.6739 197.993 28.5617 197.837L28.5679 197.825Z" fill="black"></path><path d="M74.6425 214.348C80.7296 211.881 87.01 209.943 93.3152 208.112C107.751 204.006 122.399 200.728 137.091 197.713C166.374 191.937 195.72 186.143 225.42 182.972C231.582 182.417 237.763 182.112 243.894 181.271C244.193 181.271 244.504 181.215 244.822 181.158C245.464 181.04 246.118 180.922 246.641 181.327C246.797 181.445 246.81 181.688 246.685 181.831C246.573 181.968 246.473 182.112 246.299 182.174C244.984 182.473 243.607 182.511 242.267 182.71C233.482 183.732 224.984 185.906 216.261 187.246C216.249 187.246 216.237 187.246 216.224 187.252C215.794 187.264 215.364 187.283 214.941 187.314C213.888 187.389 212.841 187.501 211.8 187.688C210.822 187.862 209.85 188.105 208.891 188.373C208.548 188.467 208.205 188.579 207.875 188.697C201.227 189.844 194.573 190.984 187.931 192.137C187.825 192.137 187.72 192.143 187.614 192.149C185.757 192.218 183.919 192.461 182.1 192.828C181.115 193.028 180.137 193.271 179.165 193.514C178.486 193.688 177.801 193.825 177.134 194.024C169.047 195.451 160.972 196.922 152.904 198.467C152.71 198.467 152.511 198.479 152.312 198.498C149.819 198.647 147.365 199.121 144.929 199.638C143.707 199.894 142.48 200.168 141.277 200.504C140.798 200.641 140.33 200.797 139.863 200.965C132.954 202.317 126.056 203.707 119.165 205.165C118.767 205.214 118.374 205.277 117.982 205.345C116.536 205.594 115.085 205.813 113.664 206.155C112.773 206.373 111.895 206.629 111.016 206.878C110.81 206.934 110.605 206.996 110.393 207.059C101.596 208.996 92.8354 211.059 84.1003 213.277C80.5738 213.999 77.0038 215.501 73.4462 215.713C72.6362 215.052 74.1565 214.56 74.6487 214.33L74.6425 214.348Z" fill="black"></path><path d="M129.682 232.018C140.636 228.653 151.919 226.442 163.196 224.448C182.99 221.183 202.916 218.641 222.934 217.245C232.903 216.566 242.903 216.236 252.878 215.588C253.682 215.576 254.498 215.414 255.283 215.482C255.414 215.526 255.638 215.632 255.644 215.8C255.551 216.504 253.414 216.199 252.834 216.348C245.295 216.766 237.75 217.395 230.211 218.168C230.112 218.168 230.012 218.168 229.912 218.168C229.071 218.211 228.242 218.298 227.408 218.398C226.971 218.448 226.535 218.479 226.099 218.523C225.657 218.572 225.221 218.647 224.778 218.71C224.485 218.747 224.186 218.784 223.894 218.84C214.031 219.949 204.187 221.283 194.405 222.703C193.539 222.635 192.66 222.685 191.807 222.853C191.383 222.934 190.953 223.027 190.529 223.102C190.081 223.177 189.632 223.239 189.19 223.314C188.442 223.439 187.701 223.619 186.966 223.812C176.959 225.326 166.972 226.996 157.003 228.784C156.262 228.89 155.52 229.015 154.785 229.146C154.168 229.258 153.551 229.376 152.941 229.519C142.878 231.357 132.841 233.308 122.841 235.326C121.296 234.61 129.165 232.298 129.695 232.012L129.682 232.018Z" fill="black"></path><path d="M199.222 237.931C198.867 237.893 198.624 237.607 198.388 237.364C197.422 236.292 196.637 235.077 195.827 233.887C194.12 231.252 192.618 228.485 191.241 225.657C191.553 225.613 191.864 225.582 192.176 225.545C192.774 225.47 193.372 225.395 193.964 225.289C195.185 228.168 196.493 231.015 197.883 233.831C198.338 234.759 198.805 235.688 199.285 236.61C199.416 236.853 199.584 237.102 199.652 237.37C199.727 237.632 199.54 237.931 199.26 237.931C199.247 237.931 199.235 237.931 199.216 237.931H199.222Z" fill="black"></path><path d="M187.867 218.193C184.876 211.003 182.452 203.47 180.533 195.819C181.181 195.769 181.835 195.719 182.483 195.657C182.421 195.657 182.359 195.669 182.303 195.676C182.988 195.607 183.667 195.526 184.346 195.445C185.499 200.529 186.857 205.557 188.446 210.535C189.792 214.666 191.268 218.728 192.888 222.722C192.521 222.753 192.153 222.803 191.792 222.872C191.368 222.953 190.938 223.046 190.514 223.121C190.365 223.146 190.215 223.171 190.066 223.196C189.306 221.538 188.577 219.875 187.86 218.199L187.867 218.193Z" fill="black"></path><path d="M176.379 173.414C175.949 170.336 175.581 167.246 175.27 164.149C176.503 164.006 177.737 163.856 178.97 163.719C179.157 163.701 179.338 163.676 179.525 163.657C179.562 164.056 179.6 164.454 179.637 164.847C180.484 174.149 181.78 183.414 183.712 192.542C183.17 192.629 182.628 192.728 182.092 192.834C181.369 192.984 180.646 193.152 179.93 193.327C178.372 186.704 177.201 180.018 176.372 173.414H176.379Z" fill="black"></path><path d="M174.917 123.19C176.381 123.015 177.845 122.829 179.303 122.629C178.3 135.184 178.263 147.813 179.247 160.355C178.936 160.392 178.624 160.423 178.319 160.461C177.203 160.598 176.082 160.741 174.973 160.903C173.889 148.374 173.802 135.713 174.923 123.19H174.917Z" fill="black"></path><path d="M183.114 83.2525C183.207 83.2338 183.301 83.2151 183.394 83.1964C184.198 83.0469 184.995 82.8849 185.793 82.7229C182.852 94.6294 180.777 106.76 179.619 118.978C179.12 119.053 178.615 119.128 178.117 119.209C177.157 119.364 176.204 119.545 175.251 119.738C176.584 107.327 179.133 95.0717 183.108 83.2525H183.114Z" fill="black"></path><path d="M189.432 67.4084C191.942 61.882 194.684 56.4552 197.693 51.1843C197.793 51.0036 197.942 50.7107 198.111 50.5861C198.204 50.5113 198.329 50.5051 198.441 50.5113C198.484 50.6173 198.565 50.7419 198.522 50.8727C193.407 59.882 189.363 69.4396 186.634 79.4333C186.622 79.4831 186.609 79.533 186.597 79.5766C186.048 79.6202 185.506 79.67 184.958 79.7261C184.746 79.7448 184.534 79.7697 184.316 79.7946C185.83 75.6078 187.538 71.4707 189.432 67.4084Z" fill="black"></path><path d="M166.756 249.208C166.214 249.158 165.964 248.691 165.715 248.261C163.995 245.289 162.4 242.261 160.781 239.233C159.466 236.859 158.17 234.473 156.924 232.055C157.005 232.049 157.086 232.043 157.167 232.03C157.098 232.03 157.03 232.043 156.961 232.049C157.89 231.962 158.818 231.862 159.746 231.756C161.416 236.815 163.491 241.675 166.157 246.304C166.5 247.183 167.516 247.974 167.179 248.965C167.123 249.114 166.974 249.208 166.818 249.208C166.793 249.208 166.774 249.208 166.749 249.208H166.756Z" fill="black"></path><path d="M146.691 206.386C146.348 205.108 146.018 203.825 145.7 202.541C147.507 202.361 149.314 202.18 151.115 201.937C151.301 201.912 151.495 201.881 151.682 201.85C153.688 209.931 155.868 217.968 158.037 225.993C158.267 226.859 158.51 227.719 158.759 228.572C158.429 228.61 158.099 228.647 157.775 228.691C156.984 228.791 156.192 228.909 155.401 229.046C151.806 221.775 148.71 214.273 146.691 206.386Z" fill="black"></path><path d="M139.73 170.922C140.715 170.666 141.706 170.423 142.684 170.149C143.469 169.931 144.266 169.719 145.058 169.52C146.516 179.314 148.565 188.996 150.896 198.622C148.908 198.834 146.945 199.214 144.989 199.632C142.721 190.161 140.945 180.579 139.737 170.922H139.73Z" fill="black"></path><path d="M137.985 135.103C137.997 133.053 138.041 131.009 138.122 128.966C138.166 128.959 138.216 128.947 138.265 128.941C138.29 128.941 138.315 128.934 138.346 128.928C138.334 128.928 138.321 128.928 138.309 128.935C138.328 128.935 138.346 128.934 138.359 128.928H138.346C138.346 128.928 138.359 128.928 138.365 128.928C138.378 128.928 138.39 128.928 138.402 128.928C138.434 128.928 138.459 128.922 138.49 128.91C138.49 128.91 138.502 128.91 138.508 128.91C139.412 128.754 140.309 128.579 141.2 128.399C141.661 128.305 142.122 128.218 142.589 128.125C142.153 140.118 142.733 152.131 144.309 164.131C144.434 165.109 144.564 166.087 144.695 167.065C143.754 167.246 142.82 167.451 141.885 167.669C141.044 167.782 140.216 167.937 139.387 168.13C138.141 157.183 137.636 146.149 137.979 135.115L137.985 135.103Z" fill="black"></path><path d="M143.555 90.2432C144.882 89.9815 146.209 89.7074 147.524 89.427C147.25 90.7603 146.975 92.0999 146.714 93.4394C144.564 104.025 143.231 114.679 142.708 125.352C142.402 125.408 142.097 125.464 141.792 125.526C140.602 125.757 139.418 125.994 138.24 126.255C138.851 114.112 140.558 102.031 143.561 90.2494L143.555 90.2432Z" fill="black"></path><path d="M149.873 70.4801C150.857 68.2434 151.854 65.9941 153.094 63.8882C153.237 63.6577 153.418 63.34 153.698 63.259C154.608 63.1655 153.81 64.5238 153.742 64.9537C151.474 72.0128 149.704 79.2215 148.153 86.4676C147.1 86.6607 146.053 86.8725 145.006 87.1218C144.782 87.1778 144.558 87.2277 144.34 87.2838C145.873 81.5891 147.63 75.938 149.879 70.4801H149.873Z" fill="black"></path><path d="M130.741 245.033C128.853 242.672 127.489 239.931 126.168 237.177C126.243 237.158 126.317 237.146 126.386 237.133C126.342 237.139 126.293 237.152 126.249 237.158C126.666 237.077 127.078 236.977 127.495 236.878C128.629 239.551 129.832 242.199 131.115 244.809C131.184 244.971 131.04 245.127 130.897 245.127C130.841 245.127 130.785 245.102 130.741 245.033Z" fill="black"></path><path d="M124.282 233.339C120.463 225.326 117.286 217.027 114.507 208.597C114.694 208.554 114.874 208.51 115.061 208.46C115.909 208.242 116.75 208.037 117.603 207.844C120.195 216.977 123.055 226.03 126.625 234.803C126.613 234.803 126.594 234.803 126.582 234.809C126.37 234.846 126.152 234.896 125.946 234.946C125.909 234.946 125.871 234.959 125.834 234.959C125.61 234.99 125.379 235.021 125.155 235.065C124.868 234.485 124.588 233.906 124.289 233.332L124.282 233.339Z" fill="black"></path><path d="M106.739 178.803C107.811 178.585 108.87 178.348 109.936 178.099C110.839 181.981 111.767 185.85 112.689 189.694C114.097 194.965 115.493 200.255 116.963 205.526C115.873 205.706 114.789 205.893 113.717 206.155C110.671 197.208 108.409 188.062 106.745 178.803H106.739Z" fill="black"></path><path d="M102.652 136.536C102.87 136.492 103.082 136.448 103.294 136.405C103.394 137.757 103.406 139.134 103.55 140.479C104.409 151.931 106.584 163.308 109.113 174.554C108.659 174.654 108.198 174.76 107.749 174.866C107.207 174.996 106.671 175.14 106.135 175.295C104.048 162.498 103.051 149.501 102.652 136.536Z" fill="black"></path><path d="M252.995 37.9754C252.148 37.1655 254.528 36.4739 255.026 36.1125C257.232 35.0284 259.45 33.9879 261.68 32.9537C263.68 32.0316 265.68 31.1157 267.687 30.2122C268.303 30.0253 269.93 28.8229 270.129 29.9194C270.079 30.1562 269.936 30.3618 269.724 30.4864C268.416 31.0907 267.095 31.6639 265.78 32.2683C261.724 34.1499 257.624 35.963 253.593 37.9007C253.413 38.0315 253.188 38.1187 252.989 37.9754H252.995Z" fill="black"></path><path d="M241.514 47.6264C241.289 47.1903 241.931 47.0532 242.205 46.8788C244.629 45.7136 247.152 44.7355 249.607 43.7012C255.582 41.3212 261.501 38.6047 267.557 36.5237C268.28 36.7231 267.414 37.2714 267.009 37.3586C264.062 38.5237 261.127 39.7075 258.186 40.9037C253.015 43.047 247.85 45.0595 242.741 47.3149C242.348 47.4021 241.869 48.0065 241.514 47.6327V47.6264Z" fill="black"></path><path d="M243.767 52.3617C243.512 51.9194 244.085 51.7449 244.39 51.5891C245.636 50.9848 246.895 50.4053 248.16 49.8321C252.483 47.8758 256.789 45.8571 261.156 44.0066C261.362 43.963 261.73 44.0004 261.736 44.2683C261.474 45.0721 260.315 45.1032 259.673 45.5269C255.268 47.4895 250.876 49.4833 246.477 51.4583C245.667 51.7948 244.895 52.2309 244.079 52.5362C243.954 52.5362 243.836 52.4739 243.767 52.3742V52.3617Z" fill="black"></path><path d="M244.758 55.5951C244.266 55.5764 244.06 54.8724 244.49 54.6107C246.01 53.7883 247.667 53.2026 249.25 52.4923C255.723 49.7634 262.178 47.0531 268.695 44.4612C269.455 44.2868 270.365 43.427 271.1 43.9815C271.443 44.9098 269.96 45.0407 269.387 45.3647C261.138 48.6544 252.876 52.1372 244.752 55.5951H244.758Z" fill="black"></path><path d="M249.651 57.2961C249.334 56.6419 251.458 56.2556 251.913 55.9379C255.359 54.6046 258.767 53.0158 262.268 51.8818C264.231 52.4177 258.698 53.9628 258.243 54.2806C255.533 55.3647 252.81 56.4176 250.087 57.4768C249.925 57.5391 249.726 57.4519 249.651 57.2961Z" fill="black"></path><path d="M254.525 59.3461C253.989 58.6359 255.403 58.505 255.815 58.2558C258.413 57.2589 261.011 56.2745 263.609 55.2838C265.329 54.6296 267.042 53.9817 268.762 53.3399C269.229 53.2403 270.444 52.4241 270.612 53.1344C270.487 53.5954 269.933 53.639 269.565 53.8135C266.899 54.8228 264.232 55.8259 261.565 56.8415C259.378 57.6826 257.173 58.4739 255.011 59.3586C254.874 59.4708 254.656 59.4645 254.525 59.3524V59.3461Z" fill="black"></path><path d="M264.532 59.6699C264.445 59.4892 264.638 59.3086 264.813 59.3646C265.211 59.4955 264.726 60.0188 264.532 59.6699Z" fill="black"></path><path d="M267.355 78.785C266.807 77.9252 268.327 77.7134 268.807 77.433C274.962 75.0093 281.205 72.7975 287.442 70.5981C290.576 69.6199 293.666 68.1994 296.85 67.5203C297.94 67.8131 297.024 68.7477 296.32 68.8287C289.062 71.2461 281.872 73.8567 274.663 76.4112C272.476 77.2087 270.233 77.9127 268.096 78.8099C267.891 79.0155 267.542 79.0093 267.349 78.785H267.355Z" fill="black"></path><path d="M263.473 85.2277C263.274 84.9224 263.386 84.5049 263.71 84.3492C265.168 83.6451 266.701 83.1155 268.208 82.5299C274.906 80.0065 281.61 77.5019 288.364 75.1281C289.193 74.6732 290.345 75.2527 289.299 76.0689C286.439 77.1467 283.523 78.1249 280.663 79.1965C275.448 81.128 270.215 83.0408 265.037 85.0719C264.532 85.2463 263.903 85.8196 263.473 85.2277Z" fill="black"></path><path d="M262.661 90.349C262.493 90.0126 262.674 89.5889 263.023 89.4705C266.007 88.2867 269.029 87.2088 272.032 86.0936C276.138 84.592 280.25 83.0967 284.381 81.6575C284.78 81.4768 285.278 81.3709 285.646 81.6886C286.163 82.7042 284.225 82.8973 283.614 83.2026C281.284 84.0188 278.954 84.8537 276.63 85.7011C272.58 87.1715 268.53 88.6605 264.505 90.2119C263.914 90.3802 263.104 91.1278 262.661 90.3553V90.349Z" fill="black"></path><path d="M264.526 95.2336C264.389 94.9532 264.501 94.5732 264.794 94.4423C267.778 93.1402 270.812 91.9564 273.828 90.729C276.806 89.5202 279.803 88.3614 282.806 87.2212C283.504 86.9595 284.208 86.6916 284.906 86.4299C285.242 86.2804 285.647 86.2181 285.952 86.4611C286.214 86.6418 286.065 86.9907 285.903 87.1901C280.083 89.7009 273.977 91.7881 268.127 94.3115C267.18 94.6978 266.252 95.0841 265.317 95.4953C265.031 95.6261 264.675 95.5265 264.526 95.2274V95.2336Z" fill="black"></path><path d="M267.891 98.0188C267.461 97.1216 268.85 97.0344 269.386 96.7416C272.003 95.7447 274.639 94.7727 277.274 93.8257C278.115 93.5765 278.925 93.1154 279.797 93.0095C281.05 93.2214 280.059 94.2182 279.299 94.3179C275.785 95.5889 272.196 96.8288 268.707 98.1372C268.439 98.293 268.084 98.3241 267.885 98.0188H267.891Z" fill="black"></path><path d="M266.431 105.446C266.338 105.252 266.419 105.009 266.612 104.916C268.039 104.206 269.528 103.614 270.992 102.972C274.631 101.408 278.313 99.8568 281.958 98.3428C281.952 98.3428 281.945 98.3428 281.939 98.349C282.861 97.9627 283.721 97.6139 284.643 97.24C284.911 97.0843 285.54 96.9721 285.603 97.3896C285.578 97.6139 285.41 97.7883 285.216 97.8942C284.244 98.293 283.223 98.7104 282.288 99.0967C278.182 100.791 274.064 102.555 269.964 104.299C268.961 104.735 267.945 105.147 266.961 105.626C266.768 105.72 266.525 105.639 266.431 105.446Z" fill="black"></path><path d="M262.952 112.156C262.828 111.894 262.928 111.539 263.202 111.42C264.691 110.766 266.167 110.093 267.644 109.427C270.591 108.087 273.538 106.76 276.485 105.427C277.258 105.196 278.024 104.436 278.853 104.66C279.301 104.847 278.934 105.42 278.628 105.564C278.267 105.732 277.906 105.888 277.544 106.056C272.915 108.149 268.279 110.23 263.688 112.405C263.42 112.529 263.09 112.43 262.952 112.156Z" fill="black"></path><path d="M256.62 120.878C256.116 119.944 258.396 119.508 258.963 119.071C261.15 118.037 263.349 117.047 265.542 116.037C271.162 113.607 277.461 110.324 283.087 108.305C283.393 108.318 283.629 108.629 283.436 108.91C283.081 109.477 282.296 109.545 281.742 109.863C279.561 110.816 277.393 111.794 275.224 112.766C269.629 115.29 264.047 117.832 258.489 120.436C257.891 120.586 257.162 121.495 256.62 120.878Z" fill="black"></path><path d="M254.619 127.24C254.12 127.209 254.475 126.473 254.805 126.86C254.93 127.009 254.805 127.252 254.619 127.24Z" fill="black"></path><path d="M254.522 137.526C253.912 136.76 255.432 136.43 255.881 136.081C258.367 134.797 260.903 133.607 263.42 132.386C269.307 129.557 275.201 126.754 281.139 124.043C282.809 123.289 284.472 122.529 286.155 121.8C286.379 121.732 286.659 121.751 286.828 121.931C287.014 122.38 286.441 122.66 286.099 122.791C282.391 124.43 278.703 126.131 275.033 127.844C268.466 130.978 261.806 134.031 255.351 137.383C255.065 137.551 254.815 137.769 254.522 137.526Z" fill="black"></path><path d="M255.785 137.894C255.504 137.296 256.47 137.159 256.825 136.891C259.423 135.57 262.046 134.286 264.663 133.003C268.813 130.965 272.962 128.922 277.13 126.916C278.252 126.374 279.386 125.831 280.514 125.296C280.707 125.19 280.956 125.159 281.149 125.277C281.392 125.483 281.037 125.838 280.819 125.919C278.052 127.24 275.292 128.573 272.532 129.919C268.364 131.95 264.208 134.012 260.059 136.081C258.788 136.722 257.498 137.339 256.246 138.018C256.09 138.106 255.884 138.037 255.791 137.894H255.785Z" fill="black"></path><path d="M255.612 129.558C254.77 129.445 254.945 128.442 255.618 128.181C257.175 127.321 258.82 126.635 260.421 125.869C264.883 123.813 269.344 121.769 273.83 119.782C276.01 118.816 278.191 117.863 280.384 116.928C281.026 116.698 281.886 116.037 282.471 116.673C282.702 117.159 282.147 117.626 281.724 117.751C272.951 121.501 264.16 125.489 255.599 129.558H255.612Z" fill="black"></path><path d="M263.316 140.174C262.961 139.458 264.064 139.308 264.5 139.047C266.774 138.075 269.005 137.19 271.291 136.268C276.5 134.193 281.69 132.062 286.918 130.037C287.59 129.913 287.896 130.492 287.279 130.909C285.528 131.657 283.734 132.318 281.971 133.034C276.083 135.377 270.201 137.782 264.326 140.137C264.002 140.274 263.572 140.561 263.31 140.168L263.316 140.174Z" fill="black"></path><path d="M258.758 157.788C258.378 157.159 259.586 157.022 259.948 156.766C260.92 156.342 261.823 155.969 262.776 155.576C271.792 151.819 280.957 148.38 290.097 144.922C292.595 143.981 295.094 143.047 297.599 142.124C298.004 141.95 298.496 141.782 298.876 142.093C299.362 142.648 298.477 143.165 297.991 143.271C287.68 147.053 277.455 151.078 267.15 154.884C264.589 155.825 261.966 156.741 259.443 157.744C259.219 157.832 258.957 158.012 258.758 157.782V157.788Z" fill="black"></path><path d="M261.849 164.33C261.413 164.286 261.438 163.688 261.856 163.601C263.289 162.928 264.722 162.249 266.161 161.595C273.475 158.255 280.846 155.046 288.229 151.863C290.435 150.928 292.634 149.956 294.852 149.059C295.469 148.916 295.911 149.408 295.313 149.894C284.136 154.623 273.052 159.694 261.849 164.33Z" fill="black"></path><path d="M269.18 167.775C269.037 167.757 268.838 167.644 268.757 167.507C268.296 166.43 270.003 166.187 270.676 165.794C273.268 164.722 275.909 163.757 278.539 162.785C280.844 161.944 283.143 161.103 285.461 160.299C286.183 160.112 288.127 159.003 288.096 160.398C288.009 160.666 287.791 160.866 287.535 160.984C286.408 161.389 285.261 161.769 284.134 162.174C279.13 163.944 274.077 165.856 269.174 167.775H269.18Z" fill="black"></path><path d="M278.798 168.673C278.73 168.573 278.755 168.424 278.86 168.355C279.589 167.931 280.368 167.601 281.128 167.246C284.368 165.832 287.583 164.249 290.891 163.059C291.321 163.078 291.191 163.396 290.935 163.576C287.558 165.016 284.181 166.48 280.817 167.956C280.2 168.205 279.608 168.542 278.991 168.766C278.916 168.766 278.842 168.729 278.804 168.667L278.798 168.673Z" fill="black"></path><path d="M288.318 169.782C288.162 169.346 288.723 169.028 289.053 169.308C289.333 169.489 289.14 169.962 288.885 170.031C288.66 170.124 288.411 170.025 288.312 169.782H288.318Z" fill="black"></path><path d="M230.879 176.149C230.661 175.825 230.798 175.376 231.134 175.208C232.461 174.429 233.845 173.744 235.197 173.015C236.063 172.629 236.686 173.414 235.882 174.049C235.371 174.38 234.804 174.623 234.274 174.928C233.458 175.383 232.611 175.8 231.82 176.298C231.533 176.529 231.085 176.448 230.885 176.143L230.879 176.149Z" fill="black"></path><path d="M225.126 192.38C224.709 192.292 224.778 191.707 225.158 191.663C228.223 190.299 231.338 189.009 234.416 187.719C234.404 187.725 234.391 187.732 234.372 187.738C234.372 187.738 234.36 187.738 234.354 187.744C238.84 185.931 243.207 183.987 247.724 182.324C248.092 182.292 248.441 182.56 248.142 182.922C245.338 184.417 242.086 185.389 239.182 186.704C234.46 188.573 229.843 190.697 225.12 192.38H225.126Z" fill="black"></path><path d="M227.93 198.323C227.824 198.112 227.917 197.85 228.129 197.75C229.506 196.996 230.945 196.367 232.359 195.688C236.602 193.837 240.771 191.545 245.113 190.037C245.649 190.068 245.599 190.635 245.244 190.897C243.967 191.551 242.615 192.074 241.313 192.691C237.051 194.641 232.752 196.529 228.509 198.523C228.303 198.629 228.042 198.535 227.942 198.33L227.93 198.323Z" fill="black"></path><path d="M231.998 202.747C231.443 201.694 233.593 201.308 234.228 200.866C239.182 198.591 244.147 196.342 249.15 194.186C249.923 193.813 250.752 194.429 249.948 195.146C247.213 196.448 244.365 197.582 241.605 198.866C238.677 200.205 235.724 201.495 232.839 202.928C232.565 203.108 232.172 203.028 231.991 202.747H231.998Z" fill="black"></path><path d="M240.407 204.834C239.752 204.124 240.805 203.669 241.366 203.451C244.002 202.292 246.656 201.171 249.304 200.043C250.506 199.557 251.678 198.984 252.899 198.554C254.201 198.485 253.64 199.657 252.749 199.837C248.88 201.457 245.011 203.102 241.185 204.84C240.955 205.021 240.631 205.021 240.413 204.828L240.407 204.834Z" fill="black"></path><path d="M240.914 209.644C240.802 209.414 240.914 209.165 241.12 209.046C243.974 207.526 246.927 206.199 249.83 204.778C251.282 204.105 252.709 203.376 254.179 202.741C254.366 202.697 254.653 202.716 254.784 202.878C254.989 203.582 253.942 203.744 253.494 204.024C251.326 205.046 249.164 206.074 247.014 207.127C245.182 208.031 243.326 208.897 241.513 209.844C241.301 209.962 241.02 209.856 240.914 209.644Z" fill="black"></path><path d="M245.217 211.009C244.911 210.616 245.391 210.336 245.709 210.186C249.541 208.28 253.447 206.523 257.323 204.71C258.407 204.274 259.447 203.626 260.562 203.308C260.799 203.308 261.073 203.451 260.918 203.713C260.432 204.311 259.522 204.429 258.868 204.816C254.488 206.853 250.052 208.822 245.771 211.046C245.603 211.171 245.36 211.164 245.223 211.003L245.217 211.009Z" fill="black"></path><path d="M251.101 212.236C250.989 212.012 251.082 211.725 251.313 211.613C252.74 210.934 254.204 210.342 255.649 209.706C256.603 209.301 257.537 208.865 258.503 208.485C258.702 208.429 259.008 208.454 259.151 208.635C259.338 209.077 258.777 209.37 258.428 209.495C257.332 209.968 256.229 210.448 255.132 210.928C253.992 211.439 252.846 211.912 251.718 212.454C251.494 212.566 251.207 212.473 251.095 212.242L251.101 212.236Z" fill="black"></path><path d="M244.926 229.426C244.59 229.121 244.602 228.523 245.007 228.28C246.421 227.382 247.936 226.653 249.418 225.862C253.711 223.619 258.016 221.395 262.347 219.233C263.269 218.772 264.191 218.317 265.113 217.869C265.418 217.7 265.761 217.551 266.116 217.638C266.527 217.688 266.752 218.111 266.54 218.479C266.34 218.921 265.848 219.083 265.449 219.283C259.175 222.373 252.932 225.601 246.77 228.884C246.172 229.114 245.587 229.987 244.932 229.438L244.926 229.426Z" fill="black"></path><path d="M252.365 230.255C252.408 229.974 252.452 229.688 252.495 229.407C252.495 229.407 252.483 229.395 252.477 229.389C252.464 229.395 252.452 229.401 252.439 229.414C257.891 226.703 263.312 223.756 268.863 221.314C269.012 221.314 269.255 221.37 269.312 221.532C269.386 221.744 269.212 221.999 269.056 222.13C268.34 222.548 267.561 222.865 266.826 223.252C262.321 225.495 257.804 227.706 253.355 230.055C253.044 230.249 252.714 230.573 252.358 230.255H252.365Z" fill="black"></path><path d="M254.965 233.326C254.803 233.077 254.903 232.759 255.159 232.622C256.604 231.856 258.081 231.158 259.545 230.423C263.015 228.822 266.43 226.921 269.987 225.588C270.236 225.6 270.592 225.731 270.529 226.043C270.28 226.896 269.14 226.959 268.473 227.395C266.261 228.429 264.049 229.47 261.838 230.51C259.775 231.507 257.669 232.398 255.645 233.463C255.42 233.6 255.121 233.557 254.965 233.326Z" fill="black"></path><path d="M265.174 231.837C265.161 231.682 265.267 231.582 265.392 231.501C266.426 230.872 267.448 230.161 268.538 229.644C268.937 229.582 269.143 229.806 268.881 230.161C268.027 230.822 266.974 231.233 266.04 231.8C265.772 231.943 265.286 232.348 265.174 231.837Z" fill="black"></path><path d="M263.355 238.118C262.669 237.009 264.763 236.591 265.411 236.08C266.819 235.326 268.227 234.579 269.641 233.837C270.383 233.563 271.174 232.672 271.99 233.14C272.458 233.613 271.754 234.23 271.299 234.386C269.081 235.551 266.744 236.778 264.588 237.974C264.208 238.242 263.735 238.554 263.355 238.118Z" fill="black"></path><path d="M264.476 242.005C264.295 241.8 264.364 241.469 264.607 241.351C268.258 239.532 271.965 237.812 275.647 236.049C276.327 235.775 276.962 235.326 277.679 235.17C278.713 235.295 277.722 236.105 277.199 236.236C273.535 237.962 269.884 239.725 266.246 241.501C265.71 241.656 265 242.423 264.482 242.005H264.476Z" fill="black"></path><path d="M271.759 243.133C271.709 242.84 271.815 242.572 272.058 242.404C272.737 241.993 273.497 241.719 274.22 241.389C274.793 241.189 275.335 240.778 275.952 240.759C276.432 240.759 276.806 241.164 276.513 241.619C276.195 242.167 275.479 242.279 274.962 242.579C274.133 242.934 273.342 243.395 272.501 243.7C272.482 243.7 272.463 243.7 272.438 243.7C272.127 243.7 271.803 243.451 271.759 243.133Z" fill="black"></path><path d="M274.116 247.881C273.942 247.532 274.154 247.058 274.552 246.996C275.755 246.454 276.951 245.862 278.179 245.401C278.422 245.351 278.677 245.401 278.883 245.544C279.674 246.591 276.652 247.258 276.004 247.694C275.406 247.856 274.559 248.66 274.11 247.881H274.116Z" fill="black"></path><path d="M276.473 249.464C276.567 249.282 276.869 249.401 276.743 249.602C276.662 249.778 276.373 249.64 276.473 249.464Z" fill="black"></path><path d="M212.242 97.7106C212.21 97.691 212.21 97.6519 212.242 97.6389C212.32 97.5998 212.314 97.7497 212.242 97.7106Z" fill="black"></path><path d="M209.749 104.567C208.328 103.433 211.506 102.405 212.229 101.888C214.378 100.754 216.534 99.6262 218.684 98.5047C221.475 97.053 224.272 95.6137 227.088 94.2306C227.63 93.9627 228.758 93.2649 229.001 94.1683C228.964 94.5795 228.652 94.8786 228.285 95.0219C225.693 96.2929 223.12 97.5951 220.559 98.9221C217.232 100.698 213.836 102.361 210.615 104.312C210.441 104.598 210.048 104.716 209.749 104.561V104.567Z" fill="black"></path><path d="M212.729 99.1899C212.106 98.5419 213.981 97.3083 214.23 98.2055C214.243 98.5917 213.919 98.8534 213.613 99.0341C213.408 99.3519 213.015 99.4889 212.722 99.1899H212.729Z" fill="black"></path><path d="M216.872 103.364C216.505 102.779 217.595 102.181 218 102.623C218.218 103.165 217.265 103.925 216.872 103.364Z" fill="black"></path><path d="M207.648 125.134C207.056 124.529 208.233 124.174 208.62 123.894C211.062 122.554 213.536 121.271 216.015 120C217.268 119.358 218.52 118.723 219.779 118.093C219.997 117.962 220.258 117.894 220.501 117.981C220.888 118.106 220.632 118.579 220.395 118.735C216.402 120.779 212.395 122.797 208.439 124.909C208.19 125.034 207.934 125.339 207.648 125.134Z" fill="black"></path><path d="M208.346 129.626C208.152 129.103 208.807 128.86 209.131 128.679C210.919 127.701 212.657 126.617 214.483 125.738C214.975 125.62 215.411 125.963 215.081 126.461C214.838 126.841 214.358 126.959 213.997 127.202C212.426 128.075 210.825 128.935 209.286 129.813C209.037 130.131 208.464 130.025 208.346 129.632V129.626Z" fill="black"></path><path d="M210.27 135.638C210.177 135.451 210.264 135.227 210.445 135.127C213.255 133.62 216.108 132.187 218.974 130.791C220.277 130.156 221.579 129.52 222.893 128.891C223.111 128.797 223.579 128.779 223.597 129.09C223.548 129.57 222.999 129.682 222.644 129.875C220.115 131.096 217.585 132.33 215.074 133.589C213.629 134.311 212.202 135.046 210.781 135.807C210.601 135.906 210.364 135.813 210.27 135.632V135.638Z" fill="black"></path><path d="M209.675 140.829C209.139 139.757 211.37 139.439 212.012 138.978C215.127 137.551 218.236 136.1 221.351 134.673C221.737 134.374 222.74 134.461 222.423 135.134C222.267 135.458 221.93 135.595 221.613 135.726C220.323 136.311 219.033 136.91 217.75 137.508C215.924 138.361 214.105 139.221 212.292 140.093C211.569 140.38 210.909 140.891 210.161 141.078C209.974 141.078 209.787 140.991 209.669 140.816L209.675 140.829Z" fill="black"></path><path d="M211.279 147.333C210.737 146.305 212.731 145.825 213.273 145.364C214.918 144.43 216.55 143.495 218.201 142.573C219.429 141.888 220.656 141.196 221.896 140.523C222.108 140.411 222.45 140.367 222.668 140.486C223.161 140.698 222.818 141.34 222.482 141.545C219.647 143.103 216.83 144.691 214.058 146.33C213.422 146.71 212.762 147.072 212.164 147.514C211.883 147.719 211.46 147.614 211.279 147.333Z" fill="black"></path><path d="M215.329 149.034C215.036 148.604 215.765 148.193 216.045 148.567C216.27 148.972 215.609 149.464 215.329 149.034Z" fill="black"></path><path d="M215.189 162.13C214.902 161.613 215.887 161.214 215.986 161.813C216.067 162.286 215.438 162.585 215.189 162.13Z" fill="black"></path><path d="M215.15 170.299C215.069 170.174 215.057 170.019 215.126 169.881C215.574 169.389 216.197 169.084 216.727 168.685C217.263 168.423 217.836 167.632 218.471 167.987C218.546 168.056 218.546 168.193 218.521 168.28C218.041 169.171 216.583 169.645 215.805 170.355C215.636 170.536 215.294 170.523 215.157 170.299H215.15Z" fill="black"></path><path d="M222.669 167.8C222.681 167.57 222.88 167.42 223.099 167.42C223.317 167.42 223.491 167.638 223.479 167.85C223.466 168.081 223.267 168.23 223.049 168.23C222.831 168.23 222.656 168.012 222.669 167.8Z" fill="black"></path><path d="M362.301 89.4332C361.722 88.5173 366.208 86.7167 366.943 86.1622C371.255 83.8444 375.585 81.5516 379.921 79.2899C385.672 76.2806 391.442 73.3087 397.255 70.424C398.195 69.9754 399.118 69.4769 400.071 69.0595C400.283 69.0096 400.575 69.0159 400.725 69.1965C400.93 69.6389 400.401 69.9691 400.046 70.1062C395.697 72.2246 391.385 74.4239 387.08 76.642C379.055 80.8787 370.875 84.9099 362.987 89.3833C362.844 89.6263 362.476 89.6886 362.301 89.4332Z" fill="black"></path><path d="M362.244 95.0343C361.26 94.1496 363.715 93.3022 364.263 92.8848C366.412 91.7134 368.624 90.6667 370.811 89.5639C379.235 85.4019 387.683 81.2774 396.225 77.3708C397.484 76.8412 398.668 76.1808 399.951 75.7447C400.549 75.6637 400.861 76.187 400.381 76.6294C399.415 77.2275 398.288 77.5827 397.278 78.0811C397.297 78.0749 397.309 78.0686 397.328 78.0624C385.571 83.377 373.621 89.4331 362.232 95.0218L362.238 95.0281L362.244 95.0343Z" fill="black"></path><path d="M367.859 100.305C368.021 99.7882 368.687 99.6387 369.105 99.3459C371.603 97.9876 374.176 96.7602 376.731 95.5141C382.606 92.6481 388.494 89.807 394.419 87.0469C395.354 86.7167 396.238 85.9877 397.223 85.9192C397.765 85.9877 397.509 86.5859 397.148 86.7416C387.572 91.1902 378.027 95.7384 368.625 100.542C368.432 100.91 367.784 100.754 367.859 100.312V100.305Z" fill="black"></path><path d="M363.604 110.405C363.013 109.29 365.224 108.966 365.891 108.542C368.184 107.589 370.489 106.673 372.794 105.751C379.268 103.209 385.71 100.53 392.258 98.2183C393.592 98.2619 392.869 99.4145 391.966 99.5516C389.336 100.536 386.713 101.533 384.103 102.561C377.76 105.066 371.386 107.52 365.118 110.206C364.608 110.436 364.059 110.991 363.611 110.405H363.604Z" fill="black"></path><path d="M368.835 114.037C368.399 113.059 370.735 112.741 371.359 112.355C375.109 110.959 378.866 109.582 382.636 108.237C384.91 107.439 387.184 106.617 389.464 105.838C390.081 105.695 391.34 104.885 391.57 105.85C391.483 106.343 390.96 106.492 390.542 106.623C386.362 108.056 382.2 109.545 378.044 111.053C375.284 112.1 372.387 113.034 369.683 114.193C369.408 114.392 368.997 114.355 368.829 114.037H368.835Z" fill="black"></path><path d="M368.809 121.545C368.659 121.545 368.516 121.458 368.448 121.321C368.18 120.523 369.632 120.368 370.13 120.087C372.759 119.121 375.407 118.218 378.061 117.315C381.694 116.081 385.326 114.872 388.977 113.707C389.382 113.564 389.924 113.346 390.261 113.732C390.516 114.461 389.444 114.598 388.958 114.779C387.463 115.265 385.962 115.751 384.466 116.243C379.251 117.994 373.98 119.701 368.809 121.539V121.545Z" fill="black"></path><path d="M368.175 127.078C367.795 126.199 370.013 125.912 370.574 125.551C374.63 124.037 378.655 122.355 382.755 120.978C383.016 120.966 383.434 121.128 383.278 121.458C382.761 122.243 381.272 122.349 380.431 122.797C376.555 124.28 372.655 125.707 368.811 127.277C368.599 127.383 368.3 127.327 368.175 127.084V127.078Z" fill="black"></path><path d="M365.863 133.9C365.782 133.688 365.895 133.451 366.1 133.37C367.639 132.81 369.203 132.33 370.754 131.813C373.919 130.772 377.097 129.751 380.275 128.741C380.493 128.66 380.754 128.598 380.979 128.704C382.299 129.451 377.122 130.448 376.617 130.772C373.209 131.881 369.782 132.959 366.393 134.137C366.187 134.212 365.944 134.112 365.863 133.9Z" fill="black"></path><path d="M366.274 139.476C366.162 139.177 366.317 138.847 366.61 138.729C368.081 138.118 369.57 137.545 371.046 136.965C375.613 135.177 380.18 133.383 384.76 131.613C386.679 130.872 388.604 130.137 390.529 129.395C391.146 129.24 392.828 128.168 392.928 129.29C392.853 129.539 392.697 129.713 392.473 129.844C391.14 130.367 389.781 130.866 388.442 131.389C383.9 133.134 379.364 134.897 374.835 136.685C372.23 137.732 369.595 138.704 367.021 139.819C366.735 139.95 366.38 139.763 366.274 139.483V139.476Z" fill="black"></path><path d="M365.129 142.573C365.08 142.361 365.217 142.168 365.41 142.124C366.656 141.763 367.921 141.339 369.154 140.966C372.55 139.913 375.865 138.928 379.241 137.919C381.908 137.128 384.575 136.349 387.248 135.57C387.759 135.47 388.363 135.059 388.843 135.433C388.949 135.52 388.949 135.676 388.874 135.788C388.556 136.293 387.84 136.255 387.335 136.467C383.491 137.582 379.653 138.71 375.815 139.857C372.55 140.828 369.279 141.769 366.014 142.741C365.715 142.835 365.248 143.009 365.129 142.579V142.573Z" fill="black"></path><path d="M366.256 148.803C366.131 148.28 366.655 148.043 367.078 147.975C368.405 147.595 369.739 147.233 371.066 146.853C372.991 146.386 374.885 145.613 376.829 145.296C377.595 145.395 377.409 146.162 376.81 146.374C373.901 147.208 370.991 148.068 368.088 148.928C367.502 149.04 366.524 149.651 366.256 148.797V148.803Z" fill="black"></path><path d="M369.398 153.433C369.323 153.24 369.429 153.028 369.616 152.953C372.607 151.794 375.647 150.772 378.663 149.688C380.582 149.009 382.501 148.336 384.426 147.67C384.744 147.539 385.442 147.296 385.51 147.794C385.398 148.261 384.844 148.305 384.463 148.461C381.809 149.383 379.155 150.311 376.507 151.258C374.295 152.056 372.077 152.816 369.878 153.651C369.691 153.726 369.467 153.62 369.398 153.433Z" fill="black"></path><path d="M379.271 156.155C379.215 156 379.29 155.8 379.452 155.75C380.2 155.52 380.954 155.327 381.708 155.121C384.972 154.342 388.231 153.227 391.514 152.641C392.1 152.803 391.458 153.271 391.134 153.289C387.82 154.155 384.511 155.021 381.203 155.919C380.655 156.056 380.113 156.23 379.564 156.367C379.44 156.367 379.315 156.28 379.271 156.162V156.155Z" fill="black"></path><path d="M378.529 162.318C377.8 161.395 379.457 161.177 380.049 160.947C381.881 160.361 383.706 159.819 385.507 159.271C385.501 159.271 385.494 159.271 385.488 159.271C385.476 159.271 385.463 159.277 385.445 159.283C390.466 157.757 395.488 156.274 400.516 154.797C401.868 154.405 403.226 154.012 404.585 153.626C404.821 153.539 405.102 153.52 405.332 153.651C405.613 153.782 405.606 154.112 405.394 154.305C399.625 156.367 393.488 157.769 387.619 159.688C384.778 160.579 381.962 161.327 379.183 162.311C378.996 162.461 378.716 162.48 378.522 162.311L378.529 162.318Z" fill="black"></path><path d="M387.928 164.323C387.847 164.161 387.971 164.006 388.127 163.968C389.554 163.545 391.006 163.177 392.445 162.791C395.579 161.968 398.719 161.171 401.859 160.367C402.133 160.292 402.501 160.186 402.694 160.461C402.694 160.629 402.551 160.747 402.414 160.822C401.361 161.133 400.289 161.364 399.23 161.644C395.697 162.542 392.164 163.451 388.626 164.317C388.401 164.342 388.09 164.566 387.928 164.317V164.323Z" fill="black"></path><path d="M390.71 171.85C390.741 171.507 391.152 171.42 391.414 171.289C394.324 170.112 397.295 169.127 400.249 168.062C400.517 167.913 401.177 168.025 400.866 168.423C400.093 168.984 399.028 169.103 398.155 169.501C395.887 170.342 393.588 171.121 391.352 172.043C391.134 172.224 390.722 172.224 390.716 171.856L390.71 171.85Z" fill="black"></path><path d="M392.505 176.473C392.555 175.856 393.359 175.725 393.813 175.476C395.084 175.027 396.343 174.479 397.645 174.149C398.075 174.174 398.206 174.454 397.876 174.76C397.639 174.953 397.315 174.996 397.034 175.115C395.763 175.669 394.262 175.906 393.147 176.71C392.929 176.909 392.53 176.784 392.505 176.473Z" fill="black"></path><path d="M399.923 179.744C399.425 178.542 401.748 178.355 402.484 177.937C404.745 177.127 407.001 176.311 409.262 175.501C410.097 175.059 411.188 175.651 410.209 176.467C408.907 177.046 407.493 177.445 406.153 177.975C404.421 178.623 402.677 179.246 400.97 179.95C400.652 180.212 400.122 180.118 399.923 179.744Z" fill="black"></path><path d="M325.656 182.012C324.759 181.196 327.588 180.38 328.092 180.012C331.936 178.199 335.868 176.386 339.731 174.654C343.201 173.084 346.69 171.557 350.185 170.056C350.865 169.626 351.756 170.149 350.84 170.779C344.21 173.613 337.619 176.604 331.101 179.564C329.837 180.149 328.535 180.704 327.301 181.308C326.896 181.508 326.528 181.669 326.186 181.925C326.055 182.074 325.83 182.118 325.662 182.006L325.656 182.012Z" fill="black"></path><path d="M315.348 189.881C315.006 189.788 314.95 189.283 315.274 189.121C316.32 188.753 317.323 188.249 318.37 187.825C321.473 186.51 324.582 185.227 327.697 183.956C328.059 183.8 328.507 183.557 328.862 183.856C329.174 184.66 327.317 184.909 326.806 185.239C322.981 186.735 319.186 188.517 315.355 189.881H315.348Z" fill="black"></path><path d="M308.299 196.429C308.343 196.168 308.617 196.062 308.816 195.943C310.062 195.295 311.365 194.76 312.642 194.186C317.657 191.974 322.729 189.9 327.819 187.869C328.137 187.719 328.81 187.813 328.71 188.28C328.629 188.548 328.43 188.722 328.181 188.828C326.299 189.582 324.417 190.342 322.548 191.108C318.031 193.034 313.414 194.76 308.929 196.747C308.698 196.996 308.218 196.778 308.293 196.429H308.299Z" fill="black"></path><path d="M306.923 203.158C306.718 202.784 306.998 202.367 307.359 202.261C308.842 201.582 310.35 200.971 311.858 200.354C319.397 197.364 326.892 194.124 334.549 191.507C334.848 191.513 335.278 191.706 335.185 192.068C334.904 192.953 333.708 192.934 332.991 193.326C330.755 194.174 328.518 195.034 326.294 195.906C320.356 198.267 314.394 200.579 308.5 203.046C308.001 203.245 307.322 203.819 306.929 203.164L306.923 203.158Z" fill="black"></path><path d="M314.664 206.61C314.508 206.317 314.614 205.906 314.926 205.756C317.885 204.411 320.95 203.289 323.96 202.055C326.975 200.865 329.985 199.669 333.006 198.504C333.798 198.317 334.664 197.532 335.467 197.987C336.19 198.959 334.041 199.302 333.455 199.613C331.193 200.479 328.932 201.364 326.683 202.261C322.957 203.787 319.162 205.164 315.511 206.865C315.218 207.04 314.813 206.896 314.658 206.604L314.664 206.61Z" fill="black"></path><path d="M315.673 214.897C313.916 214.012 317.467 213.021 318.097 212.647C320.339 211.7 322.607 210.791 324.857 209.869C327.791 208.678 330.738 207.507 333.704 206.392C334.246 206.224 335.087 205.663 335.473 206.323C335.536 206.859 334.956 207.096 334.539 207.227C333.965 207.445 333.392 207.663 332.813 207.881C327.056 210.068 321.293 212.517 315.673 214.897Z" fill="black"></path><path d="M319.05 220.031C318.688 219.675 319.018 219.177 319.423 219.027C320.221 218.604 321.056 218.242 321.86 217.875C324.358 216.735 326.857 215.619 329.374 214.517C331.66 213.507 333.953 212.517 336.252 211.538C336.937 211.364 339.037 209.906 339.143 211.165C339.031 211.657 338.539 211.819 338.115 211.974C335.504 213.071 332.906 214.199 330.308 215.333C326.813 216.897 323.262 218.367 319.816 220.037C319.617 220.255 319.237 220.255 319.043 220.037L319.05 220.031Z" fill="black"></path><path d="M323.099 224.012C323.005 223.756 323.136 223.469 323.385 223.37C324.874 222.778 326.376 222.217 327.871 221.644C330.12 220.784 332.376 219.924 334.625 219.064C335.198 218.921 336.058 218.223 336.519 218.859C336.55 219.22 336.214 219.463 335.902 219.563C334.569 220.074 333.223 220.585 331.89 221.096C329.161 222.136 326.438 223.202 323.728 224.292C323.479 224.392 323.18 224.255 323.092 224.005L323.099 224.012Z" fill="black"></path><path d="M326.235 226.978C326.335 226.647 326.677 226.529 326.964 226.392C329.861 225.164 332.802 224.031 335.73 222.865C337.045 222.404 338.322 221.75 339.668 221.395C339.88 221.395 340.166 221.47 340.266 221.675C340.409 222.161 339.848 222.498 339.456 222.61C336.933 223.594 334.403 224.573 331.886 225.582C330.222 226.28 328.447 226.865 326.845 227.638C326.459 227.719 326.129 227.345 326.235 226.971V226.978Z" fill="black"></path><path d="M326.016 233.432C325.785 232.654 326.876 232.597 327.362 232.33C330.022 231.32 332.695 230.355 335.355 229.358C338.371 228.236 341.393 227.121 344.421 226.037C344.932 225.894 346.433 225.077 346.358 226.08C345.916 226.809 344.838 226.797 344.128 227.164C339.586 228.803 335.05 230.492 330.546 232.224C329.268 232.722 327.979 233.202 326.714 233.744C326.446 233.85 326.122 233.707 326.022 233.432H326.016Z" fill="black"></path><path d="M329.461 238.298C328.813 237.183 331.722 236.566 332.426 236.105C336.121 234.516 339.822 232.953 343.548 231.439C344.489 231.171 345.411 230.429 346.408 230.523C347.274 230.884 346.308 231.657 345.772 231.75C340.607 233.85 335.398 235.943 330.376 238.361C330.127 238.616 329.679 238.604 329.467 238.298H329.461Z" fill="black"></path><path d="M331.03 241.55C330.55 241.089 331.248 240.678 331.64 240.51C332.917 239.862 334.22 239.258 335.516 238.635C336.73 238.049 337.952 237.469 339.179 236.896C339.422 236.778 339.939 236.74 339.977 237.089C339.977 237.276 339.846 237.451 339.696 237.557C338.506 238.18 337.254 238.709 336.051 239.314C334.593 240.036 333.042 240.734 331.628 241.501C331.484 241.675 331.21 241.688 331.036 241.55H331.03Z" fill="black"></path><path d="M412.86 193.981C412.598 193.432 413.508 193.152 413.844 193.495C414.087 193.925 413.097 194.479 412.86 193.981Z" fill="black"></path><path d="M410.406 200.635C410.007 199.451 411.882 199.488 412.599 199.146C413.309 199.021 414.125 198.411 414.786 198.921C415.309 199.85 413.677 200.049 413.097 200.286C412.387 200.492 411.695 200.797 410.985 200.965C410.755 200.965 410.524 200.84 410.412 200.622L410.406 200.635Z" fill="black"></path><path d="M429.913 195.931C429.92 195.482 430.306 195.133 430.748 195.133C431.191 195.133 431.558 195.532 431.546 195.968C431.54 196.417 431.153 196.766 430.711 196.766C430.269 196.766 429.901 196.367 429.913 195.931Z" fill="black"></path><path d="M405.418 205.918C405.418 205.607 405.705 205.326 405.973 205.27C409.163 204.348 412.396 203.532 415.605 202.697C416.216 202.629 416.751 203.164 416.178 203.669C414.839 204.33 413.237 204.479 411.804 204.959C409.885 205.476 407.96 206.03 406.054 206.579C405.711 206.591 405.387 206.261 405.418 205.918Z" fill="black"></path><path d="M404.828 214.853C404.411 214.367 405.956 213.769 406.192 214.18C406.161 214.629 405.601 214.672 405.283 214.84C405.146 214.934 404.959 214.996 404.828 214.853Z" fill="black"></path><path d="M415.872 194.018C415.673 193.993 415.523 193.831 415.492 193.632C415.436 193.246 415.878 193.065 416.134 192.953C417.878 192.143 419.698 191.563 421.492 190.884C421.76 190.791 422.184 190.81 422.315 191.102C422.346 191.333 422.177 191.539 421.997 191.669C421.193 192.031 420.339 192.311 419.523 192.654C418.302 193.096 417.081 193.632 415.872 194.025V194.018Z" fill="black"></path><path d="M427.446 187.102C427.334 186.891 427.527 186.648 427.757 186.691C428.337 186.797 427.745 187.582 427.446 187.102Z" fill="black"></path><path d="M405.417 215.214C404.949 214.454 407.691 213.819 408.227 213.482C412.195 211.993 416.152 210.448 420.164 209.077C420.345 209.052 420.706 209.121 420.669 209.364C420.314 210.099 419.149 210.08 418.476 210.448C414.856 211.794 411.199 213.108 407.653 214.635C407.03 214.884 406.439 215.27 405.803 215.445C405.647 215.445 405.498 215.364 405.417 215.214Z" fill="black"></path><path d="M406.461 208.934C405.956 208.099 407.021 207.731 407.669 207.669C408.417 207.563 409.183 207.258 409.943 207.376C410.622 207.551 410.56 208.261 409.981 208.535C409.669 208.678 409.314 208.722 408.984 208.797C408.33 208.915 407.676 209.071 407.028 209.214C406.816 209.214 406.598 209.115 406.467 208.934H406.461Z" fill="black"></path><path d="M400.922 220.579C400.193 220.579 400.112 219.451 400.835 219.345C404.062 218.373 407.345 217.544 410.61 216.716C410.947 216.66 411.514 216.884 411.42 217.295C411.277 217.8 410.766 217.943 410.311 218.043C407.19 218.884 404.043 219.794 400.922 220.579Z" fill="black"></path><path d="M398.376 226.385C398.127 226.28 398.189 225.875 398.464 225.856C401.591 224.984 404.682 224.018 407.816 223.158C409.018 222.822 410.214 222.485 411.411 222.149C411.579 222.099 411.759 222.118 411.915 222.186C412.302 222.373 411.909 222.716 411.691 222.822C407.28 224.03 402.837 225.438 398.382 226.379L398.376 226.385Z" fill="black"></path><path d="M395.665 230.23C395.578 229.407 396.874 229.345 397.036 230.062C397.067 230.822 395.753 231.077 395.665 230.23Z" fill="black"></path><path d="M313.707 253.544C313.091 251.681 318.823 252.192 319.975 251.955C324.81 251.706 329.645 251.301 334.474 250.915C335.078 250.934 335.963 250.547 336.343 251.195C336.405 251.376 336.299 251.575 336.143 251.675C333.988 252.248 331.084 252.111 328.779 252.417C324.094 252.915 319.296 252.99 314.698 253.993C314.318 254.161 313.851 253.924 313.707 253.544Z" fill="black"></path><path d="M306.341 259.619C305.294 258.516 308.179 258.335 308.802 258.124C311.251 257.675 313.712 257.332 316.173 256.959C318.546 256.61 320.927 256.292 323.3 256.005C323.736 255.899 324.82 255.843 324.584 256.554C324.447 256.778 324.204 256.896 323.948 256.927C322.353 257.133 320.758 257.32 319.169 257.538C314.902 258.105 310.465 258.821 306.335 259.613L306.341 259.619Z" fill="black"></path><path d="M307.155 264.466C306.725 264.061 307.441 263.532 307.815 263.874C308.083 264.211 307.479 264.759 307.155 264.466Z" fill="black"></path><path d="M322.896 17.8511C322.659 17.3901 323.257 17.0225 323.643 17.2655C324.241 17.6517 323.213 18.4929 322.896 17.8511Z" fill="black"></path><path d="M322.889 23.2092C322.559 22.474 324.926 22.2435 325.425 21.9942C331.151 20.4304 336.914 18.9849 342.696 17.6205C343.456 17.4398 343.798 18.1251 342.97 18.4242C336.864 19.8572 330.789 21.4211 324.714 22.9538C324.16 23.0784 323.711 23.2591 323.188 23.3837C323.07 23.3837 322.951 23.3213 322.889 23.2092Z" fill="black"></path><path d="M323.341 27.9943C323.13 27.2715 325.186 27.1905 325.684 26.9413C329.971 25.8884 334.257 24.6859 338.569 23.8198C339.154 23.8946 339.086 24.3806 338.612 24.5986C337.192 24.9849 335.746 25.2902 334.313 25.6516C331.042 26.4491 327.765 27.2528 324.488 28.0316C324.12 28.069 323.559 28.4491 323.341 27.9943Z" fill="black"></path><path d="M316.127 34.5612C316.146 34.2497 316.47 34.1313 316.713 34.0254C317.99 33.5519 319.299 33.2341 320.601 32.8541C325.99 31.3276 331.392 29.8635 336.813 28.4429C338.295 28.0691 339.766 27.6392 341.255 27.3152C341.828 27.3027 342.077 27.7638 341.498 28.094C333.461 30.2497 325.38 32.3556 317.355 34.5924C316.944 34.6672 316.233 35.2902 316.121 34.555L316.127 34.5612Z" fill="black"></path><path d="M310.693 45.3713C309.484 44.4554 315.278 43.6579 315.858 43.4086C324.244 41.6329 332.649 39.5021 341.085 38.175C342.119 38.8106 339.197 39.0473 338.842 39.1719C329.565 41.1034 320.232 42.8915 311.06 45.2778C310.979 45.3962 310.817 45.4336 310.693 45.3713Z" fill="black"></path><path d="M322.196 46.4863C322.103 46.2433 322.252 45.9941 322.495 45.9256C324.04 45.4832 325.604 45.1218 327.168 44.748C331.324 43.8384 335.492 42.6733 339.679 41.9941C341.486 42.8103 335.86 43.4583 335.38 43.7013C331.18 44.6608 326.962 45.5704 322.807 46.7231C322.576 46.8165 322.29 46.748 322.196 46.4988V46.4863Z" fill="black"></path><path d="M328.322 54.5237C327.331 53.8695 328.833 53.4645 329.362 53.2838C332.06 52.3929 334.77 51.5206 337.481 50.6545C339.088 50.1374 340.708 49.6327 342.322 49.1343C342.739 48.8975 343.63 49.1218 343.069 49.6764C338.222 51.3586 333.144 52.8664 328.322 54.5175V54.5237Z" fill="black"></path><path d="M339.486 55.4396C339.237 54.5113 341.156 54.5113 341.748 54.206C342.477 54.1001 343.268 53.5206 343.991 53.8197C344.084 53.8695 344.19 53.963 344.171 54.0876C344.041 54.7543 343.199 54.7293 342.682 54.9412C341.779 55.2216 340.963 55.4396 340.115 55.7387C339.866 55.8384 339.573 55.7013 339.48 55.4521L339.486 55.4396Z" fill="black"></path><path d="M339.05 61.3462C338.994 61.234 339.038 61.1032 339.143 61.0409C340.626 60.4926 342.147 60.0564 343.654 59.5642C344.564 59.3275 345.455 58.8851 346.383 58.7854C346.477 58.8103 346.576 58.8477 346.633 58.9287C346.633 59.0346 346.564 59.1406 346.483 59.2029C345.499 59.6764 344.327 59.882 343.293 60.2496C341.978 60.6546 340.651 61.0533 339.337 61.4458C339.231 61.4894 339.112 61.4396 339.056 61.3399L339.05 61.3462Z" fill="black"></path><path d="M349.576 62.7169C349.315 62.3617 349.763 61.9131 350.131 62.1187C350.71 62.4303 349.95 63.2465 349.576 62.7169Z" fill="black"></path><path d="M400.6 19.3652C396.774 19.0412 392.887 18.8107 389.092 18.3559C388.843 18.3434 388.65 18.1129 388.687 17.8574C388.725 17.602 389.011 17.4213 389.254 17.5147C393.061 17.8886 396.868 18.144 400.687 18.4555C401.616 18.5428 401.534 19.4213 400.6 19.359V19.3652Z" fill="black"></path><path d="M394.507 24.717C393.847 23.5519 396.651 23.446 396.302 24.4989C396.071 24.8852 395.616 24.9537 395.199 24.9537C394.944 25.0534 394.663 24.9413 394.514 24.717H394.507Z" fill="black"></path><path d="M394.937 30.2436C394.906 29.9819 395.111 29.7078 395.385 29.6953C396.943 29.5209 398.501 29.3402 400.064 29.1782C402.27 28.9539 404.469 28.6922 406.675 28.4741C406.905 28.4928 407.173 28.5925 407.26 28.823C407.242 29.3152 406.6 29.3713 406.22 29.3962C404.245 29.6143 402.276 29.8448 400.307 30.094C398.7 30.2934 397.099 30.5177 395.491 30.6922C395.223 30.7171 394.968 30.5177 394.943 30.2436H394.937Z" fill="black"></path><path d="M396.944 34.4676C396.769 34.1561 397.025 33.7511 397.38 33.7636C398.994 33.5704 400.614 33.4146 402.234 33.2464C404.178 33.047 406.134 32.8539 408.084 32.667C408.589 32.667 409.997 32.2496 409.866 33.1094C409.748 33.3212 409.498 33.452 409.255 33.4769C407.324 33.6639 405.392 33.8508 403.461 34.0502C401.455 34.2745 399.424 34.424 397.424 34.7168C397.231 34.7355 397.044 34.6358 396.95 34.4676H396.944Z" fill="black"></path><path d="M401.306 38.1249C401.119 37.8881 401.331 37.5143 401.624 37.533C403.194 37.4271 404.751 37.2588 406.321 37.1467C407.001 37.2401 411.25 36.2993 410.733 37.4582C410.608 37.6576 410.371 37.7698 410.147 37.7884C408.726 37.8944 407.312 37.994 405.891 38.0875C404.521 38.1685 403.144 38.262 401.773 38.2931C401.599 38.2931 401.424 38.2869 401.306 38.1249Z" fill="black"></path><path d="M390.864 26.5176C390.727 26.1936 390.97 25.7762 391.294 25.7263C392.914 25.446 394.54 25.2217 396.166 25.0036C398.92 24.6236 401.674 24.231 404.434 23.8759C404.87 23.8385 405.3 23.7201 405.736 23.7388C406.179 23.7762 406.559 24.2497 406.092 24.5737C404.995 25.0597 403.668 24.9351 402.484 25.1905C398.858 25.7076 395.226 26.1874 391.631 26.8728C391.338 26.9787 390.983 26.8354 390.864 26.5239V26.5176Z" fill="black"></path><path d="M404.588 41.9256C404.382 41.2963 405.13 41.1655 405.585 41.1406C406.687 41.0098 407.79 40.7792 408.893 40.7107C409.292 40.7418 409.647 41.1344 409.248 41.4521C408.775 41.8073 408.114 41.72 407.56 41.8571C406.719 41.9879 405.89 42.1125 405.068 42.2558C404.862 42.2558 404.656 42.1312 404.582 41.9256H404.588Z" fill="black"></path><path d="M407.913 47.9071C407.209 47.8448 407.384 46.8854 408.057 46.9414C410.742 46.6735 413.452 46.3184 416.138 46.175C416.331 46.2374 416.58 46.3433 416.605 46.5738C416.58 46.8542 416.262 47.0286 416.013 47.0722C413.315 47.3526 410.605 47.5769 407.913 47.9009V47.9071Z" fill="black"></path><path d="M412.76 52.9909C412.05 52.5734 412.392 51.4021 413.215 51.452C414.206 51.2401 415.626 52.1622 414.311 52.9348C413.844 53.0906 413.165 53.2214 412.76 52.9909Z" fill="black"></path><path d="M422.704 59.1653C422.679 58.941 422.953 58.8351 423.115 58.966C423.458 59.2526 422.76 59.6015 422.704 59.1653Z" fill="black"></path></svg>